<mxfile host="Electron" agent="Mozilla/5.0 (Windows NT 10.0; Win64; x64) AppleWebKit/537.36 (KHTML, like Gecko) draw.io/27.0.9 Chrome/134.0.6998.205 Electron/35.4.0 Safari/537.36" version="27.0.9">
  <diagram name="Page-1" id="nXkHThBmAh5i30WhsKhv">
    <mxGraphModel dx="2084" dy="1252" grid="1" gridSize="10" guides="1" tooltips="1" connect="1" arrows="1" fold="1" page="1" pageScale="1" pageWidth="1100" pageHeight="850" math="0" shadow="0">
      <root>
        <mxCell id="0" />
        <mxCell id="1" parent="0" />
        <mxCell id="KkZl20AM1zGRbjWCz4fC-1" value="" style="shape=image;verticalLabelPosition=bottom;labelBackgroundColor=default;verticalAlign=top;aspect=fixed;imageAspect=0;image=data:image/png,iVBORw0KGgoAAAANSUhEUgAAB3gAAANQCAYAAADKSL6XAAAAAXNSR0IArs4c6QAAAARnQU1BAACxjwv8YQUAAAAJcEhZcwAADsMAAA7DAcdvqGQAAP+lSURBVHhe7N15fFTV/cbx585kIQubiigoWjeMAlrsgqKtu7W1rvysbd2rrbZYt7prqbZaFRfcq7Vq1ap13wXrhnVpiETLIhgRpSrGgMqSBMjM3Pn9EZIyVwsh3zPDucPnfV609Z4bfPJ47r2mh5sErS3NWQEAAAAAAAAAAABAAWWzWWWzWaXTaX3y4RyN/8fzeuSxx6OnrTUOPnB/7bPnHtpw401UUlKiIAg0qe6N6GlKRA8AAAAAAAAAAAAAQL4FQdD53736rqM9dt1ZNTVbR09bK2xTU6PdvrOzevVdJ6eXr8IGLwAAAAAAAAAAAIA1IggCJRIJVVZVq6K6p4487BDtv98PVFVV9T83OItFEASqrq7WQQf8UEccdrAqe/ZUZVW1EonESj/3gG/RDAAAAAAAAAAAAGBN6Pg2zZlMRplMRosXfqH5n85Vc/NihZlM9PSik0gmVV3dU+v1H6CevfsqmUwqmUwqCAIFQaDaSXXRD/nvBu+MKfXROQAAAAAAAAAAAABAAW099Oudb/CucoO3Ztjw6DwAOFFSWqrS0rLoYS+kUylllfU2n2KQ0fd8ikFG3/MpBhl9z6cYZCSfHRntLPkaZ9YpTLdpwJCR0SmnLBkLwfd8ikFG8tn5ntH3fIpBRt/ziYxOkM+OjHbksyOjne/5FIOM5LMjo11c8k2dXJuzZ/tVG7z8DF4AAAAAAAAAAAAAiAne4AVQECWlpXpiop9/KiYMQx2wW9rbP7WjFf7kDh12Hx3a0aEdHdqs+KcsH34uOusH3ztUka/DQr/BW4wdFgod2nA/tKNDOzp0g/uhDevQDdahDevQDdahHR3acC27wTq06eivK2/wssELFJEzz7tAL7/yqiTpwP1/qLNPPzV6So4PP/pYY68ap2kzpquiR6X22WtPjT7h50ok2l/ub1myRH+8/Aq98trrqq6u0rFHHKGDD9y/8+NXNb+ip1/toVfqk/reztGZNW/8K9LOwzM6ZK9kdMob6VRKj72UoEMDOrSjQzs6tOn4l9wnXy7Ty2+IDrupmNdhITd4i7XDQqFDG+6HdnRoR4ducD+0YR26wTq0YR26wTq0o0MbrmU3WIc2HeuQDV5gLXXFuGuUzoSr3OA9/pcnadNBG+uUX49W07z5OvWMs3TMkT/VAfvtJ0m6ZOyV+uijj/T7MRdozn8+1G/OOUdXXXqZtt9uaJfmV/T0qz1UVeHnTf3piRktaZO3N3Wt8GCkw+6jQzs6tKNDmxW/2Koo9/OLLd87VJGvw0Jv8BZjh4VChzbcD+3o0I4O3eB+aMM6dIN1aMM6dIN1aEeHNlzLbrAObTrWYVc2ePkZvMBabPb77+v7+35PVZWV+tomg/Stb35Ds9//QJKUTqf1j+df0PHHHqN111lHw7ffTnvutruenjChS/MAAAAAAAAAAABwjw1eYC22y0476ZkJz6plyRLN+fBDTa5/UyN32lGS9Enjp1qyZIm22nKLzvO33GILzf6gfQN4VfMAAAAAAAAAAABwjw1eYC32yxOO17+nTNUe3/uBfnT4Udppx2/rWzvsIElasqRVklRZUdF5fnV1lVpa2o+vah4AAAAAAAAAAADuscELrKXS6bR+dcqp2mevPfTCM0/r4fv+phkz39Ff/nqnJKmiolKS1LpkSefHNDe3qKqq/fiq5gEAAAAAAAAAAOAeG7zAWuqTxk/14Udzddj/HarKyh4asOGG2mfPPVVb94YkacMN+qtHjx5qeHdW58e8O2uWNtt00y7NAwAAAAAAAAAAwL2gtaU5K0kzptSrZtjw6DyAGLpi3DVKZ0KdffqpOcdPPuMsbTN4sH5x3LFqa2vTDw4epZ/86FAdNuoQLVy4SBdc9AcN3moL/eaUkyVJl1x+hT76+GP9fswFmvOfD/Wbc87RVZdepu23G9ql+RU99c9yVfQItPdOmejUGjfh1YSWLpMO2D2MTnkjzIR6YmIJHRrQoR0d2tGhTZgJJWX15D/L1KNMdNhNxbwOmxrqlc20qX/NiOiUU8XcYaHQoQ33Qzs6tKNDN7gf2rAO3WAd2rAO3WAd2tGhDdeyG6xDmzATKpFMaOrk2pw929pJdTnniTd4geJy8623acR3d9eDjzymRx9/QiO+u7tuvPnP0dMkSWVlZbr84j/oldde174HHqKjfn6CNt5ooE48/rjOc04+6Vfq27evDj7sp7rgoj9o9C9OyNm8XdV8jkAKJAVejo58Ho/28ujQMujQPujQPujQNgKpo0Q6NIyiXoftH5z3UdQdFmjQoW1wP7QPOrQPOnQzuB/aBuvQzWAd2gbr0M1gHdoHHdoG17KbwTq0jUBdxhu8AAri6Vd7qKoiqe/tHJ1Z856emNGSNumQvZLRKW+kUyk99lKCDg3o0I4O7ejQJp1KKausnny5TBXlosNuKuZ12DizTmG6TQOGjIxOOVXMHRYKHdpwP7SjQzs6dIP7oQ3r0A3WoQ3r0A3WoR0d2nAtu8E6tOlYh7zBCwAAAAAAAAAAAABFhA1eAAAAAAAAAAAAAIiJnA3ebDarMAy1aOEXmvNeg96Z9m/NmFIf61/vTPu35rz3rhYtXKAwDJXNZtfo5/lVeQAAAAAAAAAAAACgK3J+Bu/gIdvrs6ZGLV60UH+5827dfvtftWDBgujHxEqfPn103M+O1VE/PUy9evfROv36S5I+m9eo5kUL9fzEVzV+wrNqaWmJfmheVFdXa99999GuI3dUz969td76GyoIAgWr85OTgRjiZ/Da8LML7OjQjg7t6NCGn4fjRjGvQ34GbztLh4VChzbcD+3o0I4O3eB+aMM6dIN1aMM6dIN1aEeHNlzLbrAObTrW4Wr/DN7mRQu0eNFC/fxXJ+vqq6+J/eauJC1YsEBXXHmVTjjpVC1etECLFy7U4oVfaPGCBbrxltv10MOPFGxzV5Kam5v1wAMP6U+33qHmhQvUvGhh51vFAAAAAAAAAAAAALAyORu8X3z2mW6/61699tprKx4uCq+++qr++rf7tODz+fr8s8/04iv/0rTp06OnFczUadP04iv/0hefzWdzF2uFdEYq8fMPxagk2Z7Pd3RoR4d2dGhHh3Z0aEeHdnRoR4d2dGhHh3Z0aEeHdnRoR4d2dGhHh3Z0aEeHdnRYGDnfojmRSGq3fX5QFG/ufpU+ffroxQlPKp3O6ILf/1Gtra3RUwqqurpal4w5V18bvK2SyaQSiZz9dqCoPPhcuQb2l3YZHkan1riX3wg0d16gw/b1L1uHMBPq/mdL6NCADu3o0I4ObcJMKCmrB/5RrgHrh3TYTcW8Dpsa6pXNtKl/zYjolFPF3GGh0KEN90M7OrSjQze4H9qwDt1gHdqwDt1gHdrRoQ3XshusQ5swEyqRTKz+t2gOw0zRbu5K0sKFCxWGoTKZ9Brf3JWklpYWZcKw8w1e3uRFcQu8HQr8zhcoUPuP6f7SUW8GHdoHHdoHHdqH9x0G0vISozPeDO87VLGvQ8vHrsYwZcz/sHVYoOF5Ru875H5oH3RoH3ToZnie0fsOWYduhucZve+QdehmeJ6RDu3D+w65lt0MzzN632H7EuySnDd4JWmHHb8TPaeoTH79ZaVSKZ15/oXRqTXi6sv+oM23HqKSkhIFQaBgdf7pATHy0PMV2njDhL77jejMmvdibUYfNwU6/If+vkWfTqV03/gkHRrQoR0d2tGhTTqVUlZZPfBsmQb2Fx12UzGvw8aZdQrTbRowZGR0yqli7rBQ6NCG+6EdHdrRoRvcD21Yh26wDm1Yh26wDu3o0IZr2Q3WoU3HOlztN3jXhB12HaPtdz47evgr/eSUD9RvQPuKOOI3jVpn/SHRUyRJBx73utbpPyx6GAAAAAAAAAAAAABibZUbvKXlPbXHqPt07HktOvz0j7XNN0+MntJt5RV9NXyXUzVks/nRqa/Ur18/bbrpptLyn6e70UYbRU+RJO04dLF2/eFV0cM5VvXtkCsrKzVmzBhNmDBBDz30kA444IDoKTlW9/yoVeUBAAAAAAAAAAAAgFVu8O7yg2tVM+TbOnjkZO3+9fc1ct+rtMEmu0RP65Yh3/yZNuq3WA8/eE90yuSZRy9X/41HqqrXV28Ad8Wvf/1rbbPNNmpoaNAnn3yi0aNHa9iw//1W8OqeDwAAAAAAAAAAAACra6UbvIlkqbYc+hNt1KteRx5+oK678iRttuHnGrHbqdFTv9L2O5+tvQ59MOfYTvteo532vVaSNOybP9Hi+W+otbW1c76y5wDt+X9/15FnztNhv56lQVvtt8JHf7X1N/q2fnrah9po870lSa++MlHr9lqsbb4+Knpql5SUlGivvfZSQ0ODzjvvPF1zzTVatGiRDj300OipUjfOBwAAAAAAAAAAAIDuWOkGb591N1c2KNMD91ylzz//XG+++aY+/egNDRi0Q+c5u+z3J+1+8N05H9dh6JZLtdk2B6isvJckKUgkNeSbR2uHbTKSpIpeW2j2u//qPD8IEvrBEU9p6JCtdODIf+t735ypb4w8vHP+qwz42u7a9yePaY/hszVg3QWSpFQqpVTrf7TlNrtHT++SgQMHqqSkRPfff78WLVqkd999V++8844GDx4cPVXqxvkAAAAAAAAAAAAA0B0r3eDdcED7z7udOfPfnceaPp2j0rKenX+93XbbaejQoZ1/vaJ/PHOf1u3VosHb/UiStNFme6iyokQvjL9VkpQNKvTJx+93nt9vwNe13gbbqseyh3XcMYfq3LN+ro16vtY5H9Vv4z2196H3aPft39bVl43WpEmTOucWLWxSn74b5pzfVf3795ckzZo1q/NYY2OjKioqVjjrv1b3fAAAAAAAAAAAAADojqC1pTkrSTOm1EuSdtjxO52T2+2wl779w2f110v7aNnShZKkUUfdoE1rDtUVZ/eTJJ1xxhmqqKjQRRdd1PlxK7roypf17ocVumvcNzXquCe0w9c31zm/2kaSdPIlS/TqU8fqjVfvlSTtuNsJGvm9sbrm/HWUSqUiv5N08sUteu2po1T32oM66Q9LtXTZMm3af77+eu2+amhoyDn3uNMmqKq6l665aMec45Nff1mpVEpnnPc7BUGQM9fhm9/8pq644gr94Ac/UHNzsyTp1FNP1W677ab9998/evpqn7+iqy/7gzbfeoiSyaQSicT/zATE3YPPlWtgf2mX4WF0ao17+Y1Ac+cFOmxf/7J1CDOh7n+2hA4N6NCODu3o0CbMhJKyeuAf5RqwfkiH3VTM67CpoV7ZTJv614yITjlVzB0WCh3acD+0o0M7OnSD+6EN69AN1qEN69AN1qEdHdpwLbvBOrQJM6ESyYSmTq5VzbDhncdrJ9XlnKdVvcH7+bx3VZIMNWCTb3ceq+w9WKXB/M6/Hjt27P/c3JWkt/71F1X22V5VvTbSugP31Ozp93XOVZcvUN/1/vttjKt6LFPLsnKF2ZXG6rRTzdv68NMqVfY/JDqlkoqNFS6bEz3cJR9++KHCMFRNTU3nsUGDBmnhwvZN7qjVPR9YOwXeDgV+5wsUqP3PfnzpqDeDDu2DDu2DDu3D+w4DaXmJ0RlvhvcdqtjXoeVjV2OYMuZ/2Dos0PA8o/cdcj+0Dzq0Dzp0MzzP6H2HrEM3w/OM3nfIOnQzPM9Ih/bhfYdcy26G5xm977B9CXbJSt/gLSkp0e+vm6N/T5+rx+/4ofqst7V+ePQEVbfdrisvOUFa/jN4S8uq9cLDX/2zcvv06aOTL3pPU6ZM05aDv677bximDz74QJJ03iX/0H8+Sequ69p/Vu5WgwfroOMnadKrD+tf/zhbJaWVGvLtX+v18adKX/EG75vPHaljj/mRXntnJ0166QpNee1KSVIiWaZf/Hah5v77RD328B0rpOnaG7zJZFL333+/PvvsM5199tkaNGiQrrjiCj3zzDO68sr2v8fYsWP1zjvv6NZbb+3S+f8Lb/BibfHQ8xXaeMOEvvuN6Mya92JtRh83BTr8h137wyVrQjqV0n3jk3RoQId2dGhHhzbpVEpZZfXAs2Ua2F902E3FvA4bZ9YpTLdpwJCR0SmnirnDQqFDG+6HdnRoR4ducD+0YR26wTq0YR26wTq0o0MbrmU3WIc2HevQ/AZvOp3Wgv/cokED++jHp7yvfQ57QF/ffLaee+qmznNW9jN4JWnBggXSkknqt9F31Lvsnc7NXUmaUX+Hqtf9hkrLqiVJ7zY0aJOeT2nbod/Uj0bP0P5HP68dhlSu8LvlWrRokc447efaZZs6fWvXMzRkxMmSpK/V7K9+vRfp9Veejn5Il2QyGT3xxBOqqqrS3//+d1100UX65JNP9Nhjj3WeM2jQIG255ZZdPh8AAAAAAAAAAAAArFa6wStJ110zVtWpe/WT3V7TgTu+pgkPn6t///vfnfMVbQ+rd/ahnI+J+tcL43Tknq9qeu3VOcefHf+YNtvgY20/sv0N3Ww2qzHnn6wNyx/Tod/5l3747Umqf+2vnefvMvgZLf58miRpr2HPqnlBgz777DOdcdpx2mu7iarZeK4kaae9fqfSpU+rqamp82NX13333afnn39e06ZN07Rp03TLLbdo1qxZnfMvv/yy/vnPf3b5fAAAAAAAAAAAAACwWuUGb2trq377299qjz320AEHHKBHHnkkZ35VP4NXkiZMmKCdd95Z99xzT87x5uZmvV17uQYPfL/z2Lx583Teeefp+9//vg477DC99tprnXOjRo3SzJkzJUn777+/Zs+eLUlqamrSj370Iz3wwAOSpJGDX9Ffb7248+O6Y+nSpbrtttt06qmn6txzz83ZzJWkG264QU8++WSXzwcAAAAAAAAAAAAAq1Vu8Obb7bffrrvvvjt62OSEE07g7VnAM8vapPKy6FE/lJW15/MdHdrRoR0d2tGhHR3a0aEdHdrRoR0d2tGhHR3a0aEdHdrRoR0d2tGhHR3a0aEdHRbGGt/gLaQgCL7yf68pvuUB8inMSglPl3kiaM/nOzq0o0M7OrSjQzs6tKNDOzq0o0M7OrSjQzs6tKNDOzq0o0M7OrSjQzs6tKNDOzosjJwN3kQiqT59+qx4qKj07t1biURCiURSlZWV0emCq6ysVCKxVu2xAwAAAAAAAAAAADAIWluas5I0Y0q9Kqt66s+3/1VXXT0uel5R+M1vTtOxh/9U6UxGz704UY8+/kT0lII6+MD9tc+ee2jDjTdRSUmJgiDgTV4Urbuf6qEhW2b1jW3D6NQaN2lqoLffS+joAzPRKW+EmVB3PlFKhwZ0aEeHdnRoE2ZCSVnd+WS5hmwR0mE3FfM6bGqoVzbTpv41I6JTThVzh4VChzbcD+3o0I4O3eB+aMM6dIN1aMM6dIN1aEeHNlzLbrAObcJMqEQyoamTa1UzbHjn8dpJdTnnKfoGb6++6+jYI3+inXbaccXDRWHnnUfqqJ8cpurefdV7nXW1+3dHqqZm6+hpBbNNTY12+87O6tV3nc5NXTZ3UdSC9v/wc7Tnix71agR0aB50aB90aB90aBuBpCBozxmd82Z43qGKfR0W6PMq6g4LNOjQNrgf2gcd2gcduhncD22DdehmsA5tg3XoZrAO7YMObYNr2c1gHdpG+wLskpw3eDcbvK2++HyePv34Q93/yBO6/Y47tXDhQmWz8fyG1EEQqE+fPvrZMUfpkAN+oP4DNlavPutIkj7/rEnzPvlYr9e9pedffEmtra15/zyDIFBVVZX22mM3fWv4MK0/YCOt128DlZSUKJFIsMGLonb30xXabnBC3xoanVnzXn8ro2mzAh0/yt9vmZ5OpXT7Y0k6NKBDOzq0o0ObdCqlrLK684kyDd1SdNhNxbwOG2fWKUy3acCQkdEpp4q5w0KhQxvuh3Z0aEeHbnA/tGEdusE6tGEdusE6tKNDG65lN1iHNh3rsCtv8OZs8G5RM1SZTEaLF36h+Z/OVXPzYoUZP19T7qpEMqnq6p5ar/8AVffq0/kzb8MwVPOiBQX/PFfM07N3XyWTSSWTSb49M4oeG7w2PBjt6NCODu3o0IYvttwo5nXIBm87S4eFQoc23A/t6NCODt3gfmjDOnSDdWjDOnSDdWhHhzZcy26wDm061mFXNnhzPoOOzcZefdbRpltuo223/5aG7rCjhgwfEctfQ3fYUdtu/y1tuuU26tVnHZWUlOT8KvTnGc3D5i4AAAAAAAAAAACA1ZGzwRsEgZLJ5Jc2QktLS2P5K/p5JJNJJRIJJRKJNfJ5Rv9+bO4CAAAAAAAAAAAAWB1f2uANguBLG6Adb5rG7Vd0Y7fj81tTn+f/ygMAAAAAAAAAAAAAXfGlbzK94ubniv87jr++6nNZk5/nV/09AQAAAAAAAAAAAKCrvrTBu6KOTci4/1qV6Pn5/gUAAAAAAAAAAAAA3bHSDV4AAAAAAAAAAAAAgD+C1pbmrCTNmFKvmmHDo/MA4MTdT/XQkC2z+sa2YXRqjZs0NdDb7yV09IGZ6JQ3wkyoO58opUMDOrSjQzs6tAkzoaSs7nyyXEO2COmwm4p5HTY11CubaVP/mhHRKaeKucNCoUMb7od2dGhHh25wP7RhHbrBOrRhHbrBOrSjQxuuZTdYhzZhJlQimdDUybU5e7a1k+pyzhNv8AIomKD9P/wc7fmiR70aAR2aBx3aBx3aBx3aRiApCNpzRue8GZ53qGJfhwX6vIq6wwINOrQN7of2QYf2QYduBvdD22AduhmsQ9tgHboZrEP7oEPb4Fp2M1iHttG+ALuEN3gBFMSdT1Zoh20T+sa20Zk1r3ZKRm/NDPSLQ/39My/pVEp/eSRJhwZ0aEeHdnRok06llFVWdzxWpq/XiA67qZjXYePMOoXpNg0YMjI65VQxd1godGjD/dCODu3o0A3uhzasQzdYhzasQzdYh3Z0aMO17Abr0KZjHfIGLwBvtKWk8rLoUT+Ul2bVlooe9Q8d2tGhHR3a0aHdsjY6tGId2tGhHR3acT+0o0M7OrTjfmjHOrRjHdqxDu1Yh3Z0aMe1bMc6LAw2eAEAAAAAAAAAAAAgJtjgBQAAAAAAAAAAAICYYIMXAAAAAAAAAAAAAGKCDV4AAAAAAAAAAAAAiAk2eAEAAAAAAAAAAAAgJoLWluasJM2YUq+aYcOj8wDgxJ8f7qFddshqyBZhdGqNm9ogvfJmUif+KBOd8kaYCXXzg6V0aECHdnRoR4c2YSaUlNUtD5Vr5+EhHXZTMa/DpoZ6ZTNt6l8zIjrlVDF3WCh0aMP90I4O7ejQDe6HNqxDN1iHNqxDN1iHdnRow7XsBuvQJsyESiQTmjq5NmfPtnZSXc554g1eAIUTKFj+n96NoCOfx6Mzo6dJ6dA+6NA+6NA+fO8wkJb/Bx1aRlGvQ8vHrsYo6g4LNOjQNrgf2gcd2gcduhncD22DdehmsA5tg3XoZrAO7YMObYNr2c1gHdpGoC7jDV4ABXHrIxXa9VsJDd0yOrPmvTUjrX/WJ3TST/39My/pVEo33Z+kQwM6tKNDOzq0SadSyiqrmx8o03e/KTrspmJeh40z6xSm2zRgyMjolFPF3GGh0KEN90M7OrSjQze4H9qwDt1gHdqwDt1gHdrRoQ3XshusQ5uOdcgbvAAAAAAAAAAAAABQRNjgBQAAAAAAAAAAAICYYIMXAAAAAAAAAAAAAGKCDV4AAAAAAAAAAAAAiAk2eAEAAAAAAAAAAAAgJtjgBQAAAAAAAAAAAICYCFpbmrOSNGNKvWqGDY/OA4ATN/y9QvvuEmqrTcLo1Br3zvvS+FdLdPLh6eiUN8JMqOvuLaNDAzq0o0M7OrQJM6GkrK6/r1zf25kOu6uY12FTQ72ymTb1rxkRnXKqmDssFDq04X5oR4d2dOgG90Mb1qEbrEMb1qEbrEM7OrThWnaDdWgTZkIlkglNnVybs2dbO6ku5zzxBi+AQsmEUklCCjwcyWR7vuhxr0ZAh+ZBh/ZBh/ZBh7YRSAoCZcKADi2jqNeh1N2PXK1R1B0WaNChbXA/tA86tA86dDO4H9oG69DNYB3aBuvQzWAd2gcd2gbXspvBOrSN9v9jo0t4gxdAQVx3X6UO3jPQFoOiM2veO7PTeuylpM48djXungWWTqV01V0ldGhAh3Z0aEeHNulUSlllNe7uMh20h+iwm4p5HTbOrFOYbtOAISOjU04Vc4eFQoc23A/t6NCODt3gfmjDOnSDdWjDOnSDdWhHhzZcy26wDm061iFv8AIAAAAAAAAAAABAEWGDFwAAAAAAAAAAAABigg1eAAAAAAAAAAAAAIgJNngBAAAAAAAAAAAAICbY4AUAAAAAAAAAAACAmGCDFwAAAAAAAAAAAABiImhtac5K0owp9aoZNjw6DwBOXHtvhQ7YLaPNN85Gp9a4WXOkxyeW6LQj09Epb4SZUOP+VkaHBnRoR4d2dGgTZkJJWV1zTw/tv2uaDrupmNdhU0O9spk29a8ZEZ1yqpg7LBQ6tOF+aEeHdnToBvdDG9ahG6xDG9ahG6xDOzq04Vp2g3VoE2ZCJZIJTZ1cm7NnWzupLuc88QYvgEIKPB0K/M4XKFDgeUY6tA86tA86tA/vOwykjhK/NOfJ8L5DFfs67P5HrtYwZcz/sHVYoOF5Ru875H5oH3RoH3ToZnie0fsOWYduhucZve+QdehmeJ6RDu3D+w65lt0MzzN63+HyfF3BG7wACuK6+yp18J6BthgUnVnz3pmd1mMvJXXmsatx9yywdCqlq+4qoUMDOrSjQzs6tEmnUsoqq3F3l+mgPUSH3VTM67BxZp3CdJsGDBkZnXKqmDssFDq04X5oR4d2dOgG90Mb1qEbrEMb1qEbrEM7OrThWnaDdWjTsQ55gxcAAAAAAAAAAAAAiggbvAAAAAAAAAAAAAAQE2zwAgAAAAAAAAAAAEBMsMELoCCy2c6fUe+dIGjP5zs6tKNDOzq0o0M7OrSjQzs6tKNDOzq0o0M7OrSjQzs6tKNDOzq0o0M7OrSjQzs6LAw2eAEUxNJlUo/y6FE/9Chvz+c7OrSjQzs6tKNDOzq0o0M7OrSjQzs6tKNDOzq0o0M7OrSjQzs6tKNDOzq0o0M7OiwMNngBAAAAAAAAAAAAICaC1pbmrCTNmFKvmmHDo/MA4MTld1To6AMzGtDPv+9/8FFjVnc+Uapzj09Hp7wRZkJdelsZHRrQoR0d2tGhTZgJJWV16W09dPSBaTrspmJeh00N9cpm2tS/ZkR0yqli7rBQ6NCG+6EdHdrRoRvcD21Yh26wDm1Yh26wDu3o0IZr2Q3WoU2YCZVIJjR1cm3Onm3tpLqc88QbvAAKJ/B3BJ7nUwwy+p5PMcjoez7FIKPv+RSDjHHIt/yHuHxpzpfhe4eKQUZTPsvHrsYwZSzA8D2fYpAxDvm4H9oGHdoHHboZvmeMQz7WoX34njEO+ViH9uF7Rt/zKQYZ45CPa9k+fM8Yi3xdwxu8AAri8jsqddyoQAPXj86sef+Zm9btjyY15percfcssHQqpYv/XEKHBnRoR4d2dGiTTqWUVVZ/vLVMPztEdNhNxbwOG2fWKUy3acCQkdEpp4q5w0KhQxvuh3Z0aEeHbnA/tGEdusE6tGEdusE6tKNDG65lN1iHNh3rkDd4AQAAAAAAAAAAAKCIsMELAAAAAAAAAAAAADHBBi8AAAAAAAAAAAAAxAQbvAAAAAAAAAAAAAAQE2zwAgAAAAAAAAAAAEBMsMELAAAAAAAAAAAAADHBBi8AAAAAAAAAAAAAxETQ2tKclaQZU+pVM2x4dB4AnLj8jgodfWBGA/plo1Nr3EeNWd35RKnOPT4dnfJGmAl16W1ldGhAh3Z0aEeHNmEmlJTVpbf10NEHpumwm4p5HTY11CubaVP/mhHRKaeKucNCoUMb7od2dGhHh25wP7RhHbrBOrRhHbrBOrSjQxuuZTdYhzZhJlQimdDUybU5e7a1k+pyzhNv8AIonMDfEXieTzHI6Hs+xSCj7/kUg4y+51MMMsYhX3vI6Iw/w/cOFYOMpnyWj12NYcpYgOF7PsUgYxzycT+0DTq0Dzp0M3zPGId8rEP78D1jHPKxDu3D94y+51MMMsYhH9eyffieMRb5uoY3eAEUxOV3VOq4UYEGrh+dWfP+Mzet2x9NaswvV+PuWWDpVEoX/7mEDg3o0I4O7ejQJp1KKaus/nhrmX52iOiwm4p5HTbOrFOYbtOAISOjU04Vc4eFQoc23A/t6NCODt3gfmjDOnSDdWjDOnSDdWhHhzZcy26wDm061iFv8ALwRjojlSSjR/1QkmzP5zs6tKNDOzq0o0M7OrSjQzs6tKNDOzq0o0M7OrSjQzs6tKNDOzq0o0M7OrSjQzs6LAw2eAEURCotlZZEj/qhpKQ9n+/o0I4O7ejQjg7t6NCODu3o0I4O7ejQjg7t6NCODu3o0I4O7ejQjg7t6NCODu3osDDY4AUAAAAAAAAAAACAmGCDFwAAAAAAAAAAAABigg1eAAAAAAAAAAAAAIgJNngBAAAAAAAAAAAAICaC1pbmrCTNmFKvmmHDo/MA4MSFN1fqtCPT6tsrG51a4z77IqtxfyvT70enolPeCDOhxtxUTocGdGhHh3Z0aBNmQklZjbmpBx0aFPM6bGqoVzbTpv41I6JTThVzh4VChzbcD+3o0I4O3eB+aMM6dIN1aMM6dIN1aEeHNlzLbrAObcJMqEQyoamTa3P2bGsn1eWcJ97gBVBYgZ8j8Dpd+1ie0duUdGgfdGgfdGgfvncYSAoCtcf80qwfw/cOVezrsPsfuVqjqDss0KBD2+B+aB90aB906GZwP7QN1qGbwTq0Ddahm8E6tA86tA2uZTeDdWgbnf2tGm/wAiiIC2+u1JnHBlqnd3RmzWv6LK2r7kzq0lNX4+5ZYOlUSudfX0KHBnRoR4d2dGiTTqWUVVa/vaFMZxwjOuymYl6HjTPrFKbbNGDIyOiUU8XcYaHQoQ33Qzs6tKNDN7gf2rAO3WAd2rAO3WAd2tGhDdeyG6xDm451yBu8AAAAAAAAAAAAAFBE2OAFAAAAAAAAAAAAgJhggxcAAAAAAAAAAAAAYoINXgAAAAAAAAAAAACICTZ4AQAAAAAAAAAAACAm2OAFAAAAAAAAAAAAgJgIWluas5I0Y0q9aoYNj84DgBMX3lyp045Mq2+vbHRqjfvsi6zG/a1Mvx+dik55I8yEGnNTOR0a0KEdHdrRoU2YCSVlNeamHnRoUMzrsKmhXtlMm/rXjIhOOVXMHRYKHdpwP7SjQzs6dIP7oQ3r0A3WoQ3r0A3WoR0d2nAtu8E6tAkzoRLJhKZOrs3Zs62dVJdznniDF0ChLGuTepRJgYejR3l7vuhxr0ZAh+ZBh/ZBh/ZBh7YRSAoCLWsL6NAyinodSt39yNUaRd1hgQYd2gb3Q/ugQ/ugQzeD+6FtsA7dDNahbbAO3QzWoX3QoW1wLbsZrEPbaP8/NrqEN3gBFMQ511bpj6dKFeXRmTVvcXNKF1xfqnFnR2f8kU6l9JsrS+nQgA7t6NCODm3SqZSyyuqMK8vo0KCY12HjzDqF6TYNGDIyOuVUMXdYKHRow/3Qjg7t6NAN7oc2rEM3WIc2rEM3WId2dGjDtewG69CmYx3yBi8AAAAAAAAAAAAAFBE2eAEAAAAAAAAAAAAgJtjgBQAAAAAAAAAAAICYYIMXAAAAAAAAAAAAAGKCDV4AAAAAAAAAAAAAiAk2eAEAAAAAAAAAAAAgJoLWluasJM2YUq+aYcOj8wDgxDnXVuqi0SlVlEdn1ryW1lC/u6lcY09PRae8EWZCnTWunA4N6NCODu3o0CbMhJKyOmtchS4a3UaH3VTM67CpoV7ZTJv614yITjlVzB0WCh3acD+0o0M7OnSD+6EN69AN1qEN69AN1qEdHdpwLbvBOrQJM6ESyYSmTq7N2bOtnVSXc554gxdA4QT+jsDzfIpBRt/zKQYZfc+nGGT0PZ9ikDEO+dpDRmf8Gb53qBhkNOWzfOxqDFPGAgzf8ykGGeOQj/uhbdChfdChm+F7xjjkYx3ah+8Z45CPdWgfvmf0PZ9ikDEO+biW7cP3jLHI1zW8wQugIM65tkp/PFVe/qmdxc0pXXB9qcadHZ3xRzqV0m+uLKVDAzq0o0M7OrRJp1LKKqszriyjQ4NiXoeNM+sUpts0YMjI6JRTxdxhodChDfdDOzq0o0M3uB/asA7dYB3asA7dYB3a0aEN17IbrEObjnXIG7wAAAAAAAAAAAAAUETY4AUAAAAAAAAAAACAmGCDFwAAAAAAAAAAAABigg1eAAAAAAAAAAAAAIgJNngBFEQYSglP7zjJhJQJo0f9Q4d2dGhHh3Z0aEeHdnRoR4d2dGhHh3Z0aEeHdnRoR4d2dGhHh3Z0aEeHdnRoR4eF4WnFAIrNspRUXho96oeyUqktFT3qHzq0o0M7OrSjQzs6tKNDOzq0o0M7OrSjQzs6tKNDOzq0o0M7OrSjQzs6tKNDOzosjKC1pTkrSTOm1Ktm2PDoPAA4ccrYKl1/blv0sBfCTKhfX9bD23yKQUbf8ykGGX3Ppxhk9D2fYpAxDvmkrH59WYXXGX3uUDHIaMnX1FCvbKZN/WtGRKecsmQsBN/zKQYZ45CP+6ENHdrRoRu+Z4xDPtahne8Z45CPdWjne0bf8ykGGeOQj2vZzveMcciXSCY0dXJtzp5t7aS6nPPEG7wACinwdQSe51MMMvqeTzHI6Hs+xSCj7/kUg4xxyLc85JfmfBm+d6gYZDTl6/5HrtYwZSzA8D2fYpAxDvm4H9oGHdoHHboZvmeMQz7WoX34njEO+ViH9uF7Rt/zKQYZ45CPa9k+fM8Yk3xdwRu8AArilLFVunlM9Kgf0qmUfnVJqbf5FIOMvudTDDL6nk8xyOh7PsUgYxzyZZXV6EvKvM7oc4eKQUZLvsaZdQrTbRowZGR0yilLxkLwPZ9ikDEO+bgf2tChHR264XvGOORjHdr5njEO+ViHdr5n9D2fYpAxDvm4lu18zxiHfFlleYMXAAAAAAAAAAAAAIoJG7wAAAAAAAAAAAAAEBNs8AIAAAAAAAAAAABATLDBCwAAAAAAAAAAAAAxwQYvAAAAAAAAAAAAAMQEG7wAAAAAAAAAAAAAEBNs8AIAAAAAAAAAAABATAStLc1ZSZoxpV41w4ZH5wHAiVPGVun6c9uih70QZkL9+rIe3uZTDDL6nk8xyOh7PsUgo+/5FIOMccgnZfXryyq8zuhzh4pBRku+poZ6ZTNt6l8zIjrllCVjIfieTzHIGId83A9t6NCODt3wPWMc8rEO7XzPGId8rEM73zP6nk8xyBiHfFzLdr5njEO+RDKhqZNrc/ZsayfV5Zwn3uAFUEiBryPwPJ9ikNH3fIpBRt/zKQYZfc+nGGSMQ77lIb8058vwvUPFIKMpX/c/crWGKWMBhu/5FIOMccjH/dA26NA+6NDN8D1jHPKxDu3D94xxyMc6tA/fM/qeTzHIGId8XMv24XvGmOTrCt7gBVAQp4yt0s1jokf9kE6l9KtLSr3Npxhk9D2fYpDR93yKQUbf8ykGGeOQL6usRl9S5nVGnztUDDJa8jXOrFOYbtOAISOjU05ZMhaC7/kUg4xxyMf90IYO7ejQDd8zxiEf69DO94xxyMc6tPM9o+/5FIOMccjHtWzne8Y45Msqyxu8AAAAAAAAAAAAAFBM2OAFUBBlpdEjfikvlZalokf90ZaiQys6tKNDOzq0o0M7OrSjQzs6tKNDOzq0o0M7OrSjQzs6tKNDOzq0o0M7OrSjw8JhgxdAQSQ9v9skElIYRo/6IxPSoRUd2tGhHR3a0aEdHdrRoR0d2tGhHR3a0aEdHdrRoR0d2tGhHR3a0aEdHdrRYeF4XjMAAAAAAAAAAAAAoAMbvAAAAAAAAAAAAAAQE2zwAgAAAAAAAAAAAEBMBK0tzVlJmjGlXjXDhkfnAcCJc66t1NjT/fzJ5WEm1FnjynXR6JQqyqOzfmhpDfW7m8rp0IAO7ejQjg5twkyoJcuk393UQ2NPb4tOe8H3DlXk67CpoV7ZTJv614yITjlVzB0WCh3acD+0o0M7OnSD+6EN69AN1qEN69AN1qEdHdpwLbvBOrQJM6ESyYSmTq7N2bOtnVSXc554gxdA4QT+jsDzfIpBRt/zKQYZfc+nGGT0PZ9ikDEO+QLPnyq+d6gYZDTls3zsagxTxgIM3/MpBhnjkI/7oW3QoX3QoZvhe8Y45GMd2ofvGeOQj3VoH75n9D2fYpAxDvm4lu3D94yxyNc1vMELoCDOubZK486OHvVDOpXSb64s1R9PlZd/akeSFjendMH1pXRoQId2dGhHhzbpVEqty7L67fVldGhQzOuwcWadwnSbBgwZGZ1yqpg7LBQ6tOF+aEeHdnToBvdDG9ahG6xDG9ahG6xDOzq04Vp2g3Vok06llFWWN3gBAAAAAAAAAAAAoJiwwQsAAAAAAAAAAAAAMcEGLwAAAAAAAAAAAADEBBu8AAAAAAAAAAAAABATbPACAAAAAAAAAAAAQEywwQsAAAAAAAAAAAAAMRG0tjRnJWnGlHrVDBsenQcAJ865tlJjT09FD3shzIQ6a1y5LhqdUkV5dNYPLa2hfndTOR0a0KEdHdrRoU2YCbVkmfS7m3po7Olt0Wkv+N6hinwdNjXUK5tpU/+aEdEpp4q5w0KhQxvuh3Z0aEeHbnA/tGEdusE6tGEdusE6tKNDG65lN1iHNmEmVCKZ0NTJtTl7trWT6nLOE2/wAiiUIJACX0fQnk/ZL814M6TlOX0ddGgfdGgfdGgfvncYSNnl//2lOV+G7x0W/TpU++eX51HcHRZm0KFxcD+0Dzq0Dzp0MrgfGgfr0MlgHRoH69DJYB3aBx0aB9eyk8E6NI4gurPyv/EGL4CCuPDmSl166mrcnQoonUrp/OtLdOaxgdbpHZ31Q9NnaV11Z5IODejQjg7t6NAmnUrp80XS1XeV6o+nRGf94HuHKvJ12DizTmG6TQOGjIxOOVXMHRYKHdpwP7SjQzs6dIP7oQ3r0A3WoQ3r0A3WoR0d2nAtu8E6tEmnUsoqyxu8AAAAAAAAAAAAAFBM2OAFAAAAAAAAAAAAgJhggxcAAAAAAAAAAAAAYoINXgAAAAAAAAAAAACICTZ4AQAAAAAAAAAAACAm2OAFAAAAAAAAAAAAgJgIWluas5I0Y0q9aoYNj84DgBMX3lyp349ORQ97IcyEGnNTuU47Mq2+vbLRaS989kVW4/5WRocGdGhHh3Z0aBNmQn2xSBr3t3I6NCjmddjUUK9spk39a0ZEp5wq5g4LhQ5tuB/a0aEdHbrB/dCGdegG69CGdegG69CODm24lt1gHdqEmVCJZEJTJ9fm7NnWTqrLOU+8wQugkAJfR+B9ws6MXzruy6BD+6BD+6BD+/C9w0BSECjwN6H/HarY12F3P241R1F3WKBBh7bB/dA+6NA+6NDN4H5oG6xDN4N1aBusQzeDdWgfdGgbXMtuBuvQNjrzrRpv8AIoiAtvrtSlp67G3amA0qmUzr++RGceG2id3tFZPzR9ltZVdybp0IAO7ejQjg5t0qmUPl8kXX1Xqf54SnTWD753qCJfh40z6xSm2zRgyMjolFPF3GGh0KEN90M7OrSjQze4H9qwDt1gHdqwDt1gHdrRoQ3XshusQ5t0KqWssrzBCwAAAAAAAAAAAADFhA1eAAAAAAAAAAAAAIgJNngBAAAAAAAAAAAAICbY4AUAAAAAAAAAAACAmGCDFwAAAAAAAAAAAABigg1eAAVRWhI94pfSEimVjh71RzpNh1Z0aEeHdnRol6JDM9ahHR3a0aEd90M7OrSjQzvuh3asQzvWoR3r0I51aEeHdlzLdqzDwglaW5qzkjRjSr1qhg2PzgOAE5ffUaFzj/fzrhlmQl16W5mOPjCjAf2y0WkvfNSY1Z1PlNKhAR3a0aEdHdqEmVBz5wW684kynXt8KjrtBd87VJGvw6aGemUzbepfMyI65VQxd1godGjD/dCODu3o0A3uhzasQzdYhzasQzdYh3Z0aMO17Abr0CbMhEokE5o6uTZnz7Z2Ul3OeeINXgCFE/g7As/zKQYZfc+nGGT0PZ9ikNH3fIpBxjjkCzx/qvjeoWKQ0ZTP8rGrMUwZCzB8z6cYZIxDPu6HtkGH9kGHbobvGeOQj3VoH75njEM+1qF9+J7R93yKQcY45ONatg/fM8YiX9fwBi+Agrj8jkqN+eVq3J0KKJ1K6eI/l+i4UYEGrh+d9cN/5qZ1+6NJOjSgQzs6tKNDm3QqpY/nSX99rFS/PTE66wffO1SRr8PGmXUK020aMGRkdMqpYu6wUOjQhvuhHR3a0aEb3A9tWIdusA5tWIdusA7t6NCGa9kN1qFNOpVSVlne4AUAAAAAAAAAAACAYsIGLwAAAAAAAAAAAADEBBu8AAAAAAAAAAAAABATbPACAAAAAAAAAAAAQEywwQsAAAAAAAAAAAAAMcEGLwAAAAAAAAAAAADEBBu8AAAAAAAAAAAAABATQWtLc1aSZkypV82w4dF5AHDi8jsqdO7x6ehhL4SZUJfeVqajD8xoQL9sdNoLHzVmdecTpXRoQId2dGhHhzZhJtTceYHufKJM5x6fik57wfcOVeTrsKmhXtlMm/rXjIhOOVXMHRYKHdpwP7SjQzs6dIP7oQ3r0A3WoQ3r0A3WoR0d2nAtu8E6tAkzoRLJhKZOrs3Zs62dVJdznniDF0DhBP6OwPN8ikFG3/MpBhl9z6cYZPQ9n2KQMQ75As+fKr53qBhkNOWzfOxqDFPGAgzf8ykGGeOQj/uhbdChfdChm+F7xjjkYx3ah+8Z45CPdWgfvmf0PZ9ikDEO+biW7cP3jLHI1zW8wQugIC6/o1Jjfrkad6cCSqdSuvjPJTpuVKCB60dn/fCfuWnd/miSDg3o0I4O7ejQJp1K6eN50l8fK9VvT4zO+sH3DlXk67BxZp3CdJsGDBkZnXKqmDssFDq04X5oR4d2dOgG90Mb1qEbrEMb1qEbrEM7OrThWnaDdWiTTqWUVZY3eAEAAAAAAAAAAACgmLDBCwAAAAAAAAAAAAAxwQYvgILoUR494pce5dLSZdGj/li6jA6t6NCODu3o0I4O7ejQjg7t6NCODu3o0I4O7ejQjg7t6NCODu3o0I4O7ejQjg4Lhw1eAAWxOj8cfE0IAimbjR71RzZLh1Z0aEeHdnRoR4d2dGhHh3Z0aEeHdnRoR4d2dGhHh3Z0aEeHdnRoR4d2dGhHh4XDBi8AAAAAAAAAAAAAxAQbvAAAAAAAAAAAAAAQE0FrS3NWkmZMqVfNsOHReQBw4tp7K3TakenoYS+EmVDj/lamA3bLaPON/fzeDLPmSI9PLKFDAzq0o0M7OrQJM6FmfxToiZfLdOoRqei0F3zvUEW+Dpsa6pXNtKl/zYjolFPF3GGh0KEN90M7OrSjQze4H9qwDt1gHdqwDt1gHdrRoQ3XshusQ5swEyqRTGjq5NqcPdvaSXU554k3eAEUUuDrWP4zAb503KMh3zP6no8OnQw6tA86NI5g+Q9K8T2jz/mKfh12/yNXZxR3h4UZdGgc3A/tgw7tgw6dDO6HxsE6dDJYh8bBOnQyWIf2QYfGwbXsZLAOjWN5vq7gDV4ABXHdfZU689jVuDsVUDqV0lV3lejgPQNtMSg664d3Zqf12EtJOjSgQzs6tKNDm3QqpVkfSk9MLNUZx0Rn/eB7hyryddg4s05huk0DhoyMTjlVzB0WCh3acD+0o0M7OnSD+6EN69AN1qEN69AN1qEdHdpwLbvBOrRJp1LKKssbvAAAAAAAAAAAAABQTNjgBQAAAAAAAAAAAICYYIMXAAAAAAAAAAAAAGKCDV4AAAAAAAAAAAAAiAk2eAEAAAAAAAAAAAAgJtjgBQAAAAAAAAAAAICYCFpbmrOSNGNKvWqGDY/OA4AT195bodOOTEcPeyHMhBr3tzIdsFtGm2+cjU57YdYc6fGJJXRoQId2dGhHhzZhJtTsjwI98XKZTj0iFZ32gu8dqsjXYVNDvbKZNvWvGRGdcqqYOywUOrThfmhHh3Z06Ab3QxvWoRusQxvWoRusQzs6tOFadoN1aBNmQiWSCU2dXJuzZ1s7qS7nPPEGL4BCCnwdgef5FEi+Z/Q9Hx06GXRoH3RoHIHUEfJLc74M3zss+nXY/Y9cnVHcHRZm0KFxcD+0Dzq0Dzp0MrgfGgfr0MlgHRoH69DJYB3aBx0aB9eyk8E6NI7l+bqCN3gBFMSN91fo9KP9/DMl6VRK1/wtqf12TWjwptFZP7w9K61nXknQoQEd2tGhHR3apFMpvTMn0IRXS3TaUdFZP/jeoYp8HTbOrFOYbtOAISOjU04Vc4eFQoc23A/t6NCODt3gfmjDOnSDdWjDOnSDdWhHhzZcy26wDm3SqZSyyvIGLwB/lJVGj/ilrFRq8/M7b0hqz0aHNnRoR4d2dGhHh3Z0aEeHdnRoR4d2dGhHh3Z0aEeHdnRoR4d2dGhHh3Z0aEeHhcMGLwAAAAAAAAAAAADEBBu8AAAAAAAAAAAAABATbPACAAAAAAAAAAAAQEywwQsAAAAAAAAAAAAAMcEGLwAAAAAAAAAAAADERNDa0pyVpBlT6lUzbHh0HgCc+PPDPXTijzLRw14IM6FufrBUu+yQ1ZAtwui0F6Y2SK+8maRDAzq0o0M7OrQJM6Gmv5fQq2+V6IRD09FpL/jeoYp8HTY11CubaVP/mhHRKaeKucNCoUMb7od2dGhHh25wP7RhHbrBOrRhHbrBOrSjQxuuZTdYhzZhJlQimdDUybU5e7a1k+pyzhNv8AIonMDfEXTk8zhlZ0ZPBx3aBx3aBx3ah+8dtgfzNV378L1DFfs6LNDnVtQdFmjQoW1wP7QPOrQPOnQz6NA2WIduBh3aBuvQzaBD+6BD2+BadjPo0DYCdRlv8AIoiFsfqdBJP/Xzz5SkUynddH9Su34roaFbRmf98NaMtP5Zn6BDAzq0o0M7OrRJp1KaOivQq2+WaPRPorN+8L1DFfk6bJxZpzDdpgFDRkannCrmDguFDm24H9rRoR0dusH90IZ16Abr0IZ16Abr0I4ObbiW3WAd2qRTKWWV5Q1eAAAAAAAAAAAAACgmbPACAAAAAAAAAAAAQEywwQsAAAAAAAAAAAAAMcEGLwAAAAAAAAAAAADEBBu8AAAAAAAAAAAAABATbPACAAAAAAAAAAAAQEwErS3NWUmaMaVeNcOGR+cBwIk7n+ihYw/ORA97IcyEuuOxUm1fk9XwmjA67YU3pgea8k6CDg3o0I4O7ejQJsyEqp+Z0JSGEh17UDo67QXfO1SRr8OmhnplM23qXzMiOuVUMXdYKHRow/3Qjg7t6NAN7oc2rEM3WIc2rEM3WId2dGjDtewG69AmzIRKJBOaOrk2Z8+2dlJdznniDV4AhZJISoGvI2jPF4ZfmvFmZEM6tA46tA86tA86NI6gPVsyQYeWUdzrUCrEZ1bcHRZm0KFxcD+0Dzq0Dzp0MrgfGgfr0MlgHRoH69DJYB3aBx0aB9eyk8E6NI72/2OjS3iDF0BB3P10hY4f5eefKUmnUrr9saS2G5zQt4ZGZ/3w+lsZTZsV0KEBHdrRoR0d2qRTKdVND/T27BL97ODorB9871BFvg4bZ9YpTLdpwJCR0SmnirnDQqFDG+6HdnRoR4ducD+0YR26wTq0YR26wTq0o0MbrmU3WIc26VRKWWV5gxcAAAAAAAAAAAAAigkbvAAAAAAAAAAAAAAQE2zwAgAAAAAAAAAAAEBMsMELAAAAAAAAAAAAADHBBi8AAAAAAAAAAAAAxAQbvAAAAAAAAAAAAAAQE2zwAgAAAAAAAAAAAEBMBK0tzVlJmjGlXjXDhkfnAcCJu5/qoaMPzEQPeyHMhLrziVIN2TKrb2wbRqe9MGlqoLffS9ChAR3a0aEdHdqEmVBvvJ3Q27NLdPQB6ei0F3zvUEW+Dpsa6pXNtKl/zYjolFPF3GGh0KEN90M7OrSjQze4H9qwDt1gHdqwDt1gHdrRoQ3XshusQ5swEyqRTGjq5NqcPdvaSXU554k3eAEUTCAFvo6gPZ/HCTvifemoN4MO7YMO7YMO7cP3DjuzeZvQ/w4VFPk67O7Hre4o5g4LNejQNLgf2gcd2gcdOhrcD02DdehosA5Ng3XoaLAO7YMOTYNr2dFgHZpGoC7jDV4ABXH30xU6fpSff6YknUrp9seS2m5wQt8aGp31w+tvZTRtVkCHBnRoR4d2dGiTTqVUNz3Q27NL9LODo7N+8L1DFfk6bJxZpzDdpgFDRkannCrmDguFDm24H9rRoR0dusH90IZ16Abr0IZ16Abr0I4ObbiW3WAd2qRTKWWV5Q1eAAAAAAAAAAAAACgmbPACAAAAAAAAAAAAQEywwQugIBKr8b3j14REIIXZ6FF/hFk6tKJDOzq0o0M7OrSjQzs6tKNDOzq0o0M7OrSjQzs6tKNDOzq0o0M7OrSjQzs6LBw2eAEURHlZ9IhfysukZW3Ro/5oa6NDKzq0o0M7OrRbRodmrEM7OrSjQzvuh3Z0aEeHdtwP7ViHdqxDO9ahHevQjg7tuJbtWIeFwwYvAAAAAAAAAAAAAMQEG7wAAAAAAAAAAAAAEBNBa0tzVpJmTKlXzbDh0XkAcOLB58p12L5h9LAXwkyo+58t0cD+0i7D/cz48huB5s4L6NCADu3o0I4ObcJMqFfeTOqT+Un96Hvp6LQXfO9QRb4Omxrqlc20qX/NiOiUU8XcYaHQoQ33Qzs6tKNDN7gf2rAO3WAd2rAO3WAd2tGhDdeyG6xDmzATKpFMaOrk2pw929pJdTnniTd4ARRO4O8IPM+nQPI9o+/56NDJoEP7oEPjCLS8Q49T+t5h0a9Dy8d2fRR3h4UZdGgc3A/tgw7tgw6dDO6HxsE6dDJYh8bBOnQyWIf2QYfGwbXsZLAOjWP5GuwK3uAFUBAPPV+hw3/o558pSadSum98UhtvmNB3vxGd9cOLtRl93BTQoQEd2tGhHR3apFMpvVwfqHF+iX7yg+isH3zvUEW+Dhtn1ilMt2nAkJHRKaeKucNCoUMb7od2dGhHh25wP7RhHbrBOrRhHbrBOrSjQxuuZTdYhzbpVEpZZXmDFwAAAAAAAAAAAACKCRu8AAAAAAAAAAAAABATbPACAAAAAAAAAAAAQEywwQsAAAAAAAAAAAAAMcEGLwAAAAAAAAAAAADEBBu8AAAAAAAAAAAAABATQWtLc1aSZkypV82w4dF5AHDiwefKddi+YfSwF8JMqPufLdHA/tIuw/3M+PIbgebOC+jQgA7t6NCODm3CTKhX3kzqk/lJ/eh76ei0F3zvUEW+Dpsa6pXNtKl/zYjolFPF3GGh0KEN90M7OrSjQze4H9qwDt1gHdqwDt1gHdrRoQ3XshusQ5swEyqRTGjq5NqcPdvaSXU554k3eAEUTuDvCDzPp0DyPaPv+ejQyaBD+6BD4wi0vEOPU/reYdGvQ8vHdn0Ud4eFGXRoHNwP7YMO7YMOnQzuh8bBOnQyWIfGwTp0MliH9kGHxsG17GSwDo1j+RrsCt7gBVAQDz1focN/6OefKUmnUrpvfFIbb5jQd78RnfXDi7UZfdwU0KEBHdrRoR0d2qRTKb1cH6hxfol+8oPorB9871BFvg4bZ9YpTLdpwJCR0SmnirnDQqFDG+6HdnRoR4ducD+0YR26wTq0YR26wTq0o0MbrmU3WIc26VRKWWV5gxeAP0pLs9FDXiktzSqVih71RypFh1Z0aEeHdnRol0oFKi2NHvWL/x2yDq3o0I4O7bgf2tGhHR3acT+0Yx3asQ7tWId2rEM7OrTjWrZjHRYOG7wACqIkGT3il5KklM5Ej/ojnaFDKzq0o0M7OrSjQzs6tKNDOzq0o0M7OrSjQzs6tKNDOzq0o0M7OrSjQzs6tKPDwmGDFwAAAAAAAAAAAABigg1eAAAAAAAAAAAAAIgJNngBAAAAAAAAAAAAICbY4AUAAAAAAAAAAACAmAhaW5qzkjRjSr1qhg2PzgOAE0/9s1wH7B5GD3shzIR6YmKJKnoE2nsnP3+6+oRXE1q6THRoQId2dGhHhzZhJtQ//pXUslRC++/qXz7FoEMV+TpsaqhXNtOm/jUjolNOFXOHhUKHNtwP7ejQjg7d4H5owzp0g3Vowzp0g3VoR4c2XMtusA5twkyoRDKhqZNrc/ZsayfV5Zwn3uAFsKKWJUt0/oW/1677fF/7HfJ/evjRx6On5Fit8wMp8HUEHfk8zkiHDgYd2gcd2gcdmkZHgdHjPg3fO1RQ5Ouw/ZPL/yjmDgs16NA0uB/aBx3aBx06GtwPTYN16GiwDk2DdehosA7tgw5Ng2vZ0WAdmkagLuMNXgCdLhl7pT766CP9fswFmvOfD/Wbc87RVZdepu23Gxo9VVrN859+tYcO2SsZPeyFdCqlx15KqKoiqe/tHJ31w9MTM1rSJjo0oEM7OrSjQ5t0KqUJryXUlk7qoD2is37wvUMV+TpsnFmnMN2mAUNGRqecKuYOC4UObbgf2tGhHR26wf3QhnXoBuvQhnXoBuvQjg5tuJbdYB3apFMpZZXlDV4AXZdOp/WP51/Q8cceo3XXWUfDt99Oe+62u56eMCF6qtSN8wEAAAAAAAAAAGDHBi8ASdInjZ9qyZIl2mrLLTqPbbnFFpr9wQc553VY3fMBAAAAAAAAAABgxwYvAEnSkiWtkqTKiorOY9XVVWppaT8etbrnAwAAAAAAAAAAwI4NXgCSpIqKSklS65Ilnceam1tUVdV+PGp1zwcAAAAAAAAAAIAdG7wAJEkbbtBfPXr0UMO7szqPvTtrljbbdNOc8zqs7vkAAAAAAAAAAACwY4MXgCSppKREe++xu/582+367PPPVf/Wv/Xciy/o+/vs03nOyWecpZtvva3L5wMAAAAAAAAAAMCtoLWlOStJM6bUq2bY8Og8gLVIy5IluuSysXrltddVXV2tnx15hA4+cP/O+ZPPOEvbDB6sXxx3bJfOX9FT/yzXAbuH0cNeCDOhnphYon/8q0R77ZiJTnvhH68ntdeINB0a0KEdHdrRoU02zOq52hLtvVNG++/qXz7FoEMV+Trss+wNJZTS5+U7RqecKuYOC4UObbgf2tGhHR26wf3QhnXoBuvQhnXoBuvQjg5tuJbdYB3aZMOsgkSgzXq9lrNnWzupLuc8scELoFASyaSSiWT0sBfCMKOspBdqS6NT3shms9pjRJoODejQjg7t6NAmm80qK2mfnbLRKW/43qGKfB1WtryhpFJaXJXfDd5i7rBQ6NCG+6EdHdrRoRvcD21Yh26wDm1Yh26wDu3o0IZr2Q3WoU02m5WCQBuUscELwBMlpaUqLS2LHvZCOpVSVllv8ykGGX3Ppxhk9D2fYpDR93yKQUby2ZHRzpKvcWadwnSbBgwZGZ1yypKxEHzPpxhkJJ+d7xl9z6cYZPQ9n8joBPnsyGhHPjsy2vmeTzHISD47MtrFJd/UybVs8ALwQ0VlVfQQAACAU4Xa4AUAAAAAAMiX+n/9kw1eAAAAAAAAAAAAAIiD6J4tG7wA1hi+RbON7xl9z6cYZPQ9n2KQ0fd8ikFG8tmR0c6Sr1Bv8FoyFoLv+RSDjOSz8z2j7/kUg4y+5xMZnSCfHRntyGdHRjvf8ykGGclnR0a7uOTryrdoTkQPAAAAAAAAAAAAAAD8xBu8AAqCN3htfM/oez7FIGO+8l33yYTooW4Lw1BSVolEMjrlBd/zKQYZyWcXhqF+uf4ezq9ll/J1v3HFko83eNv5nk95zOjquef7/cb3fIpBRt/zKQYZwzDUwX2/oY0r+0WnvJGve41Lvmckn12+Mrp65ikm9xvy2ZDRjq/17MhntzZndPXci8O9Rspqlw97rvINXjZ4Ac/M+fBDjb1qnKbPmKl1+vbVL39+nPbYbdfO+ZYlS/THy6/QK6+9rurqKh17xBE6+MD9uzwfddrZ5+q11//V+ddVVVV6/ukncs7pqpnvNOimW/6sqW9P17rrrKPDf3yYDthvP0nSLZ9P1C/77xn9EC+EmeU39aSfN3XFIKPv+RSDjPnId9O85/XIF2/oiHV3jk51SzablZRVEPj5DUB8z6cYZCSf3V3z/6kD+3zD22ee8nS/ccmSr6mhXtlMm/rXjIhOOWXJWAi+51OeMrp87vl+v/E9n2KQ0fd8ikHGj9u+0EuL39btX/u5NiztE532Qj7uNa75npF8dvnI6PKZpxjcb8hnR0Y7vtazI5/d2prR5XPP93tNNptVEATa/oMSNniBOMlkMvrJUcdqpx2/reOOOVpvz5ypM8+9QLfeeL023+xrkqRLxl6pjz76SL8fc4Hm/OdD/eacc3TVpZdp++2Gdmk+6rSzz9Xuu35H+33ve9Gp1XbplVdr7z12V83grfT2zHd0xrnn6urLLtd2w4boli8m6lfr7xX9EC+EYUZZSUlP/9SOYpDR93yKQcZ85Ltx3vOqDsp05Hq7RKe6JR8ZXfI9n2KQkXx2f533spqzy7x95ikGPVryNTVMVphJaYN8b/AaMhaC7/mUp4wun3v5yOeS7/kUg4y+51MMMoZhRpd/+rR6lVTql/32iE57wfcOFYOM5LPLR0aXzzzlKaNL5LMjox1f69mRz25tzejyuZePfC6FYUZBItGln8HLBi/gkfc/+EA/OfpnemnC0yovL5cknTvmd+rfv79O/uWJSqfT2mu/A3TVZX/U17cbJkm65PIr2s878zernP8qq9rg/fyLL3TlNdeq7o16VVZW6kejDtGPDx0VPe0r/fLkU7Xbd7+r/zv4QP15wcv69YB9o6d4IV/fNsIl3zP6nk8xyJiPfNc3PqvqRLmOXv+70aluyUdGl3zPpxhkJJ/dbZ+8oObsMm+feYpBj5Z8fIvmdr7nU54yunzu5SOfS77nUwwy+p5PMciYTqX01/n/1JIgrdEb7B2d9oLvHSoGGclnl4+MLp95ylNGl8hnR0Y7vtazI5/d2prR5XMvH/lc6sjXlQ1eP99BBtZSYdj++n3Ue7NmS5I+afxUS5Ys0VZbbtE5t+UWW2j2Bx90af5/ufraG/TdvffVEccer5dfebXzeDab1Vnn/Vbr9O2rh+79m8ZdcZkefuyxnG/p/FXCMNS/p0zT7A/m6BvDt49OAwAAAAAAAAAAoJvY4AU8ssmgjdV//fV1y19uV8uSJZr85lt67V+TtHTZUknSkiWtkqTKiorOj6murlJLS/vxVc1/lasuvUTPP/2Ennn0ER36f4fovN9dpHca3pUkzZo9W+/PmaNTTxqtnj2rtemgQTrs/0bp+ZcmRn+bTleMu0Y77banTvj1yfrJoaP0tU03jZ4CAAAAAAAAAACAbmKDF/BISUmJLr/4Ik2dPl3fP+Bg3XDzn7X3HrurX79+kqSKikpJUuuSJZ0f09zcoqqq9uOrml+Zysoe+uG+39OIb32z8y3exsZP1dzcrJ332Fs77bandtx1D429+hp92tSkRx57XCO+u7tGfHd3/fLkUzt/n9+ccrJefeEfuv3mm/ToE0/pyfHjV/i7AAAAAAAAAAAAwIINXsAzW26xhW654TpNfPYZ3fanG/TRxx9rSE2NJGnDDfqrR48eanh3Vuf5786apc2WvyW7qvmu6vg20f3X76f11ltXr77wD7324nN6/aXn9a+JL+j6q6/UQQfsr39NfEH/mviCbrzm6pyPTyaT2nrwVvruLiP11ptTcuYAAAAAAAAAAADQfWzwAp657a93atZ7s7Vw0SLdcfffNOfDj3Tg/vtJy9/w3XuP3fXn227XZ59/rvq3/q3nXnxB399nny7NS9LJZ5ylm2+9TZK0cNEi/XHsVfrwo4/V2rpUT094VrV1b2jnnXaUJG2x+ebaoH9/XXvjTfriiwVauHChnnj6GT34yGOdv1+HhYsW6bKrxunDjz7WsrY2TZk6TS+89LKGDd02eioAAAAAAAAAAAC6iQ1ewDO7jNxJf7jscu0/6keqr39L1199pSpW+Jm6J5/0K/Xt21cHH/ZTXXDRHzT6Fydo++2Gdnl+Rb179dKwodvqzHPP0w8OPkT3P/Sw/jDmAm09eCtJUiKR0OUX/15ffL5APznmWB121DGaOm269tp91+hv1f57DdlWZ553gfbe7wBdfNlYHTrqYO2/3w+ipwIAAAAAAAAAAKCbgtaW5qwkzZhSr5phw6PzAODE1Z/9Q+dufGD0sBfSqZSyyqq0tCw65Q3fM/qeTzHImI98l378uLbo0V+j1v12dKpb8pHRJd/zKQYZyWd3f9NrmrWsydtnnmLQoyVf48w6hek2DRgyMjrllCVjIfieT3nK6PK5l498LvmeTzHI6Hs+xSBjOpXSnZ+9opZsm07a8L/fNconvneoGGQkn10+Mrp85ilPGV0inx0Z7fhaz458dmtrRpfPvXzkc6kj39TJtTl7trWT6nLOE2/wAgAAAAAAoDuqEmVqCZdFDwMAAADIMzZ4AQAAAAAAAAAAACAmcr5F89ZDv65sNqvmxQv1xfx5WrpkicIwE/2YWEokkupRUam+6/VTdc9eCoJAkor2812Zr+qiow8gX/gWzTa+Z/Q9n2KQMR/5XH77EuUpo0u+51MMMpLPjm/bZWfJx7dobud7PuUpo8vnXj7yueR7PsUgo+/5FIOM6VRKD30xSe+nPtPZA/ePTnvB9w4Vg4zks8tHRpfPPOUpo0vksyOjHV/r2ZHPbm3N6PK5l498LnXk68q3aM7Z4B08ZHvNb/pEzYsW6i9/vVu333GnFixYEP2YWOrTp49+duwxOvrwH6tn795at98GkqTP5jWqedFCPT/xVY2f8KxaWlqiH1p0qqurte+++2jXkTuqZ+/eWm/9DdnkRd5dNX+Cztxwv+hhL4SZUFJWiWQyOuUN3zP6nk8xyJiPfGMbn9bm5f10cN9vRqe6JR8ZXfI9n2KQkXx2D302Se+1NXn7zFMMerTka2qoVzbTpv41I6JTTlkyFoLv+ZSnjC6fe/nI55Lv+RSDjL7nUwwyhplQjyx4Q7NT83XGBt+PTnvB9w4Vg4zks8tHRpfPPOUpo0vksyOjHV/r2ZHPbm3N6PK5l498LoWZUIlkoksbvDnforl50QI1L1yon//qFF097tqi2dyVpAULFujKq67WCSedquaFC7R44UItXviFFi9YoBtvuV0PPfzIWrG5K0nNzc164IGH9Kdb71DzwgVqXrRQ2WxW2Ww2eirgUODvCCQFXzrq1/A9o+/5FIOMecjn/MrLQ0anw/d8ikFG8plH+6UXPerZ8L1HU74C9W/KWIDhez7lJ6PTf/p5yOd0+J5PMcjoez7FIGOg5c89h9ee6+F7h4pBRvLZRx4yOr/u8pDR6SCffZDRPPhaz8Egn32spRmdXn15yOd0tH+6XZLzBm9lVU/desdduvKqq6LnFZUzTj9Nxxx5uMJsVi9MfEUPPvRQ9JS1xv+NOkR77vodbbTpZkokErzFi7zhWzTb+J7R93yKQcZ85HP57UuUp4wu+Z5PMchIPju+bZedJR/formd7/mUp4wun3v5yOeS7/kUg4y+51MMMqb5Fs1O+J6RfHb5yOjymac8ZXSJfHZktONrPTvy2a2tGV0+9/KRz6WOfKv9Bu/SJa36y1/+suKhovTnv9ymZUtbtaSlWU8/80x0eq3yzPgJWrakRWEY8gYvAAAAAAAAAAAA4LmcDd4wzGjBwoUrHipKCxcuVBiGymTSam1tjU6vVVpaWpRZYXOXTV4AAAAAAAAAAADAXzkbvGsLNjH/iy5QKM2ZpdFDAPKsObNU1cke0cMA8qgq2YNnHrCG8NwDCi+hQKH4/xWAQuOZBxQeX+sBaw7Pva+2xjd4x0g6O3rQkdclDYseBAAAAAAAgFllslytmWXRwwAAAADybJUbvD0l3SepRdLHkk6MnmDQV9KpFRWa/6MfdR77QNI3cs7qvsUnnKCrqqqih3Os6g3WQYMG6eqrr9aECRN07733arfddsuZr6ys1JgxYzRhwgQ99NBDOuCAA1ZrPuriiy/WxIkTNXHiRJ1++unR6dUyePBgXXnllRo/frzuuece7bffftFTcqyqCwAAAAAAAAAAAABr1io3eK8tKdG3N91Uk++/X+//4Q+6qqREu0RP6qaflZdr8be/rXueeKLz2BsPPqjmrbfOOa+7Ln/7bY3MZrVRdKKLksmkLrvsMvXs2VMzZ87UvHnzdO6552qzzTbrPOfXv/61ttlmGzU0NOiTTz7R6NGjNWzYf98bXtV81Jw5czR16lR99tln2mKLLaLTq+Wwww5Tc3OzZs6cqaamJp188skaOnRo9DQAAAAAAAAAAAAAMbHSDd5SST8JAtUfcIAOPOEEnfTQQ/p8r7106jrrRE/9SmdLejBy7BpJ1y7/3z/p21dvVFertbW1c/4bo0apeuZMSVKjpN9Imi5p0fI3ics7z2yfP1vSDEmfS7pZUtkK8xNff12La2o0qmfPFY523SabbKIBAwbo2Wef1VlnnaUbbrhBLS0tGjVqlCSppKREe+21lxoaGnTeeefpmmuu0aJFi3TooYd2af6r3HLLLRo9erTmzp0bnZIk9e3bVxdeeKGeeOIJ3X///Sv9vRoaGnT33XfrzDPP1I033qhly5Zpxx13jJ4GAAAAAAAAAAAAICZWusG7eTKpslRKV73wgj7//HO9+eabeiOd1g49/vvDjP8k6e6cj/qvpQcdpANKS9Vr+V8nJR1dWanM8m/JvMWSJfrX55/nfEy/fv206aabSpL69OmjY/r31zvXXKM3771Xu/frp6OSyc5z+/TpoxP69lXDuHGacscd2m/99XXOCvOpVEr/qarS7uuu23lsdfTr10+S9PTTT2vp0qV65513tGjRos63YAcOHKiSkhLdf//9WrRokd5991298847Gjx4cJfmV1cQBLr00ku1wQYb6N1339WHH36oH//4x/9z0/bee+/Vu+++q3Q6rfLycpWVlemLL76IngYAAAAAAAAAAAAgJla6wbvpeutJkv49e3bnsTkLFmjF92G32267//ltf+97/XW1DB6sH5W3v3e7RxCopFcv3TptmiSpYtkyvT9/fuSjcs089FCdcPHFOuSkk/Tpjjvq+4MG5czP/ulPdcJll+nH55yjmT/6kX4eeVu3aelSbVhRkXOsq+bOnau2tjYdddRRqqys1Ne//nUNHDhQVct/rm///v0lSbNmzer8mMbGRlUs//utan51bb755tp88831wgsv6Pzzz9fll1+uefPm6cADD4ye2umUU07Riy++qOuuu06ffvqpXnnllegpAAAAAAAAAAAAAGJipRu8meUbkckVvoVysrlZmcrKzr9+eO+99dBBB3X+9YoaGxs1ZciQzk3Xk9ZdV3NGjtT06dMlSemePXN+769y33PPqampSfPnz9d7c+dqveWbqx3ufe01ffLJJ/rkk0/0t1df1XptbTnzyZYWpaurc4511dy5czVlyhTtsssuevTRR3XyySdrwYIFWrp0qSQpm81Ky39Wb4dkMqkwDLs0v7q22WYblZaW6oQTTtBTTz2lv//97xo8eLAGDRqkAw44QBMnTtTEiRN1zTXXdH7M3LlzNW3aNL333nvq1auXtt9++5zfEwAAAAAAAAAAAEB8BK0tzVlJmjGlXpK0w47f6ZzcdOBAvffZZ9pX0rPLNzWf23RTDRw4UDWvvtp53soc9f3v69Znn9XX0mm9W16uP+6/vy564AFJ0ic77KCbm5r0uw8/7Dy/pV8/HVVVpQc/+EBL+/TRgdXVGv/RR5Kkh77+dQ0IQ+34739Lkpb26aPfVFbq+uU/r/bEDTfU5aWl6vmf/3T+fm9vsommbLWVDvvHPzqPSdLk119WKpXSGef9TkEQ5MytaKONNtKhhx6qjTfeWHPnztUOO+ygjz76SL/5zW+0wQYb6N5779WZZ56puro6SdLVV1+t9dZbT0ccccQq51fm+uuvVzKZ1Iknnth5bN9999Xpp5+uGTNmSMu/ZbOW/6zdN998Uz9a/q2vZ82apXHjxnV+XCKR0EYbbaQ//vGPamxs1Omnn945J0lXX/YHbb71ECWTSSUSiZX2AXTX7z99XBdudEj0sBfCTCgpq8QKfxjDN75n9D2fYpAxH/nGfPywRvbcUnv3+urvtLG68pHRJd/zKQYZyWc3fsEUvd78rrfPPMWgR0u+poZ6ZTNt6l8zIjrllCVjIfieT3nK6PK5l498LvmeTzHI6Hs+xSBjmAn17OKper3lPV048ODotBd871AxyEg+u3xkdPnMU54yukQ+OzLa8bWeHfns1taMLp97+cjnUpgJlUgmNHVyrWqGDe88XjupfY9xRSt9g/ejTz9V42676eKSEm0gaVdJu8ydq4nLf0auVvEzeCXpsdde06Lhw/W3sjKlNtpIdy7f6JSkaYMG6TvL33LtrpMWLdKmkjaRdMrixZr9zW92zpVJ+tq8eRrfzTdmJWmPPfbQY489pjFjxuiTTz5R37599dxzz0mS5s2bp88//1zHH3+81llnHW2//fYaOnSo3nrrrS7NS9LYsWN13HHHdf71ykyfPr3zZwH/9re/1Xnnnaenn35aH374of75z39q9OjRGj16tMaNG6devXrptNNO00YbbaSSkhL17t1bvXv31pIlS6K/LVAQzdllCnwdgaTgS0f9Gr5n9D2fYpAxD/lasstUHfT40vFujzxkdDp8z6cYZCSfefRMlPv9zFMMejTlk/SlY3kYpowFGL7nU34yOn3u5SGf0+F7PsUgo+/5FIOMgZRQUlmF0Rl/hu8dKgYZyWcfecjo9Jmn/GR0OshnH2Q0D77WczDIZx9raUanz7085HM6gujOyv+20jd4JWnMaafp8Jde0kZvvqnmkhLNP/FEHTZxov69/C3a17fbTpVhqO2mTs35uBU985Of6Hv33KM3Dj1U37z//s7jP91vP900caIGLF6s5uXHVvcN3ml77KE+jz2mfmGoxp131hWbbqo/33mnJGlUMqkbvvENDX3/fTU1NXX+fbUab/AeffTR2nXXXTVw4EB9/PHH+uKLL3TWWWepbfm3gj766KO11157af3119eSJUu0cOFCXXjhhZ0/d3dV83//+9/1wQcf6KyzzpIkHXfccV96u/eee+7RzTffrEQioXPOOUeDBg3SBhtsIEl699139dxzz2n8+PE5H1NVVaXTTz9dW221ldZff3198cUXWrJkiW655Ra99tprOefyBi8K4exPH9A1Xzs6etgL6VRKWWVVWloWnfKG7xl9z6cYZMxHvlM+uFOj1vm2du41ODrVLfnI6JLv+RSDjOSzm/j5dD28sM7bZ55i0KMlX+PMOoXpNg0YMjI65ZQlYyH4nk95yujyuZePfC75nk8xyOh7PsUgYzqV0iuLG/Tooskat+mR0Wkv+N6hYpCRfHb5yOjymac8ZXSJfHZktONrPTvy2a2tGV0+9/KRz6WOfOY3eCVp7J/+pHsPPFCvPfecXnvwQZ374Yedm7taxc/g7TDus8/06iuv6OqSkpzjj730kj7ebz+dWlraeeyZm27StB49JEnP3nmnGsr+W/Ljw4bp4b337vxrSXqorU2T7rxTrz/9tG7bcUfdce+9nXO/q6rS0zvu+KXN3dXx3HPPacaMGZo2bZomT56syy67rHNzV5Luu+8+Pf/885o2bZqmTZumW265pXPztivzL7/8sv75z392/nVjY6OmTp2a86uxsVGSFIahrrvuOr322mt6++239fbbb+vNN9/M+fgOLS0tGj9+vGbMmKHp06dr+vTpuuuuu760uQsAAAAAAAAAAAAgPlb5Bm++HXPMMUqlUrr77pV9o+evFn3DN+pPf/qTrrjiipwN1Q5dfYN3bcAbvCgE3uC18T2j7/kUg4z5yOfyT7cpTxld8j2fYpCRfHb8qW47Sz7e4G3nez7lKaPL514+8rnkez7FIKPv+RSDjGne4HXC94zks8tHRpfPPOUpo0vksyOjHV/r2ZHPbm3N6PK5l498LnXkc/IGb77dfvvt3drc7YoTTjjhKzd3AQAAAAAAAAAAACCO1vgGr0X0Wzh31YpvqK7tb6vSBQAAAAAAAAAAABAfORu8iURSvXv3XvGQ1/bff3/Nnj07eniVevXqpUQioUQiqcrKyuj0WqWyslKJRKz3+QEAAAAAAAAAAIC1Rs7OXo+KSh115OErHipKxx5zpMrLK9SjolJ777lHdHqtss9ee6hHRVX0MAAAAAAAAAAAAAAP5Wzw9uq7jo47+gh9+9vfWvFwUdlxxxE6+vCfqrp3X/VeZ13t/t2RqqnZOnraWmGbmhrt9p2d1avvOp3fnplv0wwAAAAAAAAAAAD4K2eDt7KqWhXVPXXVpb/Xr3/1S/Xu3bsoNvyCIFCfPn10yq9P0hWXXKjKnj1VWV2tquqequzZS0cedoj23+8HqqqqKorPd2WCIFB1dbUOOuCHOuKwg9u7qKpWIpEo+s8da1ZzZln0EIA8a84sVXWyR/QwgDyqTvbgmQesITz3gMJLBgllsmH0MIA845kHFB5f6wFrDs+9rxa0tjRnJWnGlHptUTNU6XRaixcu0PxP56qlZbHCTCb6MbGUSCZVVdVT6/UfoOpevZVMJiVJmUxGzYsWFt3nuzIrdtGzdx+VlJQomUwqCAI2eZE3o+ferb9s8YvoYS+kUylllVVpaVl0yhu+Z/Q9n2KQMR/5jnvvFo3eYB9tX7VJdKpb8pHRJd/zKQYZyWc3eeF7unHec94+8xSDHi35GmfWKUy3acCQkdEppywZC8H3fMpTxuMcPvfykc8l3/MpBhl9z6cYZEynUnqrdY7+NP8F3br5z6PTXvC9Q8UgI/ns8pHxOIfPPOUpo0vksyOjHV/r2ZHPbm3NeJzD514+8rnUkW/q5FrVDBveebx2Ul3OeYq+wZtIJNp/JRNKlpaprKxCZeUVKi2L96+y8gqVlVUoWVquRDKpZORXsX2+K/sV7aLjnzmbuwAAAAAAAAAAAID/ct7g3Wrb7TTv07lqXrRQf/nr3frrnXdrwYIF0Y+JpT59+uiYo4/S0Yf/WD1799Z6628oSZrf9ImaFy3Ucy+9ognP/kOtra3RDy06VVVV+t739tZuO++knr17q1//AXyLZuTdrz6+Szdvemz0sBfCTCgpq8TyN/t95HtG3/MpBhnzke+EObfrxH57aLvKQdGpbslHRpd8z6cYZCSf3VvNc3TT/Oe9feYpBj1a8jU11CubaVP/mhHRKacsGQvB93zKU0aXz7185HPJ93yKQUbf8ykGGcNMqClL/qM/ffai/rTJMdFpL/jeoWKQkXx2+cjo8pmnPGV0iXx2ZLTjaz078tmtrRldPvfykc+lMBMqkUys/hu8LYsXqmXRIp1w0mm65trri2ZzV5IWLFigq8ddo1+efLpaFi1U86JFal60QM0LF+pPt/5Vjz72uJYsWVL0m5xBEKi1tVUPP/yobrntTrUsWqiWxYuUzWaVzWajpwNOBb6OQFLwpaN+Dd8z+p5PMciYh3zOr7s8ZHQ6fM+nGGQkn3ksv/S+dNyr4XuPpnwFat+UsQDD93zKT0an//TzkM/p8D2fYpDR93yKQcbl+Zxee66H7x0qBhnJZx95yOj8ustDRqeDfPZBRvPgaz0Hg3z2sZZmdHrt5SGf07H8XtMVOW/wVlb11K133KUrr7oqel5ROeP003TMkYcrzGb1wsRX9OBDD0VPWWv836hDtOeu39FGm27GW7zIK34Gr43vGX3PpxhkzEe+4xz+fArlKaNLvudTDDKSz46fy2RnycfP4G3nez7lKeNxDp97+cjnku/5FIOMvudTDDKm+Rm8TviekXx2+ch4nMNnnvKU0SXy2ZHRjq/17Mhnt7ZmPM7hcy8f+VzqyLfab/AuXdKqv/zlLyseKkp//sttWra0VUtamvX0M89Ep9cqz4yfoGVLWhSGIW/wAgAAAAAAAAAAAJ7L2eANw4wWLFy44qGitHDhQoVhqEwmvVb8zN2VaWlpUWaFzV02eQEAAAAAAAAAAAB/5Wzwri3YxPwvugAAAAAAAAAAAADiY41v8G54wi7a4Ngdo4ed2Pquo1Sx1frRwwDWgObM0ughAHnWnFmq6mSP6GEAeVSd7MEzD1hDeO4BhZcMEkpnw+hhAHnGMw8oPL7WA9YcnntfbZUbvMmqMm12+YH6eu0ZGvbcr9Xv0P/+UF+rZK8eGnTkSO2uLTqPDR3/K1Vuu2HOed11YI/tteWZ348ezrGqN1g32mgjXXXVVRo/frweeeQR/fKXv1Qi8d/aBg0apKuvvloTJkzQvffeq9122y3n41c1H7W656/M4MGDdeWVV2r8+PG65557tN9++0VPybGqLgAAAAAAADpUJMq0NGyLHgYAAACQZ6vc4N307O9pix221W9bdtXP0t/UpmfsrerhG0dP65YBB++gbbS+Hr3voc5jY5p306BM75zzuuv1Pz2uqu0Hqqx/z+hUl40ZM0brrruu3nnnHc2ZM0ff//73OzdKk8mkLrvsMvXs2VMzZ87UvHnzdO6552qzzTbr0nzU6p6/Kocddpiam5s1c+ZMNTU16eSTT9bQoUOjpwEAAAAAAAAAAACIiZVu8AYlCa37/SH65sfr6GejjtAd51ylHcKNtOXRu0ZP/UobHLujNrvy4JxjG5+1lzY+e29J0iY//IayMz5Ta2tr5/yF1S/qP8mFkqRhL5ys/kd9W9s+8nNt/9pvtNnlByooS3aeu6r5115+RZtk+mjgPtt1Hltdm222maZNm6azzjpLl156qVpaWrTjju3fUnqTTTbRgAED9Oyzz+qss87SDTfcoJaWFo0aNapL81FdOb9v37668MIL9cQTT+j+++/XoYcemvN7rKihoUF33323zjzzTN14441atmxZZ3YAAAAAAAAAAAAA8bPSDd6KjddVpkR66sZ79fnnn+vNN9/U4ukfq++2G3WeM+iCffW1S/bP+bgO3+0xWOvtXqNkVbkkKUgEGnjgN7RXzyHtJ2zUU3PfnJXzMf369dOmm24qSerTp4+2GjVSo9t21Pmt39WgnbbV+vv/d7N2VfOpVEqJT5doo5226Ty2uhYuXKjevXsrkUiorKxMlZWVampqkpZnlaSnn35aS5cu1TvvvKNFixZ1viW7qvmoVZ0fBIEuvfRSbbDBBnr33Xf14Ycf6sc//vH/3LS999579e677yqdTqu8vFxlZWX64osvoqcBAAAAAAAAAAAAiImVbvD2H9T+s3DfnTaj89hnHzYqUVXW+dfbbbfd/9ywnPjweG0c9lb/fdvne434mqrLKlR7zwRJUqZMapozN/JRuXb5fIDGnHSWTjjsGNUsWVeDd99hteZbP1uo6vX75hxbHc8995yGDh2qZ555RnfddZcWL16sp59+WpI0d+5ctbW16aijjlJlZaW+/vWva+DAgaqqqurSfNSqzt988821+eab64UXXtD555+vyy+/XPPmzdOBBx4Y/a06nXLKKXrxxRd13XXX6dNPP9Urr7wSPQUAAAAAAAAAAABATKx0g7csWyJJWqZM57ElQVo9lh+XpK1rM9q+7r/fFnlFjY2NGvCfQJscOkKStOXh31HNwj6aPn26JKkiW6qlQTryUbnGP/i4mpqaNH/+fH30/hxVr9tnteaXKK2KFfKujpKSEn3nO9/R559/runTp+udd95RMpnUiBHtn8/cuXM1ZcoU7bLLLnr00Ud18skna8GCBVq6dGmX5qNWdf4222yj0tJSnXDCCXrqqaf097//XYMHD9agQYN0wAEHaOLEiZo4caKuueaanN9z2rRpeu+999SrVy9tv/32K/wdAQAAAAAAAAAAAMTJSjd4W+bMU5mS6rPdoP8eHNRLvZr/u6E7duxYXXTRRf+dj5jzYK3SW/RSWf+eSn5rgBZM+O/bwP2W9VDFpuvmnB+1ePHizv+dyWSUTOZuJq9qPrN+D5V/uiznWFcNHDhQG264oR599FGdeuqpOuecczR//nztvXf7zxDOZDK6+uqrNWnSJE2fPl3Tp09XKpXS3LntbyWvaj5qVeenUimlUilNmzat89fUqVP1+uuv6/PPP9fUqVM1depUvf/++52/5/3336+TTjpJF154oZqbm7Xnnnuu8HcEAAAAAAAAAAAAECdBa0tzVpJmTKmXJO2w43c6J0tKSnTcq+M06YOpmvqru9Vj0/W0zc0/1fYvhbr59Eul5T+DN1lRqvfPfbzz41bUp08f/eC53+qtqf/W14YN1rRDbtEHH3wgSfr5fX/Q28vm6pWjbuw8f/fJv1Pjbyfo7ade13fqx+iT0x7Xuy+9KUn6/k2jlexXrSdGtf+9VzUflCY14vWz1efqt/XM3x7p/HtI0uTXX1YqldIZ5/1OQRDkzHUYMGCA7r77bt11112699571bt3b1155ZVKp9M6+uijJUlHHXWUXnnlFc2bN0/777+/jjjiCF199dUaP358l+bHjh2rd955R7feeusqzx80aJBuvPFGjR8/Xn/7298UhqFGjhyp8vJyPfJI7ufXq1cvHXfccbr//vvV1NSkwYMH649//KPeeustnX/++TnnXn3ZH7T51kOUTCaVSCT+Zx+AxdEf/ll3b/bL6GEvhJlQUlaJyB8Q8YnvGX3PpxhkzEe+w2ffpAsHHqLNy9ePTnVLPjK65Hs+xSAj+ezebW3UhY0Pe/vMUwx6tORraqhXNtOm/jXt33EnXywZC8H3fMpTRpfPvXzkc8n3fIpBRt/zKQYZw0yo95Y16cLGR3T3ZidGp73ge4eKQUby2eUjo8tnnvKU0SXy2ZHRjq/17Mhnt7ZmdPncy0c+l8JMqEQyoamTa1UzbHjn8dpJdTnnaVVv8KbTafV88iNttt5GGvrMaG111Sjtt2Qr/evOZzrPWdnP4JWkBQsWaJ2GpeoxfKC+9mmPzs1dSfr00TeV3bqvEpX//Zm+Lq2z62Btlumryf94NTrVJU1NTWpoaNDee++txx9/vHMT9rnnnus8JwgCXXDBBXrooYe055576u2339YLL7zQ5flBgwZpyy237NL5H330kV5//XUNHTpUd9xxh+68807tvvvuWrJkSefHd8hkMqqurtall16qJ598Uueff77mz5/f+fODgUJrzrQp8HUEkoIvHfVr+J7R93yKQcY85GvJLFN1sseXjnd75CGj0+F7PsUgI/nMo2dJud/PPMWgR1M+SV86lodhyliA4Xs+5Sej0+deHvI5Hb7nUwwy+p5PMcgYSCWJhNLZMDrjz/C9Q8UgI/nsIw8ZnT7zlJ+MTgf57IOM5sHXeg4G+exjLc3o9LmXh3xORxDdWfnfVvoGryRVVlbq7LPP1siRI9Xc3Kw77rgj523RM844QxUVFSv9Ns377LOPLrjgAt1444265557Oo9XV1fr509epgfu/bs+vPllSdKDDz6o888/XzNnztTjjz+uU045RbNnz5aWv926/vrra+zYsZK0yvlvPXqS9vhkQ/3xxHM7/54duvIGryRtscUWOuigg7ThhhsqlUpp+vTpeuCBBzo3VTfaaCP99Kc/1QYbbKDZs2frgQceUGNjY+fHr2r+V7/6lebMmaMnn3yyS+f36tVLBx10kLbeemtJ0rRp0/Too4+qpaWl85wO3/rWt7TXXntpvfXW0xdffKFXX31Vzz//fPQ03uBFQYz64AY9tc2Z0cNeSKdSyiqr0tL8/GETF3zP6Hs+xSBjPvLtN2Osbt3ieG1Qmvvz6bsrHxld8j2fYpCRfHYfLZmvX7x/m7fPPMWgR0u+xpl1CtNtGjBkZHTKKUvGQvA9n/KU0eVzLx/5XPI9n2KQ0fd8ikHGdCqlxvQCnfDBHXqy5ozotBd871AxyEg+u3xkdPnMU54yukQ+OzLa8bWeHfns1taMLp97+cjnUke+rrzBu8oN3nw75phjlEqldPfdd0enzP70pz/piiuu0KxZs6JTXd7gXRuwwYtCYIPXxveMvudTDDLmI5/Lf/lRnjK65Hs+xSAj+ez4ot/Oko8N3na+51OeMrp87uUjn0u+51MMMvqeTzHImGaD1wnfM5LPLh8ZXT7zlKeMLpHPjox2fK1nRz67tTWjy+dePvK51JGvKxu8K/0WzYVw++2352VzV5JOOOGEr9zcBQAAAAAAAAAAAIA4WuMbvGvCim+oru1vq9IFAAAAAAAAAAAAEB85G7yJRFK9e/de8VBR6tWrlxKJhBKJpCorK6PTa5XKykolEmvlPj8AAAAAAAAAAAAQOzk7ez0qKnXUkYeveKgoHXvMkSovr1CPikrtvece0em1yj577aEeFVXRwwAAAAAAAAAAAAA8lLPB26vvOjru6CP07W9/a8XDRWXHHUfo6MN/qurefdV7nXW1+3dHqqZm6+hpa4Vtamq023d2Vq++63R+e2a+TTMAAAAAAAAAAADgr5wN3sqqalVU99RVl/5ev/7VL9W7d++i2PALgkB9+vTRKb8+SVdccqEqe/ZUZXW1qqp7qrJnLx152CHaf78fqKqqqig+35UJgkDV1dU66IAf6ojDDm7voqpaiUSi6D93AAAAAAAAAAAAIO6C1pbmrCTNmFKvLWqGKpPJaPHCLzT/07lqbl6sMJOJfkwsJZJJVVf31Hr9B6i6V5/OnzsbhqGaFy0ous93ZVbsomfvvkomk0omkwqCgE1e5M2+71+ll7a9IHrYC+lUSlllVVpaFp3yhu8Zfc+nGGTMR75dp/9eT259hqqTPaJT3ZKPjC75nk8xyEg+uwVLF+vA98Z5+8xTDHq05GucWacw3aYBQ0ZGp5yyZCwE3/MpTxldPvfykc8l3/MpBhl9z6cYZEynUpqfXqyj3r9FE7Y5OzrtBd87VAwyks8uHxldPvOUp4wukc+OjHZ8rWdHPru1NaPL514+8rnUkW/q5FrVDBveebx2Ul3OeYpu8A4esr0ymYzCMFQYhspms5LU+d9xteK3H04kEp2/tHyDt9g+35X5qi7Y3EUhsMFr43tG3/MpBhnzkc/lv/woTxld8j2fYpCRfHZ80W9nyccGbzvf8ylPGV0+9/KRzyXf8ykGGX3PpxhkTKdSWpxZooPeu8bb557vHSoGGclnl4+MLp95ylNGl8hnR0Y7vtazI5/d2prR5XMvH/lc6sjXlQ3enG/RHASBksmkSkpKcn6VlpbG+lf080kmkzmbm9H56McX06/o58rmLgAAAAAAAAAAABAfOW/w1gwb/pVvscb9jdYVNy9XfINVK3xuxfT5rszKugDyad/3r9Q/tvLz23aFmVBSVolkMjrlDd8z+p5PMciYj3x7NVymRzY/2cmfblOeMrrkez7FICP57Ba1teqQD6719pmnGPRoydfUUK9spk39a0ZEp5yyZCwE3/MpTxldPvfykc8l3/MpBhl9z6cYZAwzoZozS3XIB9fpH1udFZ32gu8dKgYZyWeXj4wun3nKU0aXyGdHRju+1rMjn93amtHlcy8f+VwKM6ESycTqv8Gr5Zt9Hd++d8X/HedfX/U5FfPnu7JfX/X5AoUR+DsCScGXjvo1fM/oez7FIGMe8jm/8vKQ0enwPZ9ikJF89hE4v/LcD997NOUrUP+mjAUYvudTfjI6/aefh3xOh+/5FIOMvudTDDIG0vJLLzrjz/C9Q8UgI/nsIw8ZnV93ecjodJDPPshoH4HzK8/9iEOH5LONtTSj06svD/mcjvZPt0u+9AYvAOQDP4PXxveMvudTDDLmI5/Ln0+hPGV0yfd8ikFG8tnxc5nsLPn4GbztfM+nPGV0+dzLRz6XfM+nGGT0PZ9ikDHNz+B1wveM5LPLR0aXzzzlKaNL5LMjox1f69mRz25tzejyuZePfC515OvWG7wAAAAAAAAAAAAAAD+xwQsAAAAAAAAAAAAAMcEGLwAAAAAAAAAAAADEBBu8AAqiObM0eghAnjVnljr52RQAuq462YNnHrCG8NwDCq8sUaK2MB09DCDPeOYBhcfXesCaw3Pvq7HBCwAAAAAAgNVWFpSoLcsGLwAAAFBobPACAAAAAAAAAAAAQEywwQsAAAAAAAAAAAAAMcEGLwAAAAAAAAAAAADEBBu8AAAAAAAAAAAAABATbPACAAAAAAAAAAAAQEwErS3NWUmaMaVeNcOGR+cBwIldZl2i12vGRA97IcyEkrJKJJPRKW/4ntH3fIpBxnzk23HGhU6vu3xkdMn3fIpBRvLZhZlQIxt+7/Tac833Hi35mhrqlc20qX/NiOiUU5aMheB7PuUpo8vnXj7yueR7PsUgo+/5FIOMHflGNvzB2bXnmu8dKgYZyWeXj4wun3nKU0aXyGdHRruQr/XMyGe3tmZ0+dzLRz6XwkyoRDKhqZNrc/ZsayfV5Zwn3uAFUEiBryOQFHzpqF/D94y+51MMMuYhn/PrLg8ZnQ7f8ykGGclnH+2XXvSoX8P3Hk35CtS+KWMBhu/5lJ+MTv/p5yGf0+F7PsUgo+/5FIOMy/M5vfZcD987VAwyks8+8pDR+XWXh4xOB/nsg4z20X7pRY/6NeLQIflsYy3N6PTay0M+p2P5vaYreIMXQEHs+/5VenLrM1Sd7BGdWuPSqZSyyqq0tCw65Q3fM/qeTzHI6Dpfc2ap9ps5Vi9te0F0qttcZ3TN93yKQUby2aVTKe3ZcKm3zzzFoEdLvsaZdQrTbRowZGR0yilLxkLwPZ/ykNH1c891Ptd8z6cYZPQ9n2KQsSPfd2derJeGXKCyoCR6yhrne4eKQUby2bnO6PqZpzxkdI18dmS0S/O1nhn57NbGjK6fe67zudaRjzd4AQAAAAAAkDdliRK1henoYQAAAAB5xAYvAAAAAAAAAAAAAMQEG7wAAAAAAAAAAAAAEBNs8AIAAAAAAAAAAABATLDBCwAAAAAAAAAAAAAxwQYvAAAAAAAAAAAAAMQEG7wAAAAAAAAAAAAAEBNs8AIAAAAAAAAAAABATLDBC6AgqoJyNYdLo4cB5ElzuFTViR7RwwAKgGceUHg894A1pzwo1bJsKnoYQJ7wzAPWHL7WAwqP597/xgYvAAAAAAAAuqU0SCqVzUQPAwAAAMijoLWlOStJM6bUq2bY8Og8ADgx6oMbdPPXjlH/kt7RqTUuzISSskokk9Epb/ie0fd8ikFG1/k+TS/UL96/XY9ueUp0qttcZ3TN93yKQUby2YWZUAfPvtbbZ55i0KMlX1NDvbKZNvWvGRGdcsqSsRB8z6c8ZHT93HOdzzXf8ykGGX3Ppxhk7Mh38OzrvH3u+d6hYpCRfHauM7p+5ikPGV0jnx0Z7UK+1jMjn93amNH1c891PtfCTKhEMqGpk2tz9mxrJ9XlnCfe4AVQWIGfI5AUfOmoX8P3jL7nUwwyOs7Xfr05vuocZ3Q+fM+nGGQkn30Enj/zFIMeTfkK1L0pYwGG7/nkPqPz557jfM6H7/kUg4y+51MMMnbmK9C9tzvD9w4Vg4zksw/HGZ0/8+Q+o/NBPvsgo320P/BcX31uRxw6JJ9trIUZnT/3HOdzPjrvNavGG7wACmLUBzfoL1v+XBuU9olOrXHpVEpZZVVaWhad8obvGX3PpxhkdJ2vMbVAx836s56sOSM61W2uM7rmez7FICP57NKplA5492pvn3mKQY+WfI0z6xSm2zRgyMjolFOWjIXgez7lIaPr557rfK75nk8xyOh7PsUgY0e+g2Zdo1u3ON7L557vHSoGGcln5zqj62ee8pDRNfLZkdEuzdd6ZuSzWxszun7uuc7nWkc+3uAFAAAAAAAAAAAAgCLCBi8AAAAAAAAAAAAAxAQbvAAAAAAAAAAAAAAQE2zwAgAAAAAAAAAAAEBMsMELoCCqk+VqziyLHgaQJ82ZZapOlkcPAygAnnlA4fHcA9acHolSLQ1T0cMA8oRnHrDm8LUeUHg89/43NngBAAAAAADQLSVBQulsGD0MAAAAII/Y4AUAAAAAAAAAAACAmGCDFwAAAAAAAAAAAABigg1eAAAAAAAAAAAAAIgJNngBAAAAAAAAAAAAICbY4AUAAAAAAAAAAACAmAhaW5qzkjRjSr1qhg2PzgOAE0d/+GddOHCUNi9fPzq1xoWZUFJWiWQyOuUN3zP6nk8xyOg633vLmjTm44d092YnRqe6zXVG13zPpxhkJJ9dmAl15Jw/efvMUwx6tORraqhXNtOm/jUjolNOWTIWgu/5lIeMrp97rvO55ns+xSCj7/kUg4wd+Y6cc4suHHiIl8893ztUDDKSz851RtfPPOUho2vksyOjXcjXembks1sbM7p+7rnO51qYCZVIJjR1cm3Onm3tpLqc88QbvAAKJ/B3BJKCLx31a/ie0fd8ikHGPORzfuXlIaPT4Xs+xSAj+ewjcH7luR++92jKV6D+TRkLMHzPp/xkdPpPPw/5nA7f8ykGGX3PpxhkXJ7P6bXnevjeoWKQkXz2kYeMzq+7PGR0OshnH2S0j8D5led+xKFD8tnGWprR6dWXh3xOR/un2yW8wQugIEbPvVsnbfg9bV+1SXRqjUunUsoqq9LSsuiUN3zP6Hs+xSCj63xvtczR9Y0TdOvmP49OdZvrjK75nk8xyEg+u3QqpV/Muc3bZ55i0KMlX+PMOoXpNg0YMjI65ZQlYyH4nk95yOj6uec6n2u+51MMMvqeTzHI2JHv53Nu02kDfqChlRtHT1njfO9QMchIPjvXGV0/85SHjK6Rz46Mdmm+1jMjn93amNH1c891Ptc68vEGLwAAAAAAAPImGSSUyYbRwwAAAADyiA1eAAAAAAAAAAAAAIgJNngBAAAAAAAAAAAAICb4GbwACmL03Lt10mMfaPt52ejUGheGoaSsEolkdMobvmf0PZ9ikNF1vrf6Bbr+wK85+/kUitHPqPA1n2KQkXx2nT+XydNnnvJwv3HNkq9xgyqFJQkN+GhxdMopS8ZC8D2f8pDR9XPP9/uN7/kUg4y+51MMMnbkO/E/d2j0o+97+dxzfa/JB98zks/OdUbXzzzF6H5Dvu4jox1f69mRz25tzOj6uReHe022iz+Dlw1eAAVx0usXa/SFj2r7HxwVnVrjwkxGWUnJpJuHTj74ntH3fIpBRtf53nrqr7p+zIG6dY9LolPdFpd/AfI1n2KQkXx26VRKJ7w8xttnnvJwv3HNkq+xT1JhMtCAz9LRKacsGQvB93zKQ0bXzz3f7ze+51MMMvqeTzHI2JHvxJd/5+1zz/W9Jh98z0g+O9cZXT/zFKP7Dfm6j4x2fK1nRz67tTGj6+deHO41WTZ4AfjkpNcv1uhZVdr+F+dFp9Y432/qikFG3/MpBhld53vr5ot1/RYtzv7lR3nI6Jrv+RSDjOSz6/yi39NnnmLQoyVf48w6hek2DRgyMjrllCVjIfieT3nI6Pq55zqfa77nUwwy+p5PMcjYke/El3/n7XPP9w4Vg4zks3Od0fUzT3nI6Br57Mhol+ZrPTPy2a2NGV0/91znc60jX1c2ePkZvAAAAAAAAAAAAAAQE2zwAgAAAAAAAAAAAEBMsMELoCCqUlk1l2SjhwHkSXNJVtWp6FEAhcAzDyg8nnvAmlORllp57gEFwzMPWHP4Wg8oPJ57/xsbvAAAAAAAAOiWZFYKowcBAAAA5FXQ2tKclaQZU+pzfmAvALh09sQ/6JCPKrTj0WdHp9a4MBNKyiqRTEanvOF7Rt/zKQYZXed7/Y5L9dDGS3TFHhdGp7rNdUbXfM+nGGQkn12YCXXmixd6+8xTDHq05GtqqFc206b+NSOiU05ZMhaC7/mUh4yun3uu87nmez7FIKPv+RSDjB35znzpIh3yoZ/PPd87VAwyks/OdUbXzzzlIaNr5LMjo13I13pm5LNbGzO6fu65zudamAmVSCY0dXJtzp5t7aS6nPPEG7wACimQFPg4AknBl476NXzP6Hs+xSCj83ztV53T4Tyj4+F7PsUgI/nso/3i8/eZpxj0aMqXh3vfVw1TxgIM3/MpHxkd/7N3ns/x8D2fYpDR93yKQcbl+dqvPadXoLvhe4eKQUby2YfzjI6fecpHRseDfPZBRvtov/j8feYpJh2SzzbWyoyOn3vO8zkey+81XcEbvAAK4uyJf9D/fVKtnY89Lzq1xqVTKWWVVWlpWXTKG75n9D2fYpDRdb5XbrtYDw5o0bjvXRKd6jbXGV3zPZ9ikJF8dulUSqc/91tvn3mKQY+WfI0z6xSm2zRgyMjolFOWjIXgez7lIaPr557rfK75nk8xyOh7PsUgY0e+M57/nUbNrfLyued7h4pBRvLZuc7o+pmnPGR0jXx2ZLRL87WeGfns1saMrp97rvO51pGPN3gB+COdlioro0cB5EtlZft1B6DweOYBhcdzD1hzeO4BhcUzD1hzeOYBhcdz739igxfA/7N353FylOXax6+q7p41YQ+BgAFkDYYAESQQOAgoIKCgIm4oihtHUERFRHDDhVUBFQX39aC+ICCbqAQiiyQxAZJAQogshiUJEkjIZJLp7qr3j84MM08mmem+q6uf6vy+z4f3vFQ18eJK1V1pnukZAAAAAAAAAAAAZAQbvAAAAAAAAAAAAACQEWzwAgAAAAAAAAAAAEBGsMELIBUj1sRamY/cwwDqZGU+0og1sXsYQAp45gHp47kHNE5HMdaqHPcfkBaeeUDj8F4PSB/PvfVjgxcAAAAAAAA1CSMpCviPbgAAAECa2OAFAAAAAAAAAAAAgIxggxcAAAAAAAAAAAAAMoINXgDpCQL3CIB6CQIp5lvlAQ3DMw9IF889oHHimOcekCaeeUBj8cwD0sVzb73Y4AWQjmJRam93jwKol/Z2qVRyjwJIA888IH0894DGKZV47gFp4pkHNA7v9YD08dxbr2BV18pYkubNnqVxEya65wEgEd+86UuaPHJXvfmoj7unGi4qR5Jihbmce8obvmf0PZ8ykDHpfH+748e675XH9bUTL3VP1SzpjEnzPZ8ykJF8dlE50gU3nOPtM08Z6NGSb+mCWYrLPRo9bpJ7KlGWjGnwPZ/qkDHp517S+ZLmez5lIKPv+ZSBjL35Lrjhi94+93zvUBnISD67pDMm/cxTHTImjXx2ZLSLeK9nRj67jTFj0s+9pPMlLSpHCnOh5sycNmDPdtr0GQNeJz7BCyBdgZ8rqHyrB6+X7xl9z6cMZEw4X+V+S/iuSzhj4sv3fMpARvLZV99361rnjD/L9x5N+VLq3pQxheV7PiWfMfHnXsL5El++51MGMvqeTxnI2Jcvpdlby/K9Q2UgI/nsK+GMiT/zlHzGxBf57IuM9lV54CV99yW7stAh+WxrI8yY+HMv4XyJr75ZMzQ+wQsgFd+86Us6ZNM9dPQx/+uearhSsahYsQqFFveUN3zP6Hs+ZSBj0vn+ctuPdO+Kx/TN91zhnqpZ0hmT5ns+ZSAj+exKxaK+et3nvX3mKQM9WvItnj9DUalHY8ZPdk8lypIxDb7nUx0yJv3cSzpf0nzPpwxk9D2fMpCxN9/Xr/+CDt5kdy+fe753qAxkJJ9d0hmTfuapDhmTRj47MtqVeK9nRj67jTFj0s+9pPMlrTcfn+AF4I0RayKtDMvuYQB1sjIsa8SayD0MIAU884D08dwDGqejJ9KqgOcekBaeeUDj8F4PSB/PvfVjgxcAAAAAAAA1CWMpquJbyQEAAACwY4MXAAAAAAAAAAAAADKCDV4AAAAAAAAAAAAAyAg2eAGkI46lkJEDpCYMK/cdgPTxzAPSx3MPaByee0C6eOYBjcMzD0gfz731YhoBSEVQLEqtre5hAPXS2ioVi+5RACngmQc0AM89oHF47gHp4pkHNAzv9YAG4Lm3XmzwAgAAAAAAAAAAAEBGsMELAAAAAAAAAAAAABnBBi8AAAAAAAAAAAAAZAQbvABSMWJNWSuDknsYQJ2sDEoasbrsHgaQAp55QPp47gGN07m6rK6Q+w9IC888oHF4rwekj+fe+gWrulbGkjRv9iyNmzDRPQ8AifjpT89U54TX6wOTP+KearioHEmKFeZy7ilv+J7R93zKQMak8/3mvp9p1ZyZ+sRpP3RP1SzpjEnzPZ8ykJF8dlE50o9/fIa3zzxloEdLvqULZiku92j0uEnuqURZMqbB93yqQ8akn3tJ50ua7/mUgYy+51MGMvbm+8lPPqWOvfx87vneoTKQkXx2SWdM+pmnOmRMGvnsyGgX8V7PjHx2G2PGpJ97SedLWlSOFOZCzZk5bcCe7bTpMwa8TnyCF0DaAh9XIClY56hfy/eMvudTBjImnK8ud1zCGRNfvudTBjKSz756b7/k78Dklu89mvKl1LwpYwrL93xKPmPid13C+RJfvudTBjL6nk8ZyLg2n9KbvtUv3ztUBjKSz74Szpj4M0/JZ0x8kc++yGhfvbdf8ndgcisLHZLPtjbCjInfdQnnS3z1mzVD4RO8AFLxs5+dqRF7768P/c8n3FMNVyoWFStWodDinvKG7xl9z6cMZEw63y//cY1WPvwvnfGpn7inapZ0xqT5nk8ZyEg+u1KxqKuv/l9vn3nKQI+WfIvnz1BU6tGY8ZPdU4myZEyD7/lUh4xJP/eSzpc03/MpAxl9z6cMZOzNd83Vp2vE3vt5+dzzvUNlICP57JLOmPQzT3XImDTy2ZHRrsR7PTPy2W2MGZN+7iWdL2m9+fgELwB/RJEUMnKA1IRh5b4DkD6eeUD6eO4BjcNzD0gXzzygcXjmAenjubdeTCMA6SiWpBY/vyoGaEotLVKx6B4FkAaeeUD6eO4BjVMs8twD0sQzD2gc3usB6eO5t15s8AIAAAAAAAAAAABARrDBCwAAAAAAAAAAAAAZEazqWhlL0rzZswb8wF4ASNLPfvi/+uWRr9Epo/7HPdVwURRJihWGOfeUN3zP6Hs+ZSBj0vl+9cI/9KG/LtIZn/+1e6pmpWJRsWIVCn5+OyLf8ykDGclnVyoWdfWVH/H2mac6zJukWfJt98x/VSjHemqHUe6pRFkypsH3fKpDxqSfe77PG9/zKQMZfc+nDGTszXfNlR/19rmX9KypB98zks8u6YxJP/OUoXlDvtqR0Y73enbks9sYMyb93MvCrIkVa87MaQP2bKdNnzHgdWKDF0Ba2o48Sr++/OPSjju6pxouKpcVS8rlknno1IPvGX3PpwxkTDzfU0/plM/+RLrnHvdMzbLyByBf8ykDGclnVyoWlTvsMG+fearHvEmYJd+o/yxWrhxp8U5j3FOJsmRMg+/5VI+MCT/3fJ83vudTBjL6nk8ZyNiX7/Aj9KvvfszL517is6YOfM9IPrvEMyb8zFOW5g35akZGO97r2ZHPbqPMmPBzLwuzJmaDF4BP2o48SsFFF0kHH+yeajjfh7oykNH3fMpAxsTz3XuvdO65if3hR/XImDDf8ykDGcln1/um39dnnjLQoyXf4vkzFJV6NGb8ZPdUoiwZ0+B7PtUjY8LPvcTzJcz3fMpARt/zKQMZ+/IdfoR04YVePvd871AZyEg+u8QzJvzMUz0yJox8dmS0K/Fez4x8dhtlxoSfe4nnS1hvvuFs8PIzeAEAAAAAAAAAAAAgI9jgBQAAAAAAAAAAAICMYIMXQDpKJSmfd48CqJd8XioW3aMA0sAzD0gfzz2gcXjuAenimQc0Ds88IH0899aLDV4A6ejqkjo73aMA6qWzU1q1yj0KIA0884D08dwDGofnHpAunnlA4/DMA9LHc2+9glVdK2NJmjd71oAf2AsASWo74ACVf/1rxePHu6caLipHkmKFuZx7yhu+Z/Q9nzKQMel8wdy5yn3wFJVmzXRP1SzpjEnzPZ8ykJF8dlE5Usv++3n7zFMGerTkW7pgluJyj0aPm+SeSpQlYxp8z6c6ZEz6uZd0vqT5nk8ZyOh7PmUgY2++lv3foPKvf+Xlc8/3DpWBjOSzSzpj0s881SFj0shnR0a7iPd6ZuSz2xgzJv3cSzpf0qJypDAXas7MaQP2bKdNnzHgdeITvADSE/i7AknBOkf9Wr5n9D2fMpCxDvkSv/PqkDHR5Xs+ZSAj+ewrSPzOS3753qMpX0r9mzKmsHzPp/pkTPR3vw75El2+51MGMvqeTxnIuDZfovde0sv3DpWBjOSzrzpkTPy+q0PGRBf57IuM9hUkfuclv7LQIflsayPNmOjdV4d8ia7Kv+6w8AleAKloO2CSgv/7P2mvvdxTDVcqFhUrVqHQ4p7yhu8Zfc+nDGRMPN+cOdL73y/Nnu2eqVniGRPmez5lICP57ErFonITJ3r7zFMGerTkWzx/hqJSj8aMn+yeSpQlYxp8z6d6ZEz4uZd4voT5nk8ZyOh7PmUgY1++1+8n/e53Xj73fO9QGchIPrvEMyb8zFM9MiaMfHZktCvxXs+MfHYbZcaEn3uJ50tYbz4+wQsAAAAAAAAAAAAATYQNXgAAAAAAAAAAAADICDZ4AQAAAAAAAAAAACAj2OAFAAAAAAAAAAAAgIxggxdAOopFqVBwjwKol0Khct8BSB/PPCB9PPeAxuG5B6SLZx7QODzzgPTx3FsvNngBpGPVKqmjwz0KoF46Oir3HYD08cwD0sdzD2gcnntAunjmAY3DMw9IH8+99WKDFwAAAAAAAAAAAAAygg1eAAAAAAAAAAAAAMgINngBAAAAAAAAAAAAICPY4AUAAAAAAAAAAACAjAhWda2MJWne7FkaN2Giex4AEtG2xziV775L8Wte455quKgcSYoV5nLuKW/4ntH3fMpAxqTzBYsWKffGw1T690L3VM2Szpg03/MpAxnJZxeVI7Xstpu3zzxloEdLvqULZiku92j0uEnuqURZMqbB93yqQ8akn3tJ50ua7/mUgYy+51MGMvbma9ltd2+fe753qAxkJJ9d0hmTfuapDhmTRj47MtpFvNczI5/dxpgx6ede0vmSFpUjhblQc2ZOG7BnO236jAGvE5/gBZCuwM8VSArWOerX8j2j7/mUgYwJ56vcbwnfdQlnTHz5nk8ZyEg++wo8f+YpAz2a8qXUvSljCsv3fEo+Y+LPvYTzJb58z6cMZPQ9nzKQsS9fSrO3luV7h8pARvLZV8IZE3/mKfmMiS/y2RcZ7avywEv67kt2ZaFD8tnWRpgx8edewvkSX32zZmh8ghdAKtr2GKfg3nulsWPdUw1XKhYVK1ah0OKe8obvGX3PpwxkTDzff/4jHXKI9PTT7pmaJZ4xYb7nUwYyks+uVCwqt/PO3j7zlIEeLfkWz5+hqNSjMeMnu6cSZcmYBt/zqR4ZE37uJZ4vYb7nUwYy+p5PGcjYl2+XXaV77vHyued7h8pARvLZJZ4x4Wee6pExYeSzI6Ndifd6ZuSz2ygzJvzcSzxfwnrz8QleAN4Iij1Si59DE2hKLS1ST497FEAKeOYBDcBzD2icHp57QKp45gENw3s9oAF47q0XG7wA0tG9Wmpvd48CqJf2dqm72z0KIA0884D08dwDGqe7m+cekCaeeUDj8F4PSB/PvfVigxcAAAAAAAAAAAAAMoINXgAAAAAAAAAAAADICDZ4AQAAAAAAAAAAACAj2OAFAAAAAAAAAAAAgIxggxcAAAAAAAAAAAAAMoINXgAAAAAAAAAAAADICDZ4AQAAAAAAAAAAACAj2OAFkI41a6TWVvcogHppba3cdwDSxzMPSB/PPaBxeO4B6eKZBzQOzzwgfTz31itY1bUylqR5s2dp3ISJ7nkASER75wgVe/wcxFE5khQrzOXcU97wPaPv+ZSBjPXIV2hpTfS+q0fGJPmeTxnISD67qByptb090Xsvab73aMm3dMEsxeUejR43yT2VKEvGNPieT3XKmORzrx75kuR7PmUgo+/5lIGMvfla2zsSu/eS5nuHykBG8tnVI2OSzzzVKWOSyGdHRruI93pm5LPbWDMm+dyrR74kReVIYS7UnJnTBuzZTps+Y8DrxAYvgLS0d45QqafHPeyFKCorlpQL/RzqykBG3/MpAxnrkS/f0pLofVePjEnyPZ8ykJF8dlFUVktbe6L3XtJ879GSb+mCmYrKRW1T7w1eQ8Y0+J5PdcqY5HOvHvmS5Hs+ZSCj7/mUgYy9+Vo9fu753qEykJF8dvXImOQzT3XKmCTy2ZHRLuK9nhn57DbWjEk+9+qRL0lRVFYQssELwCPtnSOkOHYPe6FULCpWrEKhxT3lDd8z+p5PGchYl3xBkOh9V5eMCfI9nzKQkXx2pWJR+ZaWRO+9pPneoyXf4vkzFJV6NGb8ZPdUoiwZ0+B7PtUrY4LPvbrkS5Dv+ZSBjL7nUwYy9uVraU3s3kua7x0qAxnJZ1eXjAk+81SvjAkinx0Z7Uq81zMjn91GmzHB515d8iWoN99wNnj5GbwAAAAAAAAAAAAAkBFs8AIAAAAAAAAAAABARrDBCwAAAAAAAAAAAAAZwQYvAAAAAAAAAAAAAGQEG7wAAAAAAAAAAAAAkBFs8AJIR1ubewRAvbW1SatXu0cB1NPq1TzzgEbhuQekj+ce0Bg884D08cwDGofn3qDY4AWQjtZW9wiAemttldascY8CqKc1a3jmAY3Ccw9IH889oDF45gHp45kHNA7PvUGxwQsAAAAAAAAAAAAAGcEGLwAAAAAAAAAAAABkBBu8AAAAAAAAAAAAAJARwaqulbEkzZs9S+MmTHTPA0Ai2seMUfGFF9zDXojKkaRYYS7nnvKG7xl9z6cMZKxHvsKorVVc+Li06abuqZrUI2OSfM+nDGQkn1207CW17r6bt888ZaBHS76lC2YpLvdo9LhJ7qlEWTKmwfd8qlPGJJ979ciXJN/zKQMZfc+nDGSMypG0fLlad99dxReWuqe94HuHykBG8tnVI2OSzzzVKWOSyGdHRjve69mRz25jzZjkc68e+ZIUlSOFuVBzZk4bsGc7bfqMAa8TG7wA0tI+ZjuVPP0DUBSVFUvKhX4OdWUgo+/5lIGM9ciXHzVKpYULE/nDj+qUMUm+51MGMpLPLnppmVp2293bZ54y0KMl39IFMxWVi9qm3hu8hoxp8D2f6pQxyedePfIlyfd8ykBG3/MpAxmjqKx4+XK1evzc871DZSAj+ezqkTHJZ57qlDFJ5LMjox3v9ezIZ7exZkzyuVePfEmKorKCkA1eAB5pH7Od9PLL7mEvlIpFxYpVKLS4p7zhe0bf8ykDGeuSb7PNpKefTuQPP6pXxgT5nk8ZyEg+u9J//6v8Lrt4+8xTBnq05Fs8f4aiUo/GjJ/snkqUJWMafM+nemVM8LlXl3wJ8j2fMpDR93zKQMZSsah4+csq7LKrt8893ztUBjKSz64uGRN85qleGRNEPjsy2vFez458dhttxgSfe3XJl6DefMPZ4OVn8AIAAAAAAAAAAABARrDBCyAd7W3uEQD11t4udXe7RwHUU3c3zzygUXjuAenrXl259wCki2cekD7e6wGNw3NvUGzwAkhF7Om3PACaWkuL1NPjHgVQT8UizzygUXjuAakLij2Vew9AunjmAenjvR7QODz3BsUGLwAAAAAAAAAAAABkBBu8AAAAAAAAAAAAAJARbPACAAAAAAAAAAAAQEawwQsAAAAAAAAAAAAAGcEGLwAAAAAAAAAAAABkBBu8AAAAAAAAAAAAAJARbPACAAAAAAAAAAAAQEawwQsgHR0d7hEA9dbRIa1a5R4FUEfBqlU884BG4bkHpI/nHtAYPPOA1PFeD2ggnnuDClZ1rYwlad7sWRo3YaJ7HgAS0XbAASrNmuUe9kJUjiTFCnM595Q3fM/oez5lIGM98uUnvl7lX/9K8fjx7qma1CNjknzPpwxkJJ9d/PBsFT78IW+fecpAj5Z8SxfMUlzu0ehxk9xTibJkTIPv+VSnjEk+9+qRL0m+51MGMvqeTxnIGJUjBXPnqvDhD6s0a6Z72gu+d6gMZCSfXT0yJvnMU50yJol8dmS0472eHfnsNtaMST736pEvSVE5UpgLNWfmtAF7ttOmzxjwOvEJXgDpCfxdgaRgnaN+Ld8z+p5PGchYh3yJ33l1yJjo8j2fMpCRfPYVJH7nJb9879GUL6X+TRlTWL7nU30yJvq7X4d8iS7f8ykDGX3PpwxkDKS1t557xp/le4fKQEby2VcdMiZ+39UhY6KLfPZFRvsKEr/zkl9Z6JB8trWRZkz07qtDvkRX5V93WPgEL4BUtB0wScGcOe5hL5SKRcWKVSi0uKe84XtG3/MpAxnrkm/CBOl3v5P22ss9U5O6ZEyQ7/mUgYzksys/+KDCD37Q22eeMtCjJd/i+TMUlXo0Zvxk91SiLBnT4Hs+1Stjgs+9uuRLkO/5lIGMvudTBjKWikVp7hzlT/mQNHu2e9oLvneoDGQkn11dMib4zFO9MiaIfHZktOO9nh357DbajAk+9+qSL0G9+fgELwAAAAAAAAAAAAA0ETZ4AQAAAAAAAAAAACAj2OAFAAAAAAAAAAAAgIxggxcAAAAAAAAAAAAAMoINXgAAAAAAAAAAAADICDZ4AaSjo8M9AqDeOjulri73KIB66urimQc0Cs89IH0894DG4JkHpI9nHtA4PPcGxQYvgHQUCu4RAPWWz0ulknsUQD2VSjzzgEbhuQekj+ce0Bg884D08cwDGofn3qDY4AUAAAAAAAAAAACAjGCDFwAAAAAAAAAAAAAygg1eAAAAAAAAAAAAAMiIYFXXyliS5s2epXETJrrnASARrW8+UuW773IPeyEqR5Jihbmce8obvmf0PZ8ykLEe+fKHHa7yN7+hePJk91RN6pExSb7nUwYyki8B99yr3Je/7O0zTxno0ZJv6YJZiss9Gj1uknsqUZaMafA9n+qUMcnnXj3yJcn3fMpARt/zKQMZo3Kk8P77lP/KV1W6a4p72gu+d6gMZCSfXT0yJvnMU50yJol8dmRMAO/1zMhnt7FmTPK5V498SYrKkcJcqDkzpw3Ys502fcaA14lP8AJIU+DrCiQF6xz1a/me0fd8ykDGOuRL/L6rQ8ZEl+/5lIGM5DOvtbfeOse9Wr73aMqXUvumjCks3/OpPhkT/d2vQ75El+/5lIGMvudTBjKuzZfovZf08r1DZSAj+eyrDhkTv+/qkDHRRT77IqN58V4vgUU++9pIMyZ679UhX6Jr7awZDj7BCyAVbUcepeDee93DXigVi4oVq1BocU95w/eMvudTBjLWJd8hh0gXXigdfLB7piZ1yZgg3/MpAxnJZ1e++26F55/v7TNPGejRkm/x/BmKSj0aM97+Vb0bYsmYBt/zqV4ZE3zu1SVfgnzPpwxk9D2fMpCxVCxK992r/Je/It1zj3vaC753qAxkJJ9dXTIm+MxTvTImiHx2ZLTjvZ4d+ew22owJPvfqki9Bvfn4BC8AAAAAAAAAAAAANBE2eAGko7PDPQKg3jo7pZUr3aMA6qmri2ce0Cg894D0da2q3HsA0sUzD0gf7/WAxuG5Nyg2eAGkI593jwCot3xeKpfdowDqqVTimQc0Cs89IH0894DG4JkHpI9nHtA4PPcGxQYvAAAAAAAAAAAAAGQEG7wAAAAAAAAAAAAAkBFs8AIAAAAAAAAAAABARrDBCwAAAAAAAAAAAAAZwQYvAAAAAAAAAAAAAGQEG7wAAAAAAAAAAAAAkBFs8AIAAAAAAAAAAABARgSrulbGkjRv9iyNmzDRPQ8AiWg95UMq/9/v3MNeiMqRpFhhLuee8obvGX3PpwxkrEe+3PtPVnzC8Yre9S73VE3qkTFJvudTBjKSLwF/+KNyN93k7TNPGejRkm/pglmKyz0aPW6SeypRloxp8D2f6pQxyedePfIlyfd8ykBG3/MpAxmjcqTwuv+n3J9vVvl3v3VPe8H3DpWBjOSzq0fGJJ95qlPGJJHPjowJ4L2eGfnsNtaMST736pEvSVE5UpgLNWfmtAF7ttOmzxjwOvEJXgCpyecU+LoCScE6R/1avmf0PZ8ykLEe+XI5qRy5R2tf9ciY5PI9nzKQkXz2VS77/cxTBno05ZO0zrE6LFPGFJbv+VSnjEk+9+qRL8nlez5lIKPv+ZSBjIEq91zO4+ee7x0qAxnJZ1/1yJjkM091ypjkIp99kdG+eK9nX+Szr401Y5LPvXrkS3IF7sbK+vEJXgCpaP3IRxVee6172AulYlGxYhUKLe4pb/ie0fd8ykDGuuR7//ulY4+V3vc+90xN6pIxQb7nUwYyks+u/JvfKLjtNm+fecpAj5Z8i+fPUFTq0Zjxk91TibJkTIPv+VSvjAk+9+qSL0G+51MGMvqeTxnIWCoWFfz+WuX+cof0Oz8/zeR7h8pARvLZ1SVjgs881StjgshnR0Y73uvZkc9uo82Y4HOvLvkS1JuPT/ACAAAAAAAAAAAAQBNhgxcAAAAAAAAAAAAAMoINXgAAAAAAAAAAAADICDZ4AQAAAAAAAAAAACAj2OAFAAAAAAAAAAAAgIxggxcAAAAAAAAAAAAAMoINXgDpGDnSPQKg3kaOlF55xT0KoI6CV17hmQc0Cs89IH0894DG4JkHpI73ekAD8dwbFBu8ANIRMm6A1IWhFEXuUQD1FEU884BG4bkHpI/nHtAYPPOA9PHMAxqH596gmEgAAAAAAAAAAAAAkBFs8AIAAAAAAAAAAABARrDBCwAAAAAAAAAAAAAZwQYvAAAAAAAAAAAAAGQEG7wAAAAAAAAAAAAAkBFs8AIAAAAAAAAAAABARrDBCwAAAAAAAAAAAAAZwQYv4JlFzzyrT3/2bB3+lmN07NtP1Pd+eLWiKOo7//SiRTrjrM/psKOP1Tvfe7LuvOvuAf/8UOddn/3ilzTp0MP7/jrimLe6Lxm2+Y8t0Jmfq2R/1/tP1k233PLqyU1G9n8pgDRssom0YoV7FEA9rVjBMw9oFJ57QPpWvFK59wCki2cekD7e6wGNw3NvUGzwAp654NsXafTWo3Tz9dfpB1d8V1Punqqbb7tNklQul/WFc8/XrrvsrFv+9P/0xbM/q29efKn+/cSTwzq/Puef+wU9MHWKHpg6RXfedrN7ethuvOVWnfKBk3Xrn67XFz//eV151Q/18Oy5lZNB4L4cQL0FgRTH7lEA9RTHPPOARuG5B6SP5x7QGDzzgPTxzAMah+feoNjgBTzzxJNP6pi3HK3Ojg7ttMNYvWH//fTEk09Jkv6zaJH+88wzOu2jH1FnR4f2nzhRBx6wv275y1+Gdb4Wy156Sed97es68rjjdcJJ79W1f7zOfUmfL37uLE3cZ2+1t7fr9fvuoz12210LFi50XwYAAAAAAAAAAIAascELeOaQgw7S7Xf8VV3d3Xp60SLNnPWgJh90oCQpimIFg3yl2L8XPjGs8+tz+feu0qFHvkUfOPVj+se99/Udj+NY55z3FW2x+ea6/trf6YrLLtafbrpJ9//zgQH/vCuKIj08e66eeOpp7TdxH/c0AAAAAAAAAAAAasQGL+CZT572MT08e46OOPpYvfvkU3TQgQfoDa9/vSRph7Gv0eitt9aPf/YLdXV3a+aDD+n+B6Zr9ZrVwzo/mO9e9G3dedvNuv3GG3TSu96p8752gR5b8LgkaeETT+jJp5/WWZ86QyNHjtCOY8fqPe86UXfePdX9ZfpcdsWVOuiwN+m0T5+p9510onbacUf3JQAAAAAAAAAAAKgRG7yAR0qlkk7/zFk66s1HaMrtt+lPv/+d5s1/TD/71a8lSfl8Xpd86wLNeeQRHXP8O3TVNT/RkUccrlGjRg3r/IZ0dLTprW85WpPesH/fp3gXL16ilStX6uAjjtRBh71JB77xCF16+ZVasnSpbrjpz5p06OGadOjh+uSZZ/X9Op//zJm6b8rf9ItrfqQbb77V9O2hAQAAAAAAAAAAMBAbvIBHnl+8RIueeU7veddJ6uho05htt9VRb3qTps34V99rdt1lF/34qu9r6l9v18+vvkrPPPusxo8bN+zzw9H7bZ5Hbz1KW221pe6b8jfdf9ff9c+779QDU6foB5d/R28//m16YOoUPTB1in545eUD/vlcLqc9dt9Nhx4yWQ89OHvAOQAAAAAAAAAAANSODV7AI6O3HqWRI0foD9dfp+7ubi1evER//fud2m2Xnfte8/Nf/VoL//2Elq9YoV/+9nd6etEzOuFtxw37/Jlnn6NrfvpzSdLyFSt04aXf1aJnntWqVat12x1/1bQZ/9LBa3/m7y4776xtRo/W9374I7300stavny5br7tdl13w019v16v5StW6OLvXqFFzzyrNT09mj1nrqbc/Q9N2Ot17ksBAAAAAAAAAABQo2BV18pYkubNnqVxEya65wGk7MGHZ+sHV1+jfz/xpFpbWzV50gH63JmfUmdnpyTp8YUL9a1LLtOTTz2tvceP11lnfko77TC2758f6vyZZ5+jPXffXZ/46KmSpFv/cod++3/XavHSF7TD2Nfo1A9+QP9z8OS+1y976SV97wc/0rSZlU8RH3LQQTr9Ex/Tpptu2veaXrf/9W/69e+u1XPPP69ttt5ab3vrsXr/u0+SJLV+/esKL77E/Ue8UCoWFStWodDinvKG7xl9z6cMZKxLvnPPlS66SDrnHPdMTaIokhQrDHPuKS/4nk8ZyEi+BFx8saIvnO3tM0/1mjcJsuRbPH+GolKPxox/9c8y9WDJmAbf86leGRN87vk+b3zPpwxk9D2fMpAxiiKFl14qffGL0oUXuqe9UJdZkzDfM5LPri4ZE3zmKSPzhnw2ZEwA7/XMyGe30WZM8Lnn+6zpzffQO942YM922vQZA14nNngBpCVfKCQ71BNUl4dOwnzP6Hs+ZSBj3fJdfLF7pGZRuax47bdh95Hv+ZSBjOSzi8pllc/+fPL3coLqNm8SYsnHBm+F7/lUz4wJPfd8nze+51MGMvqeTxnI2JfvS19yT3mjbrMmQb5nJJ9d3TIm9MxTluYN+WpGRjve69mRz26jzpjQcy8LsyaW9PDhh7DBC8APbPDa+J7R93zKQEbf8ykDGX3PpwxkJJ8dGe0s+djgrfA9nzKQkXx2vmf0PZ8ykNH3fCJjIshnR0Y78tmR0c73fMpARvLZkdEuK/nmzJzGBi8AP7R3VL7FNAAAQL2ktcELAAAAAABQL7MeuIcNXgAAAAAAAAAAAADIAnfPlg1eAA3Dt2i28T2j7/mUgYy+51MGMvqeTxnISD47MtpZ8qX1CV5LxjT4nk8ZyEg+O98z+p5PGcjoez6RMRHksyOjHfnsyGjnez5lICP57Mhol5V8w/kWzaF7AAAAAAAAAAAAAADgJzZ4AQAAAAAAAAAAACAj+BbNQBP5wnlf1j/uvU+SdMLb3qovfu4s9yUDLHrmWV363Ss0d94jam/r0FFvfpPOOO3jCsPK1350dXfrwksu0733/1MjRnTq1A98QO844W19//z8xxboRz/+ieY8+oi23GILnfze9+j4447r97/wqjAMFeZy7mEvROVIUuxtPmUgo+/5lIGMvufTejJGxUiLblky4HWNEkexxp4wmg4NfO9wsP5Eh1VbX4++sORbumCW4nKPRo+b5J5KlCVjGnzPpwxkzGo+5uHw0aHd+jr0CRntyGeX1YzMw+EbrD/RYdUG65EOqzNYhz4hnx0Z7bKQL8yFw/oWzWzwAk3osiuuVKkcDbnB+7FPfko7jn2NPvPpM7T0hf/qrLPP0Yc/+P6+TdpvX/odPfPMM/rGV7+sp/+zSJ8/91x996KLtc/ee0mSLvrO5TryiMM1bvfd9Oj8x3T2l76kyy++RHtPGO/8L0lhLqdc6OnQjMqKJW/zKQMZfc+nDGT0PZ/Wk/Hxn/9HK5/p1tZv2HzAaxvhmTuWaPQhW2jHd2znnvIGHdoM1p/osGrr69EXlnxLF8xUVC5qm3pv8BoypsH3fMpAxqzmYx4OHx3ara9Dn5DRjnx2Wc3IPBy+wfoTHVZtsB7psDqDdegT8tmR0S4L+YKQDV5gozXcDd4j3nKcLrvo29p37wnS2g3d9rZWnfWpM1QqlfTm447Xdy++8NXzl1wmSfrSFz4/4Nfp9ckzz9Jhhx6qd73jBPeU8oWC9z+43Nd8ykBG3/MpAxl9z6f1ZHzgc7O19zm7q33r1gGvbYSnbn5W5e6Sdj5pB/eUN+jQZrD+RIdVW1+PvrDkWzx/hqJSj8aMn+yeSpQlYxp8z6cMZMxqPubh8NGh3fo69AkZ7chnl9WMzMPhG6w/0WHVBuuRDqszWIc+IZ8dGe2ykm84G7z8DF5gI3bIQQfp9jv+qq7ubj29aJFmznpQkw86UJL0/OIl6u7u1m677tL3+l132UVPPPVUv1+hIooiPTx7rp546mntN3Ef9zSAJtW9dI0kefFGK6vo0I4OAaCCeWhHhwBQwTy0o0M7OgSADWODF9iIffK0j+nh2XN0xNHH6t0nn6KDDjxAb3j96yVJ3d2rJEkd7e19rx8xolNdXZXjvS674koddNibdNqnz9T7TjpRO+2444DzAJrXK0+s1GZ7jHQPowp0aEeHAFDBPLSjQwCoYB7a0aEdHQLAhrHBC2ykSqWSTv/MWTrqzUdoyu236U+//53mzX9MP/vVryVJ7e0dkqRV3d19/8zKlV3q7Kwc7/X5z5yp+6b8Tb+45ke68eZbdctf/jLgPIDm1fVMt9r4SloTOrSjQwCoYB7a0SEAVDAP7ejQjg4BYMPY4AU2Us8vXqJFzzyn97zrJHV0tGnMttvqqDe9SdNm/EuStO02o9XW1qYFjy/s+2ceX7hQrx3kE7q5XE577L6bDj1ksh56cLZ7GkATCwv+/FEi355TqTtyD3uPDu3oEAAqmId2dAgAFcxDOzq0o0MAWD9/JiSAujvz7HN0zU9/LkkavfUojRw5Qn+4/jp1d3dr8eIl+uvf79Ruu+wsScrn8zryiMP1k5//Qi8uW6ZZDz2sv981RcccdZQkafmKFbr4u1do0TPPak1Pj2bPmaspd/9DE/Z63YD/TQAAAAAAAAAAACSHDV6giVzz059r0qGH67obbtKNf75Zkw49XD+85ifuyyRJLS0tuuRb39S99/9TbznhnTrl46fpNdtvp//92Ef7XnPmp07X5ptvrne85/368gXf1BmfOE377L2XJGnTTTbRhPGv0xfO+7KOPO54feviS3XSie/Q2447tt//CgAAAAAAAAAAAJLEBi/QRD7x0VP1wNQpA/765Cc+1nf+yksv1ic+emrf3++79wT97EdX6e47btMdf75BX/nSF9XZ2dl3vrO9Xd/62lc09a+369Y//T+944S39Z2TpLcc+WZd+6ufa+pfb9cffvsrvf/dJw04DwAAAAAAAAAAgGSxwQsAAGpSXhMp18IfJSzo0I4OAaCCeWhHhwBQwTy0o0M7OgSADWNCAgCAmsRRrCAXuIcbJteeU6m77B72Gh3a0SEAVDAP7egQACqYh3Z0aEeHALBhwaqulbEkzZs9S3vsta/iONbKV5brpf++oNXd3YoihlZSwjCntvYObb7VKI0YuYmCoPKA2hg7H6yL3j7QnPKFggqFFvewF0rFomLF3uZTBjL6nk8ZyOh7Pg2S8fHfPK3O7Ts05rBR7ksb4vn7XtCyOcv1utN2cU95gw5t3P5EhzUZrEefWPItnj9DUalHY8ZPdk8lypIxDb7nUwYyZjEf87A6dGg3WIe+IaMd+eyymJF5WB23P9FhTdwe6bB6boe+IZ8dGe2ykm/OzGkaN2Fi3/Fp02cMeJ3cDd7dx++j/y59XitXLNfPfvVb/eKXv9bLL7/s/jOo0WabbaaPnPphfejk92rkpptqy1HbSJJefGGxVq5Yrjun3qe/3PFXdXV1uf9o0xkxYoTe8paj9MbJB2rkpptqq623ZZO3ybHBa+N7Rt/zKQMZfc+nQTLyZqt6dGjj9ic6rMlgPfrEko8N3grf8ykDGbOYj3lYHTq0G6xD35DRjnx2WczIPKyO25/osCZuj3RYPbdD35DPjox2WclX9QbvdmN31H+XLNbHz/iM7r//fve1SMjkyZN1zfe/qy1GbSsp0otLl+hHP/2l5j7yiPvSprfX+PH634+eoq1Gj9GITTZlk7eJhWGoMJdzD3shKkeSYm/zKQMZfc+nDGT0PZ8GyfjE/z2rju3atM2hW7ovbYilD7ykl+eu0G4f3cE95Q06tHH7Ex3WZLAefWLJt3TBLMXlHo0eN8k9lShLxjT4nk8ZyJjFfMzD6tCh3WAd+oaMduSzy2JG5mF13P5EhzVxe6TD6rkd+oZ8dmS0y0K+MBcOa4N3wM/gfenFF/WL3/6ezd06u++++/Sr3/1BLy/7r5a9+KLuuveBjXJzV5LmzJ2ru+59QC+9+F/FceyeRjMJAnm7As/zKQMZfc+nDGT0PZ/WzRgVY+UKofuqBi5JgdY56tWiQ9sa5D6hwxrWID16tUz5Kr8BdV+mjCks3/MpAxkzmI95WOWiQ/sapEPvFhnti3z2lcGMzMMq1yC/x3RYw+I6tK9BrkWvFvnsi4z2lYV8wzTgE7xhmNNhRx6jl5cvd1+HhG222Wa6645bVCqV9eVvXKhVq1a5L9lojBgxQt/+6pe00+6vUy6XUxgO+LoDNAm+RbON7xl9z6cMZPQ9nwbJOO/HT2jLCZtp60lbuC9tiKWzXtSSqf/VXmft7p7yBh3auP2JDmsyWI8+seTjWzRX+J5PGciYxXzMw+rQod1gHfqGjHbks8tiRuZhddz+RIc1cXukw+q5HfqGfHZktMtKvqo/wRtFZTZ3U7J8+XJFUaRyubRRb+5KUldXl8pR1PcJXj7JCwAAAAAAAAAAAAyOj0o2CJuYr6ILAAAAAAAAAAAAYHgavsH7oX0+pvdN+JB7uGn88Lifa+fNd3UPAwAAAAAAAAAAAEDVhtzg7Sh06Ctv/Lb+8oF7dN27b9Pxe5zovqRmI1s20bv3PVmtE6r4qcEbcN27b9PuW41zDzfUZpM79alDPuceHmA4n2A96qij9Nvf/la33367zj77bLW2tvadGzt2rC6//HLdcccduvbaa3XYYYcN+Gc7Ojr01a9+VXfccYeuv/56HX/88QPOu4b69apR7a81nC4AAH6Iy1KQc4+iGnRoR4cAUME8tKNDAKhgHtrRoR0dAsCGDbnBe+ZBZ2viuInKn9SjtjcHOmPSWZowel/3ZTU5bs8TlH9NoD/86Q/uqZpsueWW2nHHHd3DDfWzO36s8VvvrVGdW7unhu2ggw7S6aefrhdeeEHz589XZ2enJk6s/HDlXC6niy++WCNHjtT8+fP1wgsv6Etf+pJe+9rX9v3zn/70p7XnnntqwYIFev7553XGGWdowoQJ/f4XXjWcX2+4kvy1AAD+idaUFbb6824r355TqTtyD3uNDu3oEAAqmId2dAgAFcxDOzq0o0MA2LANbvDmw7zetPPRWjZ2sU465V368lVfUm4X6b1v+ID70kG9b8KHdMFhFw849qkDPqdPT/q8JOnovY7VwpWPadWqVX3nt9vkNfrOUVfptpOn6tfv+H86bKc39Z2b8qFp2qJ9y76/P+OAz+kjE/9XknTBYRcr6A517l4X6O4Pz9Dbx53U97rBbNUxSl9944W66b1/0/+deIMOfM0hfec2lOGG99yhD+/7Cf3q7X/UXz5wj86efL5eu/ku+tFxv9QdH7xXF7/5SnUWOvte/4/7/qFgVKQj9jiy71i1PvnJT2rJkiW6+uqrdc455+j222/Xyy+/LEnaYYcdNGbMGP31r3/VOeeco6uuukpdXV068cTKJ63z+bze/OY3a8GCBTrvvPN05ZVXasWKFTrppMH7GerXk6TNN99cX//613XzzTfrj3/8o+nXAgAAAAAAAAAAADB8G9zg3W7T7ZWL8/rx/7tay5Yt04MPPqj5Sx/VuG337HvNZw86V+f9zzcG/HO9Ntm7Qwe/9o19G55hEOrY1x2vLffbTJK0bdt2evjJh/peHwahLj36e3rN3tsp/94edRya15cO/bp23XL3yvkw1GabVf5ZSdpnn320776VTxOHRxQVdEq543uU/8gahXuW+17nCoNQFx91pcZN2EOFd5XUcmyk4ya+re/chjJsttlmOmrft6jlrZEKby/qyD3eom8deZk6jsgp/54e7bnbnnrnhPf0/W8Vi0X9t7hUb9h1Ut+xahQKBb3mNa/RwoULdfHFF+u6667T5MmT9e9//1uSNGrUKEnSbbfdptWrV+uxxx7TihUrtNdee0mStttuO+Xzef3xj3/UihUr9Pjjj+uxxx7T7rtX/n1cQ/16QRDooosu0jbbbKPHH39cixYt0nvf+14deOCBzq809K8FAAAAAAAAAAAAoDob3OB9zbZjJUlzH5vbd+zZpc+oo98nVPfee+/1btjd+Lc/Kdwq1hG7HSVJev2YN6ilo0V/vOtaSVIhLug/zz/d9/o9Ru2pbTbdVv9Y+Xe9491v16X/d5HyuwR61+vf2/ea9Tn//PMVRZG++c1v6uCDD9b111/vvqTPrlvtrp222llzOmfq5I++X58+71NassMiaZgZunZ+WWecfbo+dOYpCreJNWJ8m775wwt0wruPV9dWK3TI6w7t978mvfjKixq1aW3fonmbbbaRJO21117697//rSeeeEIHH3ywPvShD0mSnnvuOfX09OiUU05RR0eH9t13X2233Xbq7Kz8Ho0ePVqStHDhwr5fc/HixWpvb+/7+/6G+vV23nln7bzzzpoyZYrOP/98XXLJJXrhhRd0wgknuL/UkL8WAAAAAAAAAAAAgOpscINX+bjyf4uvHop7JBXWHpc0d8RMPbrlrFdf0M/ixYu1uP0ZnbB35Vvyvnv/92v1tq/okUceqbygVVIx6Hv9XrvsraBTuvrHV2vlypWaNm2aFi55XON2ePUTw0mYsPPeCjpjXXLZxVq2bJmee+45fe9735OGmeH6W6/Tiy++qEWLFumlV17Wo088qscff1yvvPKKHlv4mDYb8eqnjCVJPZJaXu2sGm1tbdLazdILLrhA3/jGN7R48WK96U2Vbxv93HPPafbs2TrkkEN044036swzz9TLL7+s1atXS5LiuPK/m8u9+vMKcrmcomjwnxcw1K+35557qlAo6LTTTtOtt96qP/zhD9p99901duxYHX/88Zo6daqmTp2qK6+8cshfCwCQbbGkV5/iqAUd2tEhAFQwD+3oEAAqmId2dGhHhwCwYRvc4F300n+kvPS6Ma9+Qne79tdoVUtX399feumluuCCC/r+3vXn2Tdox7adNapza+2zxes15am/9Z0rjVijsZvt0Pf3QUesuEtS/73HVwKpY+3maC5WS66l71RrXNn87BVrmJuonbHirkCK1n1EDJlB0iuvvNL3/4+iaMCGZalUUhgOrHXL/Ci9GL0w4NhwLVmyRKVSSbNnz9by5cv14osv6rHHHuvb+C2Xy7r88ss1ffp0PfLII3rkkUdULBb13HPPSZIWLVqkKIo0bty4vl9z7NixWr58ed/f9zfUr1csFlUsFjV37ty+v+bMmaN//vOfWrZsmebMmaM5c+boySefHPLXAgBkW7m7rFz7q19A1Gj59pxK3ev/EQ0+okM7OgSACuahHR0CQAXz0I4O7egQADZsgxu8zz7/rKIdevSx/U/XFu1bap9tXq89Wl+nx0prP4E7xM/glaTbptyqcEysrxz+LeU2C3Xd3/7Yd+65cJEmjK78DF1JmvPcwwo6pI/td7o6W0Zo/+0O1GvD3bSg+KgkKd6srCN3OkZt+Tbtv92BGlN6Td8/K0lxa1nbdbxGwRBf2zN70UMKNon1ucnnavP2LbTtyDE64w2flYaRoVqFsKAt4601bdH97qlhWbFihZYuXaojjjhCW221lbbddlsddNBBWrJkSd9rjjjiCN1000366le/queff16bb765/v73v0uSXnjhBS1btkwf+9jHtMUWW2ifffbRXnvtpYceevVnH1966aX66Ec/Oqxf75FHHun7ebpf+cpXdN555+m2227TokWLdM899+iMM87QGWecoSuuuGLIXwsAAAAAAAAAAABAdYJVXStjSZo3u/Jtll9/4P8MeMH555yv/YuHqP3FEVpd7lbnQS367DWf0sMPPyxJ+tX//l6tYZvec9W6P4O11y+//Fvt+MzuWvbaxXrHl9/ad/zd73iPTt3idJ3wq6PUXVylMAx17dW/l6a1atOezfVKeYW2OHyk/veSj2nBggX61Xd+o80eGa18T4ueWr1Qe07YU488PVdn/OzjkqQ/XHKdOh/ZQp3hCH3vgct0w7xXN5P7C4JAP//BL9Qxd3N1rBiprtJKPbHVfH3pqi8MmeGu06bpK/d9QffMmSpJ+uMZf9a8F+fqq9d+SZL05XdfoH1GTdQ7f3CcJOmNrz1CX37vBXrvT96upUuXDsgx85//ULFY1NnnfU1BsP5N6Xe+8506/vjjtfXWW6unp0cvv/yy/vjHP+qWW26RJH3oQx/SG9/4Rm233XZ69tln9dJLL+mcc85RT09P3/k3v/nN2nrrrdXd3a3ly5fr61//et/P5f3DH/6gp556Suecc86Qv14Yhjr33HM1duzYvp8P/Pjjj+vvf/+7/vKXv/Rl7rWhX6u/yy/+pnbeY7xyuZzCMNxgH8imMAwV9vtW4T6JypGk2Nt8ykBG3/MpAxl9z6dBMs699N8a+/ZttMkufvxs9ZX/WaWFv1ykfb6yu3vKG3Ro4/YnOqzJYD36xJJv6YJZiss9Gj1uknsqUZaMafA9nzKQMYv5mIfVoUO7wTr0DRntyGeXxYzMw+q4/YkOa+L2SIfVczv0DfnsyGiXhXxhLtScmdM0bsLEvuPTps8Y8DoN9QleSfru97+rhzebptwHVyt+V5d+8LfL+zZ3NcTP4O117fTfKP+RNbpu3rUDjt/611sU79qjkya8X1Ll2x1//huf0+IJTyn3wTUqHrdCF/7+G1qwYIEk6aKfflsrDlui/AfWaMXrX9CU4u16OHz1X+qHt35fxROWK3/qGoV7rv/bJcRxrC987Wwt3H6ucu9fLb19lW558EZpGBleOWaJnu1a1PdrzRv1oGb3zOz7+zlrZmneNq9+OvYjB/yvHm19aJ3N3WrcdNNNuv322/u+zfGf//znAZupf//73zVv3jzNnTtXM2fO1MUXXzxgA/X3v/+97rzzzr5vqfzjH/+4b3NXkv7xj3/onnvu6fv7Df16URTp+9//vu6//349+uijevTRR/Xggw8O+Of729CvhY1MEMjbFXieTxnI6Hs+ZSCj7/m0bkZJ7isauwLvEq276NC2BrlPvEvse4cavEevlilfSv2bMqawfM+nDGTMYL6Urv7hL9/nIR3a1yAderfIaF/ks68MZvRu+mRwHnqX2PcOtW6P3iXOYIfeLfLZFxntKwv5hmnIT/DW24c//GEVi0X99re/dU81hauvvlqXXXbZgA3VXsP9BO/GgE/wNr98oaBC4dWfoe2TUrGoWLG3+ZSBjL7nUwYy+p5Pg2R86ML52unE7bXpriPclzbEiqde0WM/e1r7f2O8e8obdGjj9ic6rMlgPfrEkm/x/BmKSj0aM36yeypRloxp8D2fMpAxi/mYh9WhQ7vBOvQNGe3IZ5fFjMzD6rj9iQ5r4vZIh9VzO/QN+ezIaJeVfIl8grfefvGLX9Rlc3ebEdvq7g/PGPSvbUZs6768bk477bRBN3cBAMi68ppIudaG/1GiT649p1L3+r+Dh4/o0I4OAaCCeWhHhwBQwTy0o0M7OgSADfNnQiYsGCnlP7Jm0L+Cke6r09f/E6ob+6dV6QIAsimOYgUhc9uCDu3oEAAqmId2dAgAFcxDOzq0o0MA2LABG7xhmNOmm27a/1BmPf/88zr44IMH/ev55593X566TTbZRGEYKgxz6ujocE9vVDo6OhSGTfu1BgAAAAAAAAAAAEBiBuyqtbV36JQPntz/EOrk1A9/UK2t7Wpr79CRbzrCPb1ROerNR6itvdM9DAAAAAAAAAAAAMAxYIN3k8230Ec/9AEdcMAb+h9Gwg48cJI+dPL7NWLTzbXpFlvq8EMna9y4PdyXbRT2HDdOh/3Pwdpk8y36vj0z36YZAAAAAAAAAAAAGNyADd6OzhFqHzFS373oG/r06Z/UpptuymZbQoIg0GabbabPfPpTuuzbX1fHyJHqGDFCnSNGqmPkJvrge96ptx13rDo7O5u+8yAINGLECL39+LfqA+95R6WLzhEKw7Dp/90BoJlEPZHCFn++xX6uPVTUHbmHvUaHdnQIABXMQzs6BIAK5qEdHdrRIQBsWLCqa2UsSfNmz9Iu4/ZSuVzWK8tf0n+XPKeVK19RVC67/wxqFOZyGjFipLYaPUYjNtms7+fORlGklSte3qg679/FyE03Vy6XUy6XUxAEbPI2qXyhoEKhxT3shVKxqFixt/mUgYy+51MGMvqeT4NkfODs2dr3i3uodUs/Mq9esVozz52nyVft657yBh3auP2JDmsyWI8+seRbPH+GolKPxoyf7J5KlCVjGnzPpwxkzGI+5mF16NBusA59Q0Y78tllMSPzsDpuf6LDmrg90mH13A59Qz47MtplJd+cmdM0bsLEvuPTps8Y8Dq5G7y7j99H5XJZURQpiiLFcSxJff8Xtev/7YfDMOz7S2s3eDemzgfrgs3d5scGr43vGX3Ppwxk9D2fBsnIm63q0aGN25/osCaD9egTSz42eCt8z6cMZMxiPuZhdejQbrAOfUNGO/LZZTEj87A6bn+iw5q4PdJh9dwOfUM+OzLaZSXfcDZ4B3yPgyAIlMvllM/nB/xVKBT4y/iX22kulxuwuemed//5ZvrL/XdlcxcAAAAAAAAAAAAYnnU2eHs/Vdl/07H32+fyV+1/uRu7vV1vjJ2vrwsAAAAAAAAAAAAAG7bOTynvv+HY///PX7a/But1Y+18sH9fAED2xKVYQd6fGZ5vz6nUna2fY0+HdnQIABXMQzs6BIAK5qEdHdrRIQBs2ICfwdv/+zkDQJLCMFSYy7mHvRCVI0mxt/mUgYy+51MGMvqeT4NknP6ZRzTxwj2Ub/cjc1SO9MAn5+qgaya4p7xBhzZuf6LDmgzWo08s+ZYumKW43KPR4ya5pxJlyZgG3/MpAxmzmI95WB06tBusQ9+Q0Y58dlnMyDysjtuf6LAmbo90WD23Q9+Qz46MdlnIF+bC6n8GLwDUTRDI2xV4nk8ZyOh7PmUgo+/5tG5GSe4rGrvWfmHvOsd9WnRoW4PcJ97l9b1DDd6jV8uUL6X2TRlTWL7nUwYyZjBfSlf/8Jfv85AO7WuQDr1bZLQv8tlXBjN6N3syOA+9y+t7h1q3R+/yZrBD7xb57IuM9pWFfMPEJ3gBpCJfKKhQaHEPe6FULCpW7G0+ZSCj7/mUgYy+59MgGe87/UEdcNkEb76atlQs6r5PPKxDf76fe8obdGjj9ic6rMlgPfrEkm/x/BmKSj0aM36yeypRloxp8D2fMpAxi/mYh9WhQ7vBOvQNGe3IZ5fFjMzD6rj9iQ5r4vZIh9VzO/QN+ezIaJeVfHyCFwAAAAAAAAAAAACaCBu8AACgJnGsqr5tSBry7TmVusvuYW/RoR0dAkAF89CODgGggnloR4d2dAgAG8YGLwAAqEl5dVm5Nj++VVJW0aEdHQJABfPQjg4BoIJ5aEeHdnQIABvGBi8AAAAAAAAAAAAAZAQbvAAAAAAAAAAAAACQEWzwAgAAAAAAAAAAAEBGsMELAACaRtgeqryq7B5GFejQjg4BoIJ5aEeHAFDBPLSjQzs6BOATNngBAEDVyqvLyrXl3MOoAh3a0SEAVDAP7egQACqYh3Z0aEeHADA0NngBAEDV4lgKAvcoqkGHdnQIABXMQzs6BIAK5qEdHdrRIQAMjQ1eAAAAAAAAAAAAAMiIYFXXyliS5s2epXETJrrnASARYRgqzPn5rVWiciQp9jafMpDR93zKQEbf88nJWOoua9a58/WGK17nvqxhonKkWec/pgln76KWLQruaS/QoY17n9BhbdwefWPJt3TBLMXlHo0eN8k9lShLxjT4nk8ZyJi1fMzD6tGhnduhj8hoRz67rGVkHlbP/T2mw9pwHdq516JvyGdHRrss5AtzoebMnDZgz3ba9BkDXic+wQsgNUEgb1fgeT5lIKPv+ZSBjL7n07oZJbmvaOwKpHx7TuXuyD3jz6JD2xrkPqHDGtYgPXq1TPlSuiJMGVNYvudTBjJmMF9KV//wl+/zkA7ta5AOvVtktC/y2VcGMzIPq1yD/B7TYQ2L69C+BrkWvVrksy8y2lcW8g0Tn+AFkIp8oaBCocU97IVSsahYsbf5lIGMvudTBjL6nk9Oxp7lRc382qM68PK93Zc1TKlY1IMXPKY9P7GzOrdvd097gQ5t3PuEDmvj9ugbS77F82coKvVozPjJ7qlEWTKmwfd8ykDGrOVjHlaPDu3cDn1ERjvy2WUtI/Oweu7vMR3WhuvQzr0WfUM+OzLaZSUfn+AFAAB1EZdiBfkqvqQM66BDOzoEgArmoR0dAkAF89CODu3oEACGxgYvAAAAAAAAAAAAAGQEG7wAAAAAAAAAAAAAkBFs8AIAgKaRb8+p1F12D6MKdGhHhwBQwTy0o0MAqGAe2tGhHR0C8AkbvAAAoGpROVaY4+fhWNChHR0CQAXz0I4OAaCCeWhHh3Z0CABDY4MXAABULeqJFLbwxwgLOrSjQwCoYB7a0SEAVDAP7ejQjg4BYGhMSQAAAAAAAAAAAADICDZ4AQAAAAAAAAAAACAj2OAFAABNI98eqtRddg+jCnRoR4cAUME8tKNDAKhgHtrRoR0dAvAJG7wAAKBqcRQrCAP3MKpAh3Z0CAAVzEM7OgSACuahHR3a0SEADI0NXgAAULXymki5Vv4YYUGHdnQIABXMQzs6BIAK5qEdHdrRIQAMLVjVtTKWpHmzZ2nchInueQBIRBiGCnM597AXonIkKfY2nzKQ0fd8ykBG3/PJybhiYZf+c8NijT97Z/dlDROVIz32w6c0+o2jtMVeI93TXqBDG/c+ocPauD36xpJv6YJZiss9Gj1uknsqUZaMafA9nzKQMWv5mIfVo0M7t0MfkdGOfHZZy8g8rJ77e0yHteE6tHOvRd+Qz46MdlnIF+ZCzZk5bcCe7bTpMwa8TnyCF0BqgkDersDzfMpARt/zKQMZfc+ndTNKcl/R2BX0JvIsV/9Fh7Y1yH1ChzWsQXr0apnypXRFmDKmsHzPpwxkzGC+lK7+4S/f5yEd2tcgHXq3yGhf5LOvDGZkHla5Bvk9psMaFtehfQ1yLXq1yGdfZLSvLOQbJj7BCyAV+UJBhUKLe9gLpWJRsWJv8ykDGX3Ppwxk9D2fnIzLH1+pJ697Rvucu4f7soYpFYt67GdPa9Q+W2jrSVu4p71AhzbufUKHtXF79I0l3+L5MxSVejRm/GT3VKIsGdPgez5lIGPW8jEPq0eHdm6HPiKjHfnsspaReVg99/eYDmvDdWjnXou+IZ8dGe2yko9P8AIAAAAAAAAAAABAE2GDFwAAVK3cXVau3c+fVZEVdGhHhwBQwTy0o0MAqGAe2tGhHR0CwNDY4AUAAFWLpbU/EQe1okM7OgSACuahHR0CQAXz0I4O7egQAIbGBi8AAAAAAAAAAAAAZAQbvAAAoGnk23MqdZfdw6gCHdrRIQBUMA/t6BAAKpiHdnRoR4cAfMIGLwAAAAAAAAAAAABkBBu8AACgatGassLWnHsYVaBDOzoEgArmoR0dAkAF89CODu3oEACGxgYvAACoWlyWAt5rmdChHR0CQAXz0I4OAaCCeWhHh3Z0CABDY4MXAAAAAAAAAAAAADKCDV4AANA08u2hSt1l9zCqQId2dAgAFcxDOzoEgArmoR0d2tEhAJ+wwQsAAAAAAAAAAAAAGRGs6loZS9K82bM0bsJE9zwAJCIMQ4U5P394RlSOJMXe5lMGMvqeTxnI6Hs+ORmX3r9MKx5fpV1O2d59WcNE5UiLblysXGdB2x89yj3tBTq0ce8TOqyN26NvLPmWLpiluNyj0eMmuacSZcmYBt/zKQMZs5aPeVg9OrRzO/QRGe3IZ5e1jMzD6rm/x3RYG65DO/da9A357Mhol4V8YS7UnJnTBuzZTps+Y8DrxCd4AaQmCOTtCjzPpwxk9D2fMpDR93wamDEuSmFhnVc0dgWSAqnyfzxddGhbzn1ChzUu3+eNKZ/Sad6UMYXlez5lIGPG8jEPa1h0aF++3yciYyKLfPaVsYzMwxoWz5RkFtehffk+b8hnX2S0ryzkGyY+wQsgFflCQYVCi3vYC6ViUbFib/MpAxl9z6cMZPQ9n5yMz931grqeWaVdP7CD+7KGKRWLevqG51QY0aqxx2zjnvYCHdq49wkd1sbt0TeWfIvnz1BU6tGY8ZPdU4myZEyD7/mUgYxZy8c8rB4d2rkd+oiMduSzy1pG5mH13N9jOqwN16Gdey36hnx2ZLTLSj4+wQsAADYqYXte5VUl9zCqQId2dAgAFcxDOzoEgArmoR0d2tEhAJ+wwQsAAAAAAAAAAAAAGcEGLwAAqFpcjhWEVfxQCKyDDu3oEAAqmId2dAgAFcxDOzq0o0MAGBobvAAAoGrlnki5Vv4YYUGHdnQIABXMQzs6BIAK5qEdHdrRIQAMjSkJAAAAAAAAAAAAABnBBi8AAAAAAAAAAAAAZAQbvAAAAAAAAAAAAACQEWzwAgAAAAAAAAAAAEBGsMELAACqVl5VUq4j7x5GFejQjg4BoIJ5aEeHAFDBPLSjQzs6BIChscELAACaRpgLFJVj9zCqQId2dAgAFcxDOzoEgArmoR0d2tEhAJ+wwQsAAJpG2BIo6oncw6gCHdrRIQBUMA/t6BAAKpiHdnRoR4cAfBKs6loZS9K82bM0bsJE9zwAJCIMQ4W5nHvYC1E5khR7m08ZyOh7PmUgo+/55GT8zw3PK2zPa/ujR7kva5ioHGnJP5ap+/k1eu37tnNPe4EObdz7hA5r4/boG0u+pQtmKS73aPS4Se6pRFkypsH3fMpAxqzlYx5Wjw7t3A59REY78tllLSPzsHru7zEd1obr0M69Fn1DPjsy2mUhX5gLNWfmtAF7ttOmzxjwOvEJXgCpCQJ5uwLP8ykDGX3Ppwxk9D2fBmaMSlIuv84rGrsCScHakeProkPbcu4TOqxx+T5vTPlSat6UMYXlez5lIGPG8jEPa1h0aF++3yciYyKLfPaVsYzMwxoWz5RkFtehffk+b8hnX2S0ryzkGyY+wQsgFflCQYVCi3vYC6ViUbFib/MpAxl9z6cMZPQ9n5yMj//maXVu36Exh/nz1bSlYlHPT/2vVj/fo10/sIN72gt0aOPeJ3RYG7dH31jyLZ4/Q1GpR2PGT3ZPJcqSMQ2+51MGMmYtH/OwenRo53boIzLakc8uaxmZh9Vzf4/psDZch3butegb8tmR0S4r+fgELwAAAAAAAAAAAAA0ETZ4AQAAAAAAAAAAACAj2OAFAAAAAAAAAAAAgIxggxcAAFSt1B0p384fIyzo0I4OAaCCeWhHhwBQwTy0o0M7OgSAoTElAQBADWJJgXsQVaFDOzoEgArmoR0dAkAF89CODu3oEACGwgYvAABoGrnWUOU1kXsYVaBDOzoEgArmoR0dAkAF89CODu3oEIBP2OAFAABNIwgDxVHsHkYV6NCODgGggnloR4cAUME8tKNDOzoE4BM2eAEAQNXiUqwgz7dLsqBDOzoEgArmoR0dAkAF89CODu3oEACGxgYvAACoWtQTKWzhjxEWdGhHhwBQwTy0o0MAqGAe2tGhHR0CwNCYkgAAAAAAAAAAAACQEWzwAgAAAAAAAAAAAEBGBKu6VsaSNG/2LI2bMNE9DwCJCMNQYS7nHvZCVI4kxd7mUwYy+p5PGcjoez45Gef/4EltfehW2mKvke7LGiYqR/rvjJf18iMrtdtHxrqnvUCHNu59Qoe1cXv0jSXf0gWzFJd7NHrcJPdUoiwZ0+B7PmUgY9byMQ+rR4d2boc+IqMd+eyylpF5WD3395gOa8N1aOdei74hnx0Z7bKQL8yFmjNz2oA922nTZwx4nfgEL4DUBIG8XYHn+ZSBjL7nUwYy+p5PAzOWVscqtIXuKxq7AkkKFKz9f71cdGhbzn1ChzUu3+eNKV9v/3VepowpLN/zKQMZM5aPeVjDokP78v0+ERkTWeSzr4xlZB7WsHimJLO4Du3L93lDPvsio31lId8w8QleAKnIFwoqFFrcw14oFYuKFXubTxnI6Hs+ZSCj7/nkZHzowvna6cTttemuI9yXNUypWNQL01/Sy4+s1LiPv9Y97QU6tHHvEzqsjdujbyz5Fs+foajUozHjJ7unEmXJmAbf8ykDGbOWj3lYPTq0czv0ERntyGeXtYzMw+q5v8d0WBuuQzv3WvQN+ezIaJeVfHyCFwAAbFwCSbF7EFWhQzs6BIAK5qEdHQJABfPQjg7t6BCAR9jgBQAATSNsy6ncXXYPowp0aEeHAFDBPLSjQwCoYB7a0aEdHQLwCRu8AACganE5VpCr4odCYB10aEeHAFDBPLSjQwCoYB7a0aEdHQLA0NjgBQAAVSv3RMq18McICzq0o0MAqGAe2tEhAFQwD+3o0I4OAWBoTEkAAAAAAAAAAAAAyAg2eAEAAAAAAAAAAAAgI9jgBQAAAAAAAAAAAICMYIMXAABUrbw6Uq6NP0ZY0KEdHQJABfPQjg4BoIJ5aEeHdnQIAENjSgIAgKrFcawgCNzDqAId2tEhAFQwD+3oEAAqmId2dGhHhwAwNDZ4AaRq6qn/0tRT/+UeBgAAAAAAAAAAwDCwwQsAGcMmuR0dNq8wFygqx+5hVIEO7bLUIfPQjg7t6LB5ZWke+ipLHXIv29GhHR02ryzNQ1/RoV2WOmQe2tGhHR3WV7Cqa2UsSfNmz9K4CRPd8wCQiDAMFeZyuv8TsyVJB10zwX1Jw0TlSFKsMJdzT3mjf0Y6rA0d2vXP+K8vPKq9z9tNhU3z7ssaJipHeuXfXVp001KNP3tn97QX6NDGvU/osDbNPA+XLpiluNyj0eMmuacS1cwdpoUObdx8zMPq0aGd2yH3cm2YhzZuPjqsTf+MzMPqub/HdFgbrkM7nik2bj46rA3XoU1UjhTmQs2ZOW3Anu206TMGvE58ghdAaoJAgSo/OyPXnlPl7zxZwav5vF39Mlb6lPuKxi46tK+MdRj1xApbQvcVjV1r81V+ez1ddGhbzn1ChzWupp6HKTXf1B2mtOjQtpiH9kWH9uV0yL1c42Ie2hbXYTKrX0bmYQ2LZ0oyi+vQvnim2BbPlGQW16Ftra1tOPgEL4BU5AsFFQotmnrqvxS2hDrkan/mTalYVKxYhUKLe8ob/TNOPfVfyrfnNPmqfd2XNQwd2mWtw/tOf1AHXDZB+XZ/vtqtVCxq+cKVWnTjEu1z7h7uaS/QoY17n9BhbZp5Hi6eP0NRqUdjxk92TyWqmTtMCx3auPmYh9WjQzu3Q+7l2jAPbdx8dFib/hmZh9Vzf4/psDZch3Y8U2zcfHRYG65Dm958fIIXgJeinsg9hCrF2fhxH16jQwCoYB7a0aEdHQLNIY64ma2Yh3Z0CAAVzEM7OrSjw/phgxdA6nJt/nz1XVZFRTbJregQACqYh3Z0aEeHQHOISvwXPCvmoR0dAkAF89CODu3osH7Y4AWQumq+jzwGl2thfFvRoU15TaRcKx1a0KEdHSaDeWhHh3Z0aMM8tKPDZHAv29GhHR3aMA/t6NCODpPBPLSjQzs6rB+aBQAAVYujWEHIV2tY0KEdHQJABfPQjg4BoIJ5aEeHdnQIAENjgxdA+vgDmllYYHxb0SEAVDAP7ejQjg6B5sC9bEeHdnQIABXMQzs6tKPD+qFZAOmL+LlMZkxvOzoEgArmoR0d2tEh0Bz4Wl475qEdHQJABfPQjg7t6LBuqBYAMihaww+nt6LD2vn8rZJyraHKGfi9pUM7OkwO89CODu3osHbMQzs6TE7Uk52svmIe2tFh7ZiHdnRoR4fJYR7a0aEdHdYPG7wAUhe2MnqsQn44vRkd1q68JlLO0/s4CAPFGfguAXRoR4fJYR7a0aEdHdaOeWhHh8nhXrajQzs6rB3z0I4O7egwOcxDOzq0o8P6oVkAqQtyfn4VXpYEeTq0okMAqGAe2tGhHR0CzYF72Y4O7egQACqYh3Z0aEeH9cMGL4DUlVeX3UMAAAAAAAAAAAAYBjZ4AaQuzDN6rMICHVrRIQBUMA/t6NCODoHmEPLdmsyYh3Z0CAAVzEM7OrSjw/oJVnWtjCVp3uxZGjdhonseABIRhqHCXE73f2K2WrYoaL8Lx7kvaZioHEmKFeZy7ilv9M9Ih7WhQ7vejOWVsR7+1gLtd8me7ksaKipHWvXsai385TPa5yu7uae9QIc2/e+T4vISHdaomefh0gWzFJd7NHrcJPdUopq5w7TQoQ3z0I4O7dz7hHu5NsxDGzcfHdamNyPvU2rDMyUZXId2PFNs3Hx0WBuuQ5uoHCnMhZozc9qAPdtp02cMeJ34BC+A1ASBAlW+mjuQVPk7T1bwaj5vV7+MWju813lNIxcd2leGOozLlZ+l7d2qDJe1c8bTRYe21e8+oUPDaup5mFLzTd1hSosObYt5aF90aF/OfcK9XONiHtoW12Eya21G5mGNi2dKMovr0L54ptgWz5RkFtehba2dM8PBJ3gBpCJfKKhQaNHUU/+l9tFtesOF492XNEypWFSsWIVCi3vKG/0zTj31X+rcvl37XfA692UNQ4d2WeowWiE9eNF8Tbp0gvuShioVi+p6tluP/3yRV7+3/dGhTf/7ZM2LPXRYo2aeh4vnz1BU6tGY8ZPdU4lq5g7TQoc2zEM7OrRz7xPu5dowD23cfHRYm96MvE+pDc+UZHAd2vFMsXHz0WFtuA5tevPxCV4AXopKkXsIAAAAAAAAAAAAw8AGLwBkUFyO3UOoEh3WLo5jBdV8v5A0BZIy8FtLh3Z0mBzmoR0d2tFh7ZiHdnSYnKiYobCeYh7a0WHtmId2dGhHh8lhHtrRoR0d1g8bvABSlysweqyCnKd/0M0QOqxdeXWkXJuf93G+LafS6rJ72Dt0aEeHyWEe2tGhHR3WjnloR4fJCQvcy1bMQzs6rB3z0I4O7egwOcxDOzq0o8P68XNSAmhqQZ6hDgAAAAAAAAAAUAs2eAGkLirxbRmsQjbJzegQACqYh3Z0aEeHQHPgXrajQzs6BIAK5qEdHdrRYf2wwQsAGRTyba7N6BAAKpiHdnRoR4dAc+BetqNDOzoEgArmoR0d2tFh/dAsgNTxVTt2UTFyD6FKdFi7ck+kXAt/hLCgQzs6TA7z0I4O7eiwdsxDOzpMTnk197IV89CODmvHPLSjQzs6TA7z0I4O7eiwfpiUAJAhUU/lgci3ua4dHdrF5VhBji/UsKBDOzq0Yx7a0aEdHdoxD+3o0K73Xo5j7uVaMQ/t6NCOeWhHh3Z0aMc8tKNDOzqsPzZ4AaSGYW4XlenQig4BoIJ5aEeHdnQINAfuZTs6tKNDAKhgHtrRoR0d1h8bvABS0/vtGPi2XQAAAAAAAAAAALUJVnWtjCVp3uxZGjdhonseABIRhqGiHmn6Zx5RyxYF7XfhOPclDROVI0mxwlzOPeWN3oylVyL965x56tiuTft8ZTf3ZQ1Dh3ZZ6nDlE936z01LNf7zr3Vf0lBROVLPsh7N/e6TXs2Y/ujQpv99suLxlXRYo2aeh0sXzFJc7tHocZPcU4lq5g7TQoc2zEM7OrTr32HPy8XKvTymTft8lXu5GsxDm0GvQzqsWm9G3qfUhmdKMrgO7Xim2PBMSQbXoU1UjhTmQs2ZOW3Anu206TMGvE58ghdAaoJAKq39/0oKfFpBJZ/Xa21GRZWfQVJeE7mvaOyiQ/vKUIfl1bHybaF7tvErkIKWUCp5NmP6Lzq0rX73CR0aVlPPw8qfNOq+mrrDlBYd2hbz0L7o0L76ddh3L68uu69q7PL9Xhbz0LwGuw7psPq1NiPzsMbFMyWZxXVoXzxTbItnSjKL69C2KrUNC5/gBZCKfKGgaIX0wNmz1bpliyZdOsF9ScOUikXFilUotLinvNGbkQ5rR4d2vRlXzOvW81OWavxndnVf0lClYlHF7pJmnTtfk6/a1z3tBTq06X+fvDh7OR3WqJnn4eL5MxSVejRm/GT3VKKaucO00KEN89CODu36d7jmxR7u5RoxD224DpPRm5H3KbXhmZIMrkM7nik2PFOSwXVo05uPT/AC8E8giZ+vXrPS6rJy7X5++4isoEMAqGAe2tGhHR0CzYF72Y4O7egQACqYh3Z0aEeH9ccGL4DUROVYhc68yt1l9xSGK67skcOADgGggnloR4d2dAg0B+5lOzq0o0MAqGAe2tGhHR3WHRu8AFIT9UQKWxk7FnEcM7mN6NAu6okUtlCiBR3a0aEd89CODu3o0I55aEeHdnEcK8gFist8u6ZaMQ/t6NCOeWhHh3Z0aMc8tKNDOzqsP+oFgAwpr47UsmmLyqsj9xSGiQ7t4lKsIM/X4FnQoR0d2jEP7ejQjg7tmId2dGhXXh2pZbOCojXcy7ViHtrRoR3z0I4O7ejQjnloR4d2dFh/bPACSE1cjhWE/AHNKgglRXxlvAUdAkAF89CODu3oEAAqmId2dAgAFcxDOzq0o8P6YoMXQGrKPZHyHTlFfNuumrFJbkeHAFDBPLSjQzs6BJoD97IdHdrRIQBUMA/t6NCODuuPDV4Aqcq1hIp6+LYMtSr3RMrxc4xN6DAJsST+gGZDh3Z0aMU8tKNDOzpMAvPQjg6tuJft6NCODpPAPLSjQzs6tGIe2tGhHR3WH+0CSA1ftQM0h1J3pHw7f4SwoEM7OgSACuahHR0mI8gHfLcmIOOYh3Z0aEeHADA8TEoAqeGrduziYqTCyIJKq8vuKQwTHTa3XGuo8hq+S4AFHdplpUPmoR0d2tFhc8vKPPRZVjqMi5HyHXm+W5MB89CODptbVuahz+jQLisdMg/t6NCODuuPnRYAyJCoGCtsCSrfrQY1ocPmFoSB4ojfXAs6tMtKh8xDOzq0o8PmlpV56LOsdBgVY4UFvluTBfPQjg6bW1bmoc/o0C4rHTIP7ejQjg7rjw1eAOmJYikMFPJzeAEAAAAAAAAAAGoSrOpaGUvSvNmzNG7CRPc8ACQiDEMtm/mKls1ZoZfnvKKJF+6hfHvOfVlDROVIUqww50eewfRmfOGfy7XyyVVacu8yHXTNBPdlDUOHdlnqcPFdL6nnpR7t+K4x7ksaqjffA598xKvf2/7o0Kb/ffLc3/9LhzVq5nm4dMEsxeUejR43yT2VqGbuMC10aMM8tKNDu/4dLrl3GfdyjZiHNlyHyejNyPuU2vBMSQbXoR3PFBueKcngOrSJypHCXKg5M6cN2LOdNn3GgNeJT/ACSE0QSArU+027Ap9WUMnn9VqbUWUpyAVSIAXxOq9q3KJD+8pQh3EpVpgP3bONX72/x77NmP6LDm2r331Ch4bV1PMwpeabusOUFh3aFvPQvujQvvp12Hsvhy2h4p7YfWXjlu/3spiH5jXIdUiHNay1GZmHNS6eKcksrkP74pliWzxTkllch7ZVGTPDwid4AaQiXyho2b9e0UtzV+jFh17WAZdN8OYTvKViUbFiFQot7ilv9GZ84d7l6npmlZY+sIwOq0SHdr0Zn//bMpVXlbTTidu7L2mo3nz3f2K2Dv35fu5pL9ChTf/75D+3LabDGjXzPFw8f4aiUo/GjJ/snkpUM3eYFjq0YR7a0aFd/w6fu+sF7uUaMQ9tuA6T0ZuR9ym14ZmSDK5DO54pNjxTksF1aNObj0/wAvBKeXWkXBtjx6K8uqxcqx8Pw6yiQwCoYB7a0aEdHQLNgXvZjg7t6BAAKpiHdnRoR4f1x04LgNTl2nMqd5fdwxiGOJYCJrcJHQJABfPQjg7t6BBoDtzLdnRoR4cAUME8tKNDOzqsP+oFkJ44rnz//UBS7J4EkBXlVSXlOvLuYVSBDu3oEAAqmId2dAgAFcxDOzq0o0MAGB42eAGkprQ6Up5v0WzS94fcMJAidslrQYfNLwgDxfzemtChXRY6ZB7a0aEdHTa/LMxD32Whw957OWwNVV7Nd2uqBfPQjg6bXxbmoe/o0C4LHTIP7ejQjg7rj50WAMigXFuo8urIPYwq0GHzyrWGKq/h99aCDu2y1CHz0I4O7eiweWVpHvoqSx0GuUDKRlRvMQ/t6LB5ZWke+ooO7bLUIfPQjg7t6LB+2OAFkLog8P8r3QAAAAAAAAAAAHzEBi+A1PR+W4ZcW3a+0g0AAAAAAAAAAMAnbPACAICqRMVYYSFwD6MKdGhHhwBQwTy0o0MAqGAe2tGhHR0CwPCwwQsAGVIuxsoVAgVhoKjMt7muBR3aRaVIYZ4/QljQoR0d2jEP7ejQjg7tmId2dGjXey/n23IqrS67pzEMzEM7OrRjHtrRoR0d2jEP7ejQjg7rj0kJABkSlyIF+VC51lBRD9/muhZ0CAAVzEM7OrSjQ6A59N7LCiTx3+9qwjy0o0MAqGAe2tGhHR3WHxu8AFIXFkJFRYY6AAAAAAAAAABAtYJVXStjSZo3e5bGTZjongeARIRhqKf/32K1bd2mF2e+rLFv30ab7NLpvqwhonIkKVaYy7mnvNGb8ak/LFbHdm1aPPVF7faRserYrs19aUPQoV0WO9zm0C3dlzRUb75/fW6+Jl64h/Lt/nVJhzb975Mn/u9ZOqyRex020zxcumCW4nKPRo+b5J5KVDN3mBY6tGEe2tGh3WAdci9Xj3low3WYDPc6ZB5WZ7DrkA6rx3Vo53bIPKzOYPcyHVaP69AmKkcKc6HmzJw2YM922vQZA14nPsELIDVBoDiSwlxQ+VufVlDJ5/Vam7G3OzqsYdGhffV2GEuBj1md32MvFx3aVr/7hA4Nq6nnYUr/Nk3dYUqLDm2LeWhfdGhf/TvszRis7dOX5fu9rHV/n737/fa9w0GuQzqsYfVeh8zD2lb/65AOa19ch/blZPQuq+/zsP+9TIe1L65D26pUNix8ghdAKvKFgp76/fPq3L5DSx94UTuduL023XWE+7KGKBWLihWrUGhxT3mjN+OT//e8Ru7YoeenvqBdP7ijRu7Y4b60IejQLksdLvzFM9pywmbaetIW7ksaqjffv86ep9dfsKdaNim4L2k4OrTpf5/M+/ETdFijZp6Hi+fPUFTq0Zjxk91TiWrmDtNChzbMQzs6tOvf4YJfPa2RO3Zoyf2816sW89BmsOuQDqvXm5H3KbXhmZIMrkM7nik2PFOSwXVo05uPT/ACQJMprykr15rj5xgb0GHzCwqB4mLsHkYV6NAuCx0yD+3o0I4Om18W5qHvstBh772M2jEP7eiw+WVhHvqODu2y0CHz0I4O7eiw/tjgBZC6XFtO5dVl9zAAAAAAAAAAAACGwAYvgNRExVhhofJ95GO/v9ANAAAAAAAAAADAS2zwAkhNVIoU5hk7AAAAANCMglyguMxX8wIAAAD1xk4LAGQQP7vAjg5rF/XEClsC9zCqQId2dJgc5qEdHdrRYe2Yh3Z0mJxcS6hyD/eyBfPQjg5rxzy0o0M7OkwO89CODu3osH7Y4AWQvjCQIr6quxbl1ZHC1lBhPlBUosNa0KFdXIoU8Gl8Ezq0o0M75qEdHdrRoR3z0I4O7XrvZdSOeWhHh3bMQzs6tKNDO+ahHR3a0WH9MSkBpC7XFqq8mq/aqUkUK8jxVYwmdAgAFcxDOzq0o0OgOXAv29GhHR0CQAXz0I4O7eiw7tjgBZCauCwFOfcoAAAAAAAAAAAAhosNXgCpidaUFbaywwsAAAAAzSgohIr5GWsAAABA3bHBCwAZFLaGitbwH04s6LB2cSwFHn+HlXxbTqXVZfewV+jQjg6Twzy0o0M7Oqwd89CODpMTFgJFRX7GmgXz0I4Oa8c8tKNDOzpMDvPQjg7t6LB+2OAFkLowFyoqM9RrEZVjhblAQS5QXOY/nNSCDu3Kq8vKtXn8afxAkue/tXRoR4d2zEM7OrSjQzvmoR0d2vXey6gd89CODu2Yh3Z0aEeHdsxDOzq0o8P6C1Z1rYwlad7sWRo3YaJ7HgASEYahFvzoP9r60K308pwV6tiuTdscuqX7soaobDbHCnP+/uGxN+Oj331KY9++jRZPfVFb7LWJtnrDZu5LG4IO7bLY4Sa7dLovaajefLO/9W/t9pGx6tiuzX1Jw9GhTf/7ZO6l/6bDGrnXYTPNw6ULZiku92j0uEnuqUQ1c4dpoUMb5qEdHdoN1iH3cvWYhzZch8lwr0PmYXUGuw7psHpch3Zuh8zD6gx2L9Nh9bgObaJypDAXas7MaQP2bKdNnzHgdeITvABSEwSKFfQNncCnFVTyeb3WZny1O89apEP7ymSHni3f8ykDGTOSL/DvDn51+d6hBsvoWVrTPEzp36WpO0xp0aFt9cvnWXOvrnV+jz1bdGhfg3boWVrf72UN9vtMh1UtrsNk1jrXoWcrI/kC/66+V5fvHSoDGX3Pp8EyepbW93k46L1Mh1UvrkPbqhQ2LHyCF0Aq8oWCHrnsCe104vZa+sCL6ty+Q2MOG+W+rCFKxaJixSoUWtxT3ujN2Nvhc3ct1ZYTNtPWk7ZwX9oQdGiXxQ433XWE+5KG6s338Dce17iPv1ad27e7L2k4OrTpf588dOF8OqyRex020zxcPH+GolKPxoyf7J5KVDN3mBY6tGEe2tGh3WAdLrnvvxr52hHa9n+2cl/eEL7fy2Iemg12HdJh9dzrkHlYncGuQzqsHtehndsh87A6g93LdFg9rkOb3nx8ghcAmlSuNafymrJ7GFWgQwCoYB7a0aEdHQLNgZ+xZsc8tKNDAKhgHtrRoR0d1g8bvABSF7aEDHWjIJTiyD2KatBh7co9kXIt/BHCgg7t6DA5zEM7OrSjw9oxD+3oED5hHtrRYe2Yh3Z0aEeHyWEe2tGhHR3WD5MSQOrCXMBQr1FpdVn5Nj9/AHxW0KFdXI4V5Kr4gRBYBx3a0aEd89CODu3o0I55aEeHdtzLdnRoR4d2zEM7OrSjQzvmoR0d2tFh/bHBCwBZEktrfzI9akWHAFDBPLSjQzs6BJoD97IdHdrRIQBUMA/t6NCODuuODV4AqSmviZRrZewAqK8gDBRH/Ow3Czq0o0MAqGAe2mWpQ37GGoB6ytI89BUd2tEhAF+w0wIgNXEUKwj5sp0k5NpyKq/mP5xY0GHzyrWGKq/h+8Bb0KFdljpkHtrRoR0dNq8szUNfZalDfsaaHfPQjg6bV5bmoa/o0C5LHTIP7ejQjg7rhw1eAKnLdeRVXlVyD6MKQSDFfLGgCR3WLo4q//EOtaNDOzpMDvPQjg7t6LB2zEM7OoRPmId2dFg75qEdHdrRYXKYh3Z0aEeH9cOoBIAMiYqxwgKfgragQ7vymrJyrTn3MKpAh3Z0aMc8tKNDOzq0Yx7a0aEd97IdHdrRoR3z0I4O7ejQjnloR4d2dFh/bPACSB3ftqt2USlSmGd0W9AhAFQwD+3o0I4OgebAvWxHh3Z0CAAVzEM7OrSjw/qjXQCpiXoihS2hcq05ldfwffcBAAAAoJnw43gAAACAdLDBCyA1UTlWmOPbMiSB/3BiR4cAUME8tKNDOzoEgArmoR0dAkAF89CODu3osH6CVV0rY0maN3uWxk2Y6J4HgESEYahZ5y/QhLN30cvzXtGKf6/SLh/c3n1ZQ0TlSFKsMOfvz/fozdjb4dLpLyvqLmns27d1X9oQdGiXxQ5btii4L2mo3nyPfvcpjX37Ntpkl073JQ1Hhzb975N/nTuPDmvkXofNNA+XLpiluNyj0eMmuacS1cwdpoUObZiHdnRoN1iH/525XD3Le7TjiWPclzeE7/eymIdmg12HdFg99zpkHlZnsOuQDqvHdWjndsg8rM5g9zIdVo/r0CYqRwpzoebMnDZgz3ba9BkDXic+wQsgNUGgymd3A4WFnOJipMCXFfTm83j1ZowkhYFy+UBRSe6rGrfo0L4y1GHcEytsCd2zjV9r81UmjaeLDm2r331Ch4bV1PMwpeabusOUFh3aFvPQvujQvvrfJ733ckuoqCd2X9m45fu9LOaheQ12HdJh9WttRuZhjYtnSjKL69C+eKbYFs+UZBbXoW1Vxsyw8AleAKnIFwqa+aX52veLe2j54yv14uyXNe7jr3Vf1hClYlGxYhUKLe4pb/RmnP6ZR3TAZRO09IFl6npmlXb9wA7uSxuCDu2y2GG+3a+vdOvN98hlT2inE7fXpruOcF/ScHRo0/8+ue/0B+mwRu512EzzcPH8GYpKPRozfrJ7KlHN3GFa6NCGeWhHh3aDdci9XD3moQ3XYTLc65B5WJ3BrkM6rB7XoZ3bIfOwOoPdy3RYPa5Dm958fIIXgFfiUqwgHyhsCRWtidzTAJCIsCVU1MOMsaBDOzoEgArmoV2WOsy1hiqvzkZWANmTpXnoKzq0o0MAvmCDF0Bqop6o8i1W8oHicuyeRhXy7aFK3fxh0oIOm1eYCxQxY0zo0C5LHTIP7ejQjg6bV5bmoa+y1GEQBorjbGT1FfPQjg6bV5bmoa/o0C5LHTIP7ejQjg7rhw1eAMikQFI2/jDpLzoEgArmoR0d2tEh0AyCUIrL7lFUh3loR4cAUME8tKNDOzqsFzZ4AaQu35ZTaTXv+i2CfKC4xIPRgg5rF0exgjBwD6MKdGhHh8lhHtrRoR0d1o55aEeHyQnbcorW8F7PgnloR4e1Yx7a0aEdHSaHeWhHh3Z0WD9s8AJIH1+0U7Pymki51pCf92FAh3a9HaJ2dGhHh3bMQzs6tKNDO+ahHR3a0aEd89CODu24l+3o0I4O7ZiHdnRoR4f1x6QEkJo4loKg8lfMTK8JX8VoR4cAUME8tKNDOzoEmkPvvZxrCVXmP+DVhHloR4cAUME8tKNDOzqsPzZ4AaSmvLqsXFtOubacynzbLpN8W6jSav7DiQUdAkAF89CODu3oEGgOQS5QXObbNVkwD+3oEAAqmId2dGhHh/XDBi8AZFEQVD4SjdrRIQBUMA/t6NCODgGggnloR4cAUME8tKNDOzqsGzZ4AaSOH6xux1fG29EhAFQwD+3o0I4OgeaQb8+p1M13a7JgHtrRIQBUMA/t6NCODuuHDV4AqcsVQpWLfFuGavX/uQX8bKva0KFdeU2kXCt/fLCgQzs6tGMe2tGhHR3aMQ/t6NCOn69mxzy0o0M75qEdHdrRoR3z0I4O7egwHUxLAMgI/pBrR4d2WfgPeLn2nMoef3KEDu3o0I55aEeHdnRoxzy0o0O7/vdymA8U8d2aqsY8tKNDO+ahHR3a0aEd89CODu3oMB3Bqq6VsSTNmz1L4yZMdM8DQCLinlizvvS4DrjydSquLOmhry7Q/t/Z031ZQ0TlSFKsMJdzT3kjKkcqdZf10PkL9IYrXqc1L/Zo7nee0Ou/vYf70oagQ7ssduib3g4X/vJZbbHXJtrqDZu5L2k4OrTpzRf1SLPOnU+HNXKvw2aah0sXzFJc7tHocZPcU4lq5g7TQoc2zEM7OrQbrMOeZUXNvnSh9rtwnPvyhvD9Xhbz0Gyw65AOq+deh77J4jz0je8diuswEW6HzMPqDHYv02H1uA5tonKkMBdqzsxpA/Zsp02fMeB14hO8ANISK1AQSIEChblQcTlW4MsKKj/s3esVSFr7BYyVvw+lmA6rWnRoX26Hvq2+Dr1NSIfW1e8+8TSh/x1qkOuwqeZhSr03dYcpLTq0LeahfdGhfQ3SYf//14vl+70s5qF5DXId0mENy70OfVsZnIfeLd87FNdhIsvtkHlY3RrsXqbD6hfXoW2t7W44+AQvgHSUQs06d74mX7WvSt1lTfv8bE2+al/3VQ1RKhYVK1ah0OKe8kapWFSxu9TXYc/LRc38+qM68PK93Zc2BB3aZbFD3/R2uPAXz2jLCZtp60lbuC9pODq06c0XlHJePUf6871DDXIdNtM8XDx/hqJSj8aMn+yeSlQzd5gWOrRhHtrRod1gHZa6ypr2xdma/H0/+vT9Xhbz0Gyw65AOq+deh77J4jz0je8diuswEW6HzMPqDHYv02H1uA5tevPxCV4AXsq35VRa7e/PqsiCsDVUxA+nN6HD2sTlWEGuii8lwzro0I4Ok8U8tKNDOzqsDfPQjg4TFkriVjZhHtrRYW2Yh3Z0aEeHyWIe2tGhHR3WDxu8ANIXSIrdgxhKtCZSrs3Pnw2QFXRoF/fEClv544MFHdpFayI6NGIe2tGhHR3aMQ/t6NCuvLrcdy8HYaCozJu9ajEP7fpfh6gN71PseKbYcR3a8Uyx45lix3WYDqYlgFREPbHCln4jh03e6kWvTu1ca6jyGr7yqWp0CAAVzEM7OrSjQ6A5OPcyn9CoAfPQjg4BoIJ5aEeHdnSYCjZ4AaSjHCvIv/otVvg2zTZBGCiO2CG3oEMAqGAe2tGhHR0CQAXz0I4OAaCCeWhHh3Z0WD9s8AJARvFwtKNDAKhgHtrRoR0dAs0hbOFTGlbMQzs6BIAK5qEdHdrRYX2wwQugIYJcoJifzWTCt7ewo8PmFITMFys6tMtah8xDOzq0o8PmlLV56KOsdRjm+A94VsxDOzpsTlmbhz6iQ7usdcg8tKNDOzqsDzZ4ATRE2BoqYqhXJSpFCvOMbQs6tCuvKSvXmnMPeyXXGqrs8c9+o0M7OrRjHtrRoR0d2jEP7ejQbp17OVz7c9cwbOt0iKrRoR3z0I4O7ejQjnloR4d2dJgOGgaQiqgcK8y9+jN4Ub2oGCssvNph2MImebXo0C6OpIA/PZjQoR0d2jEP7ejQjg7tmId2dGjn3su5tpzKq8sDXoMNcztkHlaPDu2Yh3Z0aEeHdsxDOzq0o8N0MC4BpCLqiRS2vDpycoVQ5SJD3SLIZ+tbwviIDgGggnloR4d2dAgAFcxDOzoEgArmoR0d2tFhfbDBC6AhgnyguMRQtwiCQHFMhxZ0CAAVzEM7OrSjQ6A5hIVQEV/Ma8I8tKNDAKhgHtrRoR0d1gcbvACQUbm2UOXV/IcTCzoEgArmoR0d2tEh0BzCfKCIL+Y1YR7a0SEAVDAP7ejQjg7rI1jVtTKWpHmzZ2nchInueQBIxOrni1r4y2e0z1d2kyTNufjf2vHEbTRy5073pamLypGkWGEu557yRlSOtOqZ1Vr462e0z5crHT50wQLt9pGx6tiuzX156ujQLisddi3q1hO/e057n7ere7rhejt86g+L1bFdm7Y5dEv3JQ1Hhza9+bqf7dHC3zxDhzVq5nm4dMEsxeUejR43yT2VqGbuMC10aMM8tKNDu958q58vasEv/sO9XCPmoQ3XYTIi3qeY8ExJBtehHc8UG54pyeA6tInKkcJcqDkzpw3Ys502fcaA14lP8AJISxxLQRiob4WS4n5/38gVSArWOerXCqRyT6R8W67vWK4lVNQTu69szKJD+8pIh1ExVq4ldM/4sdZ2KMk948+iQ9tamy/qoUPTaup5mFLzTd1hSosObYt5aF90aF9r85VXD7yX8+05lbsj99WNWb7fy2Iemtd6rkM6rHLxPsW2eKYks7gO7Ytnim3xTElmcR3aVmXMDAuf4AWQilVP98Pjel8AABmXSURBVGjRjUu0z7l7SJIeumi+dnrH9tp0txHuS1NXKhYVK1ah0OKe8kapWNTyhSsHdnjhfO104vbadFc6HA46tBusQ5/0dvjU759X5/YdGnPYKPclDUeHNr35Vj3Voyeve4YOazTYddgs83Dx/BmKSj0aM36yeypRzdxhWujQhnloR4d26+uQe7k6zEMbrsNkDHYd+iSr89AnvncorsNEDNYh83D41ncv02F1uA5tevPxCV4A3sq35VRaXXYPoxpBUPloNGpHhwBQwTy0o0M7OgSaQpALFJe5l02Yh3Z0CAAVzEM7OrSjw7pggxcAMirfFqrED6c3ocPmFLaEinr4fbWgQ7usdcg8tKNDOzpsTlmbhz7KWoe5llDlDOX1EfPQjg6bU9bmoY/o0C5rHTIP7ejQjg7rgw1eAA0R5ALFJb5qB0DywlygiE+NmNChHR0CQAXz0I4OAaCCeWhHh3Z0CMAXbPACaIiwNVtf7eaDqCdW2PLq2M7aVwz6gA7tyqsj5dpy7mFUgQ7tyqvLdGjEPLSjQzs6tGMe2tGhXdQTDbyXW3OK+HE8VWEe2q1zHdJh1XifYsczxY7r0I5nih3PFDuuw3SwwQsgFeXuSLl2/oBmEZVjhbmg7++DPJ+CrhYd2sVx5cdmoHZ0aEeHdsxDOzq0o0M75qEdHdqtcy/npJj/fleVdTpkHlaNDu2Yh3Z0aEeHdsxDOzq0o8N0sMELIBWxpP5/PgsLoaIi7/ptgrXNonZ0CAAVzEM7OrSjQ6AZBEGgOOJetmEe2tEhAFQwD+3o0I4O64ENXgANEeYDRXzVjkm+PVSpm01yCzoEgArmoR0d2tEh0BxybaHKa7iXLZiHdnQIABXMQzs6tKPD+mCDFwAAAAAAAAAAAAAygg1eAA2Ra82pvKbsHsaGRLEUvvqNrvk21zWgQ7typCDPHx9M6NAsLtGhGfPQjg7t6NCMeWhHh3Zx2bmXW0JFPdzLVWEemq1zHdJh9XifYsYzJQFch3Y8U8x4piSA6zAVTEsAqYh7ygpbc31/H4RSzEyvSrQmUq7t1bHNt7muHh3aRT2xwpZX/4CG6tGhHR3aMQ/t6NCODu2Yh3Z0aLfOvZwLFJW5l6uxTofMw6rRoR3z0I4O7ejQjnloR4d2dJiOYFXXyliS5s2epXETJrrnASARy2au0MuPdGm3j4yVJP3nhuf1zF9e0HZHj3Jfmro4qjxcgn5fVeSbOIrVsV0rHRrQod1gHfokKkeSYj3z56Xe/L666NCm9z4Z8Zp2LZvzCh3WaLDrsFnm4RotkMKiWqPXuacS1cwdpoUObZiHdnRot74OuZerwzy04TpMxmDXoU+yOg994nuH4jpMxGAdMg+Hb333Mh1Wh+vQJo5iBWGgFWP/M2DPdtr0GQNeJzZ4AaTlofMXatPdOrXbR3boO/bsX5YOeE2jxHGsWFIY+DnUJemZvy5VWAjp0IAO7dbXoS+iqKxYUi7MefP76qJDmziO9ezfXlCuEGoTOqzZ+q5DX/Ja5mF3ab7ioKiO3F7uqUQ1c4dpoUMb5qEdHdptqENf8vp+L4t5aMZ1mIz1XYe+yPI89IXvHYrrMBHr69CXvL7Pww3dy3Q4fFyHNnEcS0GgZaOeYIMXgB/+9dnHtNXEzTTu4691TzVcqVhUrFiFQot7yhvP3rVET/zhWTo0oEM7OrSjQ5tSsajF976oJ//wHB0aNPN1uHj+DEWlHo0ZP9k9lahm7jAtdGjDPLSjQzs6TAbz0IbrMBlchzZch8ngOrSjQxvu5WRwHdr05pszc9qQG7z8DF4AqYh6+IG7FrnOHB0a0aEdHdrRoV2eDs24Du3o0I4O7ZiHdnRoR4d2zEM7rkM7rkM7rkM7rkM7OrTjXrbjOkwPG7wAUhPmGTm1KnTkJEm51sr/RfXo0K63w3wbHdaKDu3yHfnK/6XDmjEP7ejQjg7tmId2dGjX2yH3cu2Yh3Zch3a8T7HjmWLHdWjHM8WOZ4od12F62G0BkJqw4Of3tc+CfGflgRgwtWtGh3a9HYpbuWZ0aJfvXHsT02HNmId2dGhHh3bMQzs6tOvtkHu5dsxDO65DO96n2PFMseM6tOOZYsczxY7rMD1UDHjmC+d9WZMOPVyTDj1cF33ncve0urq7df7Xv6E3HnWMjnvnu/SnG/884PxQ//z6LF68RIcdfazOPPsc99SwzX9sgc783Nk6/C3H6F3vP1k33XKL+xLUKD+i8tVjqB0d2tGhHR3aFejQjOvQjg7t6NCOeWhHh3Z0aMc8tOM6tOM6tOM6tOM6tKNDO+5lO67D9LDBC3jmkm99Qw9MnaIT3368e0qSdOUPfqhly5bp+mt/qwu+fL5+cM3VeujhOX3nh/rn1+eSK67Unnvs7h6uyo233KpTPnCybv3T9fri5z+vK6/6oR6ePdd9GWrQ+60tUDs6tKNDOzq0y9OhGdehHR3a0aEd89CODu3o0I55aMd1aMd1aMd1aMd1aEeHdtzLdlyH6WGDF8iQUqmkv905RR879cPacostNHGfvfWmww7XbXfc4b60Knfedbfa21p1wP77uae07KWXdN7Xvq4jjzteJ5z0Xl37x+vcl/T54ufO0sR99lZ7e7tev+8+2mO33bVg4cK+81FPPOD1GL6wpTKu6bB2dGhHh3Z0aEeHdnRoR4d2dGhHh3Z0aEeHdnRoR4d2dGhHh3Z0aEeHdnRoR4fpqTQNIBOeX7xE3d3d2m3XXfqO7brLLnriqacGvK4aXV1duvqnP9OZp3/SPaU4jnXOeV/RFptvruuv/Z2uuOxi/emmm3T/Px9wXzpAFEV6ePZcPfHU09pv4j59x0vd5QGvQ/XKa+jQig7tyj10aEWHdnRoxzy0o0M7OrRjHtrRoR33sh0d2tGhHfPQjg7t6NCOeWhHh3Z0WH9s8AIZ0t29SpLU0d7ed2zEiE51dVWO1+L7V/9YJ7ztrdp61Cj3lBY+8YSefPppnfWpMzRy5AjtOHas3vOuE3Xn3VPdl/a57IorddBhb9Jpnz5T7zvpRO20445956JiNOC1qF55DR1a0aFdeTUdWtGhHR3aMQ/t6NCODu2Yh3Z0aMe9bEeHdnRoxzy0o0M7OrRjHtrRoR0d1h8bvEAD3XDTnzXp0MM16dDD9ckzz3JPr6O9vUOStKq7u+/YypVd6uysHK/Wo/Pmac7cuXrPie90T0mSFi9eopUrV+rgI47UQYe9SQe+8QhdevmVWrJ06Xqzf/4zZ+q+KX/TL675kW68+Vbd8pe/9J0rdZX6/v+oDR3a0aEdHdrRoR0d2tGhHR3a0aEdHdrRoR0d2tGhHR3a0aEdHdrRoR0d2tGhHR3WHxu8QAO9/fi36YGpU/TA1Cn64ZWXu6fXse02o9XW1qYFj7/6c20fX7hQr+33KdlqPLbgcf37iSc1+fA3a9Khh+uHP/6ppk2fof9589GSpNFbj9JWW22p+6b8Tfff9Xf98+479cDUKfrB5d/ZYPZcLqc9dt9Nhx4yWQ89OLvveLGLb8tgRYd2dGhHh3Z0aEeHdnRoR4d2dGhHh3Z0aEeHdnRoR4d2dGhHh3Z0aEeHdnRoR4f1xwYvkCH5fF5HHnG4fvLzX+jFZcs066GH9fe7puiYo45yX7peZ559jq756c8lZ4P5galT9MmPf1QHvGF//eNvlU/d7rLzztpm9Gh974c/0ksvvazly5fr5ttu13U33OT8qtLyFSt08Xev0KJnntWanh7NnjNXU+7+hybs9bq+1/BVO3Z0aEeHdnRoR4d2dGhHh3Z0aEeHdnRoR4d2dGhHh3Z0aEeHdnRoR4d2dGhHh3Z0WH9s8AKeueanP9ekQw/XdTfcpBv/fHPlk7XX/KTv/JmfOl2bb7653vGe9+vLF3xTZ3ziNO2z917D/uerEYahLvnWN/TSspf1vg+fqvec8mHNmfuI3nz4G92XatNNNtGE8a/TF877so487nh96+JLddKJ79Dbjju27zVFhroZHdrRoR0d2tGhHR3a0aEdHdrRoR0d2tGhHR3a0aEdHdrRoR0d2tGhHR3a0aEdHdZfsKprZSxJ82bP0rgJE93zAJCIfL6gQkuLe9gLpWJRsWIVCn7mU2/GOKZDAzq0o0M7OrTpy5dvkQL3rB9871BNfh0unj9DUalHY8ZPdk8lqpk7TAsd2jAP7ejQjg6TwTy04TpMBtehDddhMrgO7ejQhns5GVyHNr355sycNmDPdtr0GQNeJz7BCyA1nj4UM4UO7ejQjg7t6NCODu3o0I4O7ejQjg7t6NCODu3o0I4O7ejQjg7t6NCODu3o0I4OU8EneAGkor2j0z0EAACQqLQ+wQsAAAAAAFAvsx64Z8hP8A7Y4AUAAAAAAAAAAAAANM6wN3gBAAAAAAAAAAAAAP4YbIOXn8ELAAAAAAAAAAAAABnBJ3gBmC2dcZ17aICt9z/RPQQAAAAAAAAAAIAh8AleAAAAAAAAAAAAAMgwNngBAAAAAAAAAAAAICPY4AXQEF3d3Tr/69/QG486Rse98136041/dl8CSV8478uadOjhmnTo4broO5e7pxPt8elFi3TGWZ/TYUcfq3e+92Tdedfd7ksyaeo99+jU007XYUcfq5NP/ajuue/+AefpcGjzH1ugMz93tg5/yzF61/tP1k233DLgPB0O3+LFS3TY0cfqzLPPGXCcDjfss1/8Ut8snHTo4TrimLcOOE9/w3fbHX/VSSd/UEccfawuvPS7WrNmTd85etywcrk84Drs/evy7/+g7zV0OLRFzzyrT3+28kw59u0n6ns/vFpRFPWdp8MNG+rfif6GZv3z9VDnq5HVjofqcKjzdFgxVE+8j9mwofrjPczwDNVjL97HDG6o/ngfMzxD9SjexwxpQx3yPmZoG+pPvIcZtqF6HOrfbWPvsf+f/YaLDV4ADXHlD36oZcuW6fprf6sLvny+fnDN1Xro4TnuyzZ6l3zrG3pg6hSd+Pbj3VNSgj2Wy2V94dzztesuO+uWP/0/ffHsz+qbF1+qfz/xpPvSTOnq6tJtd/xdZ3/mU7r1T9frfe8+Sed97QIteua5vtfQ4dBuvOVWnfKBk3Xrn67XFz//eV151Q/18Oy5fefpcPguueJK7bnH7u5hOhyG88/9gh6YOkUPTJ2iO2+7ecA5+hue++7/p37045/qC589S7fccJ0m7PU6PTT71Z7occNyuVzfNfjA1Cm66y+3qr29XYf9z6F9r6HDoV3w7Ys0eutRuvn66/SDK76rKXdP1c233dZ3ng7Xbzj/TvQ3NOufr4c6P1xZ7nioDoc6T4cVG+qJ9zFD21B/4j3MsA3VYy/exwxuOP3xPmZoQ/XI+5ihbahD3scMbUP9ifcww7ahHofz77Yx9+j+2W+42OAFkLpSqaS/3TlFHzv1w9pyiy00cZ+99abDDtdtd9zhvhQbMJwel730ks772td15HHH64ST3qtr/3jdgF+j138WLdJ/nnlGp330I+rs6ND+EyfqwAP21y1/+Yv70kzp7OzUxd/8usbtsYc6Otp0zFFHavTWo/TYgsckOhy2L37uLE3cZ2+1t7fr9fvuoz12210LFi6U6LAqd951t9rbWnXA/vsNOE6HNvQ3fNf8/Jc67WMf0X4T91V7e7uOPfqovuuRHqt359Sp2mLzzbXP3ntJdDhsTzz5pI55y9Hq7OjQTjuM1Rv2309PPPmURIdDGurfif7shupwqPOi4yHR4fDwPsaO9zDJ4X1MfdDf8PE+Jlm8j6ke72Hshvp329h7dP/sN1xs8AKoq3xrp3tIzy9eou7ubu226y59x3bdZRc98VTlwYjhGarHOI51znlf0Rabb67rr/2drrjsYv3pppt0/z8f6PerVERRrCAI3MP698In3EOZ9uKLL+q55xdr59fuJNFh1aIo0sOz5+qJp57WfhP3kehw2Lq6unT1T3+mM0//pHuKDofp8u9dpUOPfIs+cOrH9I977+s7Tn/D09PTo8cXLtSLy5bpmBPeqaPe9nZdcvkVWtPTI9FjTW67/Q4dc/SRfX9Ph8NzyEEH6fY7/qqu7m49vWiRZs56UJMPOlCiwyEN9e9Ef3ZDdTjUeToeGh3WhvcxteM9jA3vY+x4H2PD+5jk8T6meryHsRvq340ea8MGL4C6adt0a2264+vdw+ruXiVJ6mhv7zs2YkSnuroqxzE8Q/W48Ikn9OTTT+usT52hkSNHaMexY/Wed52oO++e2vf6XjuMfY1Gb721fvyzX6iru1szH3xI9z8wXavXrHZfmlnFYlFf/ea39dZj3qKddtxRosOqXHbFlTrosDfptE+fqfeddCIdVun7V/9YJ7ztrdp61Cj3FB0Ow3cv+rbuvO1m3X7jDTrpXe/UeV+7QI8teFyiv2F74b//VRzHuu+f/9Svf/pj/eKaH2r2nLn61W9+J9Fj1Z5fvFgPzZ6jY4569T+M0OHwfPK0j+nh2XN0xNHH6t0nn6KDDjxAb3h95c+LdLhhQ/070Z/dUB0OdZ6Oh0aH1eN9TO14D2PH+xgb3sfY8T4mWbyPqQ3vYeyG+nejx1cVi0X30HqxwQugLto23VpB5yj94zffcE+pvb1DkrSqu7vv2MqVXersrBzH8AzV4+LFS7Ry5UodfMSROuiwN+nANx6hSy+/UkuWLtUNN/2574fef/LMs5TP53XJty7QnEce0THHv0NXXfMTHXnE4Ro1yJu4LCqXyzr/699Ua1ubPv+ZT/cdp8Ph+/xnztR9U/6mX1zzI914861939aEDof26Lx5mjN3rt5z4jvdUxIdVqWjo01vfcvRmvSG/fu++p3+hqettVWS9P53v1tbbbWlxmy7rU565zt0/7RpEj1W7bY7/qp9956gbbfZpu8YHQ6tVCrp9M+cpaPefISm3H6b/vT732ne/Mf0s1/9WqLDIQ3170R/dkN1ONR5Oh4aHVaH9zE2vIex4X1McngfUzvexySL9zHV4z1MMob6d6PHit4/+w0XG7wAEte7uTvjxqsUx5F7WttuM1ptbW1a8Hjl599I0uMLF+q1a7+aFsMzVI+jtx6lrbbaUvdN+Zvuv+vv+ufdd+qBqVP0g8u/o7cf/zY98P/bu9vYKs8yDuB/QgMLdBJDhM3ETcMCI6J+miPAIOlewLmRafbmzPigbiTDZRoTExOjMXMQYE6ZjL2GKcI2EuZLjEM6qHYxSlfmgPnBTQEXCu1wa23j6Gxi64diQ8+28zylZ4lHfr9PJ/f9nJPc/0/3da7nuZ/WluxtbcmmDd9PTh178cgDP0xr885sfuiBdBw7lnlz5478dr0aHBzMt+6+J2/1n8ya73w7DQ0NI3MyHJuJEyfm4jmzs+Syhdn/4sFEhqW8/MpfcujwkSxsujLzlzRl0yOPpe359iy+clkiwzP23+N25FfO9OnTM23atNGDQ0OZMGG4HJDj2Ozc1Zyrly0dNSbDYp1dr+Vox/HcfMONmTLlnHzw/POz9Ior0ta+L5FhKdXWJL/xK8qwaF7GxWRYnjqmNtQwZ04d895Qx4yNOqa21DFjp4apnWprk+PovV9ZGrxATZ3e3M3QUD48d/gdN6draGjIVZc35dHNj+eN7u78cf+B7P5NS65eOnqDQXVFOV40a1bOmzkz9296MD09/0hvb29++czO7PjZLyp/Kkmy+cdb8tdDh9Pb15cfbd2WV4925Lrl11ReVlcGBwdz95q16enpybrV382kSZNGzcuwWG9fX9be94Mc7TiWfw0M5OBLf0rLb5/Lxz/20USGpZy+0dzb2pI7bv9SLv3kJXnu2eEnCGRYXW9fX9asvy9HO47l5Mm38syu5rS178uiU++7kV95135qWbY+tT2vv/5Gjnd2ZvvTP82iBfMTOY7J/gMvpbunO01LFo8al2GxmTM+kHPPbcz2p3ekv78/XV2vpXn3nsy+aFYiw1KqrUl+41eUYdG8jIvJsBx1zPioYWpDHTM+6pjaUcfUhjrmzKhhaqfa2s72HCv3fmVNOPnmP4cqBwHG4kT7juRdmruN73t/ZlxyfeVX8mZ/f1avXZ/f/f4PaWxszBdX3JrPXre88rKz3sOPbc7jP9k6amzFLZ/LHStvS0rk2N3Tk/s3Ppi2F4bvKrtswYKsWnnb2+9+PHVX1D3r7s2Rv72aT8ybl6/edWc+cuEFlZfVlc6urnzmplsqh/OVL6/KzTcMHzMlw2I7m5/Nlm1P5nhnZ86bMSPLr/10Pn/TjSPzMhybLdueyAv7D2TD+rUjYzKs7le/3pWtTzyZrhN/z4UXfChfWHFrFi9aODIvv3IGBgbyvQ0bs3vPnkw6Z3Kuurwpq1bePvKnsRzLWb3u3gz+ezDf/MbXK6dkWMKLBw5m40MP59DhI5k8eXIWzr80X7vrzkydOjWRYaGiNcmv2Hj310XzZ0PGRRkWzctwWLWc1DHFquUXNUxpRTmeTh3zdkX5qWPKKcpRHVOsKMOoY6oqyk8NU05RjkVrO5tzrNz77W1tGTWfJG3Pt1cOafAC43eifce7NneTvGODFwAAAAAAgOreqcHriGZg3Ko1dwEAAAAAAKgdDV5g3KbMnJN9P9+kuQsAAAAAAPAec0QzAAAAAAAAwP8gRzQDAAAAAAAA1DFP8AIAAPB/488vv1I5BAAAAHXl4jmzRz57ghcAAAAAAACgjmnwAgAAAAAAANQJDV4AAAAAAACAOqHBCwAAAAAAAFAnNHgBAAAAAAAA6oQGLwAAAAAAAECd0OAFAAAAAAAAqBMavAAAAAAAAAB14j+4U3FFl/wOTQAAAABJRU5ErkJggg==;" vertex="1" parent="1">
          <mxGeometry x="90" y="10" width="1912" height="848" as="geometry" />
        </mxCell>
        <mxCell id="KkZl20AM1zGRbjWCz4fC-2" value="" style="endArrow=classic;startArrow=classic;html=1;rounded=0;strokeColor=#FF3333;" edge="1" parent="1">
          <mxGeometry width="50" height="50" relative="1" as="geometry">
            <mxPoint x="1046" y="403" as="sourcePoint" />
            <mxPoint x="1046" y="445" as="targetPoint" />
          </mxGeometry>
        </mxCell>
        <mxCell id="KkZl20AM1zGRbjWCz4fC-3" value="&lt;font style=&quot;font-size: 18px; color: rgb(255, 51, 51);&quot;&gt;0.15mV&lt;/font&gt;" style="text;html=1;align=center;verticalAlign=middle;whiteSpace=wrap;rounded=0;" vertex="1" parent="1">
          <mxGeometry x="1060" y="410" width="60" height="30" as="geometry" />
        </mxCell>
      </root>
    </mxGraphModel>
  </diagram>
</mxfile>
